<?xml version="1.0" encoding="UTF-8"?>
<svg xmlns="http://www.w3.org/2000/svg" xmlns:xlink="http://www.w3.org/1999/xlink" width="459.439361" height="110.211023" viewBox="0 0 459.439361 110.211023">
<rect x="-45.943936" y="-11.021102" width="551.327233" height="132.253228" fill="rgb(100%, 100%, 100%)" fill-opacity="1"/>
<path fill-rule="nonzero" fill="rgb(0%, 0%, 0%)" fill-opacity="1" d="M 149.113281 16.742188 L 150.375 16.742188 L 150.375 43.308594 L 149.113281 43.308594 Z M 149.113281 16.742188 "/>
<path fill-rule="nonzero" fill="rgb(0%, 0%, 0%)" fill-opacity="1" d="M 156.824219 49.285156 L 168.488281 49.285156 C 168.855469 49.285156 169.152344 49.582031 169.152344 49.949219 C 169.152344 50.316406 168.855469 50.613281 168.488281 50.613281 L 156.824219 50.613281 C 156.457031 50.613281 156.160156 50.316406 156.160156 49.949219 C 156.160156 49.582031 156.457031 49.285156 156.824219 49.285156 Z M 156.824219 49.285156 "/>
<path fill-rule="nonzero" fill="rgb(0%, 0%, 0%)" fill-opacity="1" d="M 103.539062 49.285156 L 115.203125 49.285156 C 115.566406 49.285156 115.867188 49.582031 115.867188 49.949219 C 115.867188 50.316406 115.566406 50.613281 115.203125 50.613281 L 103.539062 50.613281 C 103.171875 50.613281 102.875 50.316406 102.875 49.949219 C 102.875 49.582031 103.171875 49.285156 103.539062 49.285156 Z M 103.539062 49.285156 "/>
<path fill-rule="nonzero" fill="rgb(0%, 0%, 0%)" fill-opacity="1" d="M 60.652344 49.285156 L 72.316406 49.285156 C 72.683594 49.285156 72.980469 49.582031 72.980469 49.949219 C 72.980469 50.316406 72.683594 50.613281 72.316406 50.613281 L 60.652344 50.613281 C 60.285156 50.613281 59.988281 50.316406 59.988281 49.949219 C 59.988281 49.582031 60.285156 49.285156 60.652344 49.285156 Z M 60.652344 49.285156 "/>
<path fill="none" stroke-width="0.1" stroke-linecap="round" stroke-linejoin="round" stroke="rgb(0%, 0%, 0%)" stroke-opacity="1" stroke-miterlimit="4" d="M 0.050168 -0.0000576641 L 68.236603 -0.0000576641 " transform="matrix(6.641259, 0, 0, 6.641259, 5.912915, 43.308977)"/>
<path fill="none" stroke-width="0.1" stroke-linecap="round" stroke-linejoin="round" stroke="rgb(0%, 0%, 0%)" stroke-opacity="1" stroke-miterlimit="4" d="M 0.050168 0.000037738 L 68.236603 0.000037738 " transform="matrix(6.641259, 0, 0, 6.641259, 5.912915, 36.667718)"/>
<path fill="none" stroke-width="0.1" stroke-linecap="round" stroke-linejoin="round" stroke="rgb(0%, 0%, 0%)" stroke-opacity="1" stroke-miterlimit="4" d="M 0.050168 0.000133259 L 68.236603 0.000133259 " transform="matrix(6.641259, 0, 0, 6.641259, 5.912915, 30.026459)"/>
<path fill="none" stroke-width="0.1" stroke-linecap="round" stroke-linejoin="round" stroke="rgb(0%, 0%, 0%)" stroke-opacity="1" stroke-miterlimit="4" d="M 0.050168 0.000228661 L 68.236603 0.000228661 " transform="matrix(6.641259, 0, 0, 6.641259, 5.912915, 23.3852)"/>
<path fill="none" stroke-width="0.1" stroke-linecap="round" stroke-linejoin="round" stroke="rgb(0%, 0%, 0%)" stroke-opacity="1" stroke-miterlimit="4" d="M 0.050168 -0.000264131 L 68.236603 -0.000264131 " transform="matrix(6.641259, 0, 0, 6.641259, 5.912915, 16.743942)"/>
<path fill-rule="nonzero" fill="rgb(0%, 0%, 0%)" fill-opacity="1" d="M 458.160156 16.742188 L 459.421875 16.742188 L 459.421875 43.308594 L 458.160156 43.308594 Z M 458.160156 16.742188 "/>
<path fill-rule="nonzero" fill="rgb(0%, 0%, 0%)" fill-opacity="1" d="M 384.390625 16.742188 L 385.652344 16.742188 L 385.652344 43.308594 L 384.390625 43.308594 Z M 384.390625 16.742188 "/>
<path fill-rule="nonzero" fill="rgb(0%, 0%, 0%)" fill-opacity="1" d="M 260.25 16.742188 L 261.511719 16.742188 L 261.511719 43.308594 L 260.25 43.308594 Z M 260.25 16.742188 "/>
<path fill-rule="nonzero" fill="rgb(0%, 0%, 0%)" fill-opacity="1" d="M 68.714844 0.0742188 C 70.296875 0.0742188 71.519531 0.488281 72.398438 1.316406 C 73.28125 2.148438 73.75 3.082031 73.851562 4.144531 L 72.21875 4.144531 C 72.011719 3.339844 71.648438 2.691406 71.101562 2.226562 C 70.53125 1.757812 69.753906 1.523438 68.742188 1.523438 C 67.523438 1.523438 66.535156 1.964844 65.757812 2.824219 C 65.007812 3.679688 64.644531 5 64.644531 6.792969 C 64.644531 8.246094 64.980469 9.4375 65.65625 10.347656 C 66.328125 11.253906 67.367188 11.695312 68.714844 11.695312 C 69.960938 11.695312 70.894531 11.226562 71.542969 10.269531 C 71.90625 9.773438 72.167969 9.101562 72.320312 8.269531 L 73.980469 8.269531 C 73.828125 9.59375 73.332031 10.683594 72.503906 11.589844 C 71.519531 12.65625 70.195312 13.171875 68.507812 13.171875 C 67.054688 13.171875 65.835938 12.757812 64.851562 11.875 C 63.554688 10.707031 62.90625 8.917969 62.90625 6.507812 C 62.90625 4.664062 63.398438 3.160156 64.382812 1.964844 C 65.421875 0.695312 66.875 0.0742188 68.714844 0.0742188 Z M 62.152344 -0.523438 "/>
<path fill-rule="nonzero" fill="rgb(0%, 0%, 0%)" fill-opacity="1" d="M 67.945312 46.335938 C 69.695312 46.335938 70.8125 47.292969 70.8125 48.703125 C 70.8125 51.066406 67.8125 53.5625 65.019531 53.5625 C 63.269531 53.5625 62.152344 52.605469 62.152344 51.199219 C 62.152344 48.835938 65.152344 46.335938 67.945312 46.335938 Z M 67.945312 46.335938 "/>
<path fill-rule="nonzero" fill="rgb(0%, 0%, 0%)" fill-opacity="1" d="M 18.292969 53.535156 L 18.132812 53.535156 C 15.265625 53.535156 12.953125 51.199219 12.953125 48.304688 C 12.953125 46.761719 14.359375 45.566406 15.929688 45.566406 C 17.363281 45.566406 18.453125 46.816406 18.453125 48.304688 C 18.453125 49.683594 17.308594 50.828125 15.929688 50.828125 C 15.636719 50.828125 15.371094 50.773438 15.105469 50.667969 C 15.796875 51.703125 16.910156 52.394531 18.210938 52.394531 L 18.320312 52.394531 Z M 23.472656 42.058594 C 25.277344 41.421875 26.472656 39.667969 26.472656 37.703125 C 26.472656 35.3125 24.722656 32.949219 21.878906 32.65625 C 22.382812 35.019531 23.152344 39.085938 23.472656 42.058594 Z M 13.191406 35.925781 C 13.191406 39.777344 16.9375 42.484375 20.203125 42.484375 C 20.230469 42.484375 21.453125 42.484375 22.382812 42.324219 C 22.199219 40.625 21.613281 36.933594 20.710938 32.65625 C 18.609375 32.867188 17.414062 34.277344 17.414062 35.816406 C 17.414062 36.988281 18.078125 38.234375 19.566406 39.085938 C 19.699219 39.21875 19.753906 39.351562 19.753906 39.484375 C 19.753906 39.777344 19.488281 40.066406 19.167969 40.066406 C 18.769531 40.066406 15.820312 38.421875 15.820312 35.101562 C 15.820312 32.761719 17.363281 30.476562 20.070312 29.867188 C 19.699219 28.328125 19.300781 26.757812 18.851562 25.21875 C 16.007812 28.433594 13.191406 31.671875 13.191406 35.925781 Z M 17.867188 21.976562 C 17.097656 19.425781 16.484375 17.460938 16.484375 12.785156 C 16.484375 9.730469 17.945312 6.835938 20.445312 5.027344 C 20.601562 4.894531 20.816406 4.894531 20.976562 5.027344 C 22.78125 7.152344 24.507812 11.539062 24.507812 14.539062 C 24.507812 18.335938 22.222656 21.3125 19.726562 24.207031 C 20.285156 26.015625 20.761719 27.875 21.214844 29.707031 C 21.265625 29.707031 21.398438 29.679688 21.558594 29.679688 C 25.675781 29.679688 28.359375 33.082031 28.359375 36.613281 C 28.359375 39.617188 26.394531 42.246094 23.578125 43.148438 C 23.660156 44.078125 23.710938 45.007812 23.710938 45.9375 C 23.710938 46.445312 23.683594 46.976562 23.660156 47.480469 C 23.472656 50.640625 21.320312 53.457031 18.292969 53.535156 L 18.320312 52.394531 C 20.789062 52.339844 22.382812 49.949219 22.542969 47.320312 C 22.570312 46.84375 22.597656 46.335938 22.597656 45.859375 C 22.597656 45.035156 22.570312 44.238281 22.488281 43.414062 C 22.355469 43.441406 21.320312 43.628906 20.125 43.628906 C 15 43.628906 11.277344 38.847656 11.277344 33.691406 C 11.277344 28.992188 14.757812 25.5625 17.867188 21.976562 Z M 22.597656 12.335938 C 22.597656 11.429688 22.621094 10.582031 22.066406 8.90625 C 19.433594 10.183594 17.761719 12.867188 17.761719 15.789062 C 17.761719 17.167969 18.078125 18.84375 18.71875 20.941406 C 20.84375 18.363281 22.597656 15.679688 22.597656 12.335938 Z M 22.597656 12.335938 "/>
<path fill-rule="nonzero" fill="rgb(0%, 0%, 0%)" fill-opacity="1" d="M 43.976562 23.144531 C 42.621094 23.144531 42.566406 24.289062 42.566406 25.800781 L 42.566406 26.757812 C 42.566406 28.273438 42.621094 29.414062 43.976562 29.414062 C 45.488281 29.414062 45.597656 28.0625 45.597656 26.28125 C 45.597656 24.5 45.488281 23.144531 43.976562 23.144531 Z M 42.566406 22.960938 C 42.964844 22.695312 43.445312 22.535156 43.976562 22.535156 C 46.660156 22.535156 48.492188 23.757812 48.492188 26.28125 C 48.492188 28.804688 46.660156 30.027344 43.976562 30.027344 C 41 30.027344 39.460938 26.730469 39.460938 23.386719 C 39.460938 19.984375 41.371094 16.742188 44.507812 16.742188 C 46.367188 16.742188 48.121094 17.78125 48.121094 19.480469 C 48.121094 20.4375 47.347656 21.234375 46.394531 21.234375 C 45.4375 21.234375 44.640625 20.4375 44.640625 19.480469 C 44.640625 18.84375 45.703125 18.816406 45.703125 18.179688 C 45.703125 17.648438 45.089844 17.355469 44.507812 17.355469 C 42.753906 17.355469 42.515625 19.082031 42.515625 21.046875 C 42.515625 21.683594 42.566406 22.324219 42.566406 22.960938 Z M 42.566406 22.960938 "/>
<path fill-rule="nonzero" fill="rgb(0%, 0%, 0%)" fill-opacity="1" d="M 46.050781 35.683594 C 46.71875 34.886719 47.222656 33.984375 47.222656 32.949219 C 47.222656 31.515625 45.761719 30.636719 44.191406 30.636719 C 42.972656 30.636719 42.253906 31.59375 42.253906 32.523438 C 42.253906 33.082031 42.519531 33.640625 43.078125 33.957031 Z M 46.875 36.164062 C 47.488281 36.507812 49 37.597656 49 39.484375 C 49 41.421875 47.25 43.308594 43.980469 43.308594 C 41.484375 43.308594 39.121094 41.875 39.121094 39.589844 C 39.121094 38.261719 40.074219 37.277344 41.03125 36.324219 C 40.050781 35.578125 39.570312 34.570312 39.570312 33.585938 C 39.570312 31.78125 41.164062 30.027344 44.191406 30.027344 C 46.316406 30.027344 48.363281 31.0625 48.363281 32.949219 C 48.363281 34.171875 47.699219 35.234375 46.875 36.164062 Z M 41.855469 36.828125 C 41.03125 37.625 40.289062 38.449219 40.289062 39.589844 C 40.289062 41.421875 42.042969 42.699219 43.980469 42.699219 C 45.414062 42.699219 46.265625 41.582031 46.265625 40.492188 C 46.265625 39.855469 46 39.21875 45.335938 38.847656 Z M 41.855469 36.828125 "/>
<path fill-rule="nonzero" fill="rgb(0%, 0%, 0%)" fill-opacity="1" d="M 73.800781 46.628906 C 73.800781 45.804688 74.464844 45.140625 75.289062 45.140625 C 76.113281 45.140625 76.777344 45.804688 76.777344 46.628906 C 76.777344 47.453125 76.113281 48.117188 75.289062 48.117188 C 74.464844 48.117188 73.800781 47.453125 73.800781 46.628906 Z M 73.800781 46.628906 "/>
<path fill-rule="nonzero" fill="rgb(0%, 0%, 0%)" fill-opacity="1" d="M 70.214844 26.707031 L 70.546875 26.707031 C 70.695312 26.707031 70.8125 26.824219 70.8125 26.972656 L 70.8125 48.449219 C 70.8125 48.59375 70.695312 48.714844 70.546875 48.714844 L 70.214844 48.714844 C 70.070312 48.714844 69.949219 48.59375 69.949219 48.449219 L 69.949219 26.972656 C 69.949219 26.824219 70.070312 26.707031 70.214844 26.707031 Z M 70.214844 26.707031 "/>
<path fill-rule="nonzero" fill="rgb(0%, 0%, 0%)" fill-opacity="1" d="M 110.832031 46.335938 C 112.582031 46.335938 113.699219 47.292969 113.699219 48.703125 C 113.699219 51.066406 110.699219 53.5625 107.90625 53.5625 C 106.15625 53.5625 105.039062 52.605469 105.039062 51.199219 C 105.039062 48.835938 108.039062 46.335938 110.832031 46.335938 Z M 110.832031 46.335938 "/>
<path fill-rule="nonzero" fill="rgb(0%, 0%, 0%)" fill-opacity="1" d="M 116.6875 46.628906 C 116.6875 45.804688 117.351562 45.140625 118.175781 45.140625 C 119 45.140625 119.664062 45.804688 119.664062 46.628906 C 119.664062 47.453125 119 48.117188 118.175781 48.117188 C 117.351562 48.117188 116.6875 47.453125 116.6875 46.628906 Z M 116.6875 46.628906 "/>
<path fill-rule="nonzero" fill="rgb(0%, 0%, 0%)" fill-opacity="1" d="M 113.101562 26.707031 L 113.433594 26.707031 C 113.582031 26.707031 113.699219 26.824219 113.699219 26.972656 L 113.699219 48.449219 C 113.699219 48.59375 113.582031 48.714844 113.433594 48.714844 L 113.101562 48.714844 C 112.957031 48.714844 112.835938 48.59375 112.835938 48.449219 L 112.835938 26.972656 C 112.835938 26.824219 112.957031 26.707031 113.101562 26.707031 Z M 113.101562 26.707031 "/>
<path fill-rule="nonzero" fill="rgb(0%, 0%, 0%)" fill-opacity="1" d="M 164.117188 46.335938 C 165.871094 46.335938 166.988281 47.292969 166.988281 48.703125 C 166.988281 51.066406 163.984375 53.5625 161.195312 53.5625 C 159.441406 53.5625 158.328125 52.605469 158.328125 51.199219 C 158.328125 48.835938 161.328125 46.335938 164.117188 46.335938 Z M 164.117188 46.335938 "/>
<path fill-rule="nonzero" fill="rgb(0%, 0%, 0%)" fill-opacity="1" d="M 166.390625 26.707031 L 166.722656 26.707031 C 166.871094 26.707031 166.988281 26.824219 166.988281 26.972656 L 166.988281 48.449219 C 166.988281 48.59375 166.871094 48.714844 166.722656 48.714844 L 166.390625 48.714844 C 166.246094 48.714844 166.125 48.59375 166.125 48.449219 L 166.125 26.972656 C 166.125 26.824219 166.246094 26.707031 166.390625 26.707031 Z M 166.390625 26.707031 "/>
<path fill-rule="nonzero" fill="rgb(0%, 0%, 0%)" fill-opacity="1" d="M 199.261719 43.015625 C 201.011719 43.015625 202.128906 43.972656 202.128906 45.382812 C 202.128906 47.746094 199.128906 50.242188 196.335938 50.242188 C 194.585938 50.242188 193.46875 49.285156 193.46875 47.878906 C 193.46875 45.515625 196.46875 43.015625 199.261719 43.015625 Z M 199.261719 43.015625 "/>
<path fill-rule="nonzero" fill="rgb(0%, 0%, 0%)" fill-opacity="1" d="M 201.53125 23.386719 L 201.863281 23.386719 C 202.011719 23.386719 202.128906 23.503906 202.128906 23.652344 L 202.128906 45.128906 C 202.128906 45.273438 202.011719 45.394531 201.863281 45.394531 L 201.53125 45.394531 C 201.386719 45.394531 201.265625 45.273438 201.265625 45.128906 L 201.265625 23.652344 C 201.265625 23.503906 201.386719 23.386719 201.53125 23.386719 Z M 201.53125 23.386719 "/>
<path fill-rule="nonzero" fill="rgb(0%, 0%, 0%)" fill-opacity="1" d="M 202.128906 23.652344 L 202.128906 30.292969 L 201.707031 30.292969 L 201.707031 23.652344 Z M 202.128906 23.652344 C 202.128906 28.882812 207.628906 32.578125 207.628906 37.808594 C 207.628906 39.695312 207.230469 41.554688 206.539062 43.308594 C 206.40625 43.523438 206.195312 43.628906 206.007812 43.628906 C 205.664062 43.628906 205.316406 43.335938 205.398438 42.910156 C 206.089844 41.289062 206.511719 39.5625 206.511719 37.808594 C 206.511719 35.074219 204.015625 32.285156 202.128906 30.292969 Z M 202.128906 23.652344 "/>
<path fill-rule="nonzero" fill="rgb(0%, 0%, 0%)" fill-opacity="1" d="M 221.582031 39.695312 C 223.335938 39.695312 224.449219 40.652344 224.449219 42.058594 C 224.449219 44.425781 221.449219 46.921875 218.660156 46.921875 C 216.90625 46.921875 215.789062 45.964844 215.789062 44.558594 C 215.789062 42.191406 218.792969 39.695312 221.582031 39.695312 Z M 221.582031 39.695312 "/>
<path fill-rule="nonzero" fill="rgb(0%, 0%, 0%)" fill-opacity="1" d="M 227.441406 39.988281 C 227.441406 39.164062 228.105469 38.5 228.925781 38.5 C 229.75 38.5 230.414062 39.164062 230.414062 39.988281 C 230.414062 40.8125 229.75 41.476562 228.925781 41.476562 C 228.105469 41.476562 227.441406 40.8125 227.441406 39.988281 Z M 227.441406 39.988281 "/>
<path fill-rule="nonzero" fill="rgb(0%, 0%, 0%)" fill-opacity="1" d="M 223.855469 20.066406 L 224.1875 20.066406 C 224.332031 20.066406 224.453125 20.183594 224.453125 20.332031 L 224.453125 41.808594 C 224.453125 41.953125 224.332031 42.074219 224.1875 42.074219 L 223.855469 42.074219 C 223.707031 42.074219 223.589844 41.953125 223.589844 41.808594 L 223.589844 20.332031 C 223.589844 20.183594 223.707031 20.066406 223.855469 20.066406 Z M 223.855469 20.066406 "/>
<path fill-rule="nonzero" fill="rgb(0%, 0%, 0%)" fill-opacity="1" d="M 275.253906 39.695312 C 277.007812 39.695312 278.125 40.652344 278.125 42.058594 C 278.125 44.425781 275.121094 46.921875 272.332031 46.921875 C 270.578125 46.921875 269.464844 45.964844 269.464844 44.558594 C 269.464844 42.191406 272.464844 39.695312 275.253906 39.695312 Z M 275.253906 39.695312 "/>
<path fill-rule="nonzero" fill="rgb(0%, 0%, 0%)" fill-opacity="1" d="M 277.527344 20.066406 L 277.859375 20.066406 C 278.007812 20.066406 278.125 20.183594 278.125 20.332031 L 278.125 41.808594 C 278.125 41.953125 278.007812 42.074219 277.859375 42.074219 L 277.527344 42.074219 C 277.382812 42.074219 277.261719 41.953125 277.261719 41.808594 L 277.261719 20.332031 C 277.261719 20.183594 277.382812 20.066406 277.527344 20.066406 Z M 277.527344 20.066406 "/>
<path fill-rule="nonzero" fill="rgb(0%, 0%, 0%)" fill-opacity="1" d="M 310.398438 43.015625 C 312.152344 43.015625 313.265625 43.972656 313.265625 45.382812 C 313.265625 47.746094 310.265625 50.242188 307.476562 50.242188 C 305.722656 50.242188 304.605469 49.285156 304.605469 47.878906 C 304.605469 45.515625 307.609375 43.015625 310.398438 43.015625 Z M 310.398438 43.015625 "/>
<path fill-rule="nonzero" fill="rgb(0%, 0%, 0%)" fill-opacity="1" d="M 312.671875 23.386719 L 313.003906 23.386719 C 313.148438 23.386719 313.269531 23.503906 313.269531 23.652344 L 313.269531 45.128906 C 313.269531 45.273438 313.148438 45.394531 313.003906 45.394531 L 312.671875 45.394531 C 312.523438 45.394531 312.40625 45.273438 312.40625 45.128906 L 312.40625 23.652344 C 312.40625 23.503906 312.523438 23.386719 312.671875 23.386719 Z M 312.671875 23.386719 "/>
<path fill-rule="nonzero" fill="rgb(0%, 0%, 0%)" fill-opacity="1" d="M 313.269531 23.652344 L 313.269531 30.292969 L 312.84375 30.292969 L 312.84375 23.652344 Z M 313.269531 23.652344 C 313.269531 28.882812 318.765625 32.578125 318.765625 37.808594 C 318.765625 39.695312 318.367188 41.554688 317.675781 43.308594 C 317.542969 43.523438 317.332031 43.628906 317.144531 43.628906 C 316.800781 43.628906 316.457031 43.335938 316.535156 42.910156 C 317.226562 41.289062 317.652344 39.5625 317.652344 37.808594 C 317.652344 35.074219 315.152344 32.285156 313.269531 30.292969 Z M 313.269531 23.652344 "/>
<path fill-rule="nonzero" fill="rgb(0%, 0%, 0%)" fill-opacity="1" d="M 332.71875 39.695312 C 334.472656 39.695312 335.585938 40.652344 335.585938 42.058594 C 335.585938 44.425781 332.585938 46.921875 329.796875 46.921875 C 328.042969 46.921875 326.925781 45.964844 326.925781 44.558594 C 326.925781 42.191406 329.929688 39.695312 332.71875 39.695312 Z M 332.71875 39.695312 "/>
<path fill-rule="nonzero" fill="rgb(0%, 0%, 0%)" fill-opacity="1" d="M 334.992188 20.066406 L 335.324219 20.066406 C 335.46875 20.066406 335.589844 20.183594 335.589844 20.332031 L 335.589844 41.808594 C 335.589844 41.953125 335.46875 42.074219 335.324219 42.074219 L 334.992188 42.074219 C 334.84375 42.074219 334.726562 41.953125 334.726562 41.808594 L 334.726562 20.332031 C 334.726562 20.183594 334.84375 20.066406 334.992188 20.066406 Z M 334.992188 20.066406 "/>
<path fill-rule="nonzero" fill="rgb(0%, 0%, 0%)" fill-opacity="1" d="M 367.859375 36.375 C 369.613281 36.375 370.730469 37.332031 370.730469 38.738281 C 370.730469 41.105469 367.726562 43.601562 364.9375 43.601562 C 363.183594 43.601562 362.070312 42.644531 362.070312 41.238281 C 362.070312 38.871094 365.070312 36.375 367.859375 36.375 Z M 367.859375 36.375 "/>
<path fill-rule="nonzero" fill="rgb(0%, 0%, 0%)" fill-opacity="1" d="M 370.132812 16.742188 L 370.464844 16.742188 C 370.613281 16.742188 370.730469 16.863281 370.730469 17.007812 L 370.730469 38.488281 C 370.730469 38.632812 370.613281 38.753906 370.464844 38.753906 L 370.132812 38.753906 C 369.984375 38.753906 369.867188 38.632812 369.867188 38.488281 L 369.867188 17.007812 C 369.867188 16.863281 369.984375 16.742188 370.132812 16.742188 Z M 370.132812 16.742188 "/>
<path fill-rule="nonzero" fill="rgb(0%, 0%, 0%)" fill-opacity="1" d="M 370.730469 17.007812 L 370.730469 23.652344 L 370.304688 23.652344 L 370.304688 17.007812 Z M 370.730469 17.007812 C 370.730469 22.242188 376.230469 25.933594 376.230469 31.167969 C 376.230469 33.054688 375.832031 34.914062 375.140625 36.667969 C 375.007812 36.878906 374.796875 36.988281 374.609375 36.988281 C 374.265625 36.988281 373.917969 36.695312 373.996094 36.269531 C 374.6875 34.648438 375.113281 32.921875 375.113281 31.167969 C 375.113281 28.433594 372.617188 25.644531 370.730469 23.652344 Z M 370.730469 17.007812 "/>
<path fill-rule="nonzero" fill="rgb(0%, 0%, 0%)" fill-opacity="1" d="M 408.589844 34.941406 C 408.589844 34.328125 408.085938 33.851562 407.472656 33.851562 C 406.4375 33.851562 402.054688 36.773438 401.335938 37.652344 C 401.152344 37.863281 401.070312 38.128906 401.070312 38.394531 C 401.070312 39.003906 401.574219 39.484375 402.1875 39.484375 C 403.222656 39.484375 407.578125 36.5625 408.296875 35.683594 C 408.484375 35.472656 408.589844 35.207031 408.589844 34.941406 Z M 407.207031 33.054688 C 408.296875 33.054688 409.386719 33.425781 409.386719 34.941406 C 409.386719 35.632812 408.960938 37.917969 407.421875 38.953125 C 406.757812 39.402344 405.109375 40.28125 402.453125 40.28125 C 401.363281 40.28125 400.246094 39.910156 400.246094 38.394531 C 400.246094 37.703125 400.671875 35.417969 402.214844 34.382812 C 402.878906 33.929688 404.550781 33.054688 407.207031 33.054688 Z M 407.207031 33.054688 "/>
<path fill-rule="nonzero" fill="rgb(0%, 0%, 0%)" fill-opacity="1" d="M 412.382812 33.347656 C 412.382812 32.523438 413.046875 31.859375 413.871094 31.859375 C 414.695312 31.859375 415.359375 32.523438 415.359375 33.347656 C 415.359375 34.171875 414.695312 34.835938 413.871094 34.835938 C 413.046875 34.835938 412.382812 34.171875 412.382812 33.347656 Z M 412.382812 33.347656 "/>
<path fill-rule="nonzero" fill="rgb(0%, 0%, 0%)" fill-opacity="1" d="M 408.796875 13.421875 L 409.128906 13.421875 C 409.277344 13.421875 409.394531 13.542969 409.394531 13.6875 L 409.394531 34.683594 C 409.394531 34.828125 409.277344 34.949219 409.128906 34.949219 L 408.796875 34.949219 C 408.648438 34.949219 408.53125 34.828125 408.53125 34.683594 L 408.53125 13.6875 C 408.53125 13.542969 408.648438 13.421875 408.796875 13.421875 Z M 408.796875 13.421875 "/>
<path fill-rule="nonzero" fill="rgb(0%, 0%, 0%)" fill-opacity="1" d="M 159.761719 73.351562 L 161.023438 73.351562 L 161.023438 99.917969 L 159.761719 99.917969 Z M 159.761719 73.351562 "/>
<path fill-rule="nonzero" fill="rgb(0%, 0%, 0%)" fill-opacity="1" d="M 402.527344 105.894531 L 414.921875 105.894531 C 415.289062 105.894531 415.585938 106.191406 415.585938 106.558594 C 415.585938 106.925781 415.289062 107.222656 414.921875 107.222656 L 402.527344 107.222656 C 402.160156 107.222656 401.863281 106.925781 401.863281 106.558594 C 401.863281 106.191406 402.160156 105.894531 402.527344 105.894531 Z M 402.527344 105.894531 "/>
<path fill-rule="nonzero" fill="rgb(0%, 0%, 0%)" fill-opacity="1" d="M 260.679688 105.894531 L 272.34375 105.894531 C 272.710938 105.894531 273.007812 106.191406 273.007812 106.558594 C 273.007812 106.925781 272.710938 107.222656 272.34375 107.222656 L 260.679688 107.222656 C 260.3125 107.222656 260.015625 106.925781 260.015625 106.558594 C 260.015625 106.191406 260.3125 105.894531 260.679688 105.894531 Z M 260.679688 105.894531 "/>
<path fill-rule="nonzero" fill="rgb(0%, 0%, 0%)" fill-opacity="1" d="M 241.5 105.894531 L 253.164062 105.894531 C 253.53125 105.894531 253.828125 106.191406 253.828125 106.558594 C 253.828125 106.925781 253.53125 107.222656 253.164062 107.222656 L 241.5 107.222656 C 241.136719 107.222656 240.835938 106.925781 240.835938 106.558594 C 240.835938 106.191406 241.136719 105.894531 241.5 105.894531 Z M 241.5 105.894531 "/>
<path fill-rule="nonzero" fill="rgb(0%, 0%, 0%)" fill-opacity="1" d="M 222.324219 105.894531 L 233.988281 105.894531 C 234.355469 105.894531 234.652344 106.191406 234.652344 106.558594 C 234.652344 106.925781 234.355469 107.222656 233.988281 107.222656 L 222.324219 107.222656 C 221.957031 107.222656 221.660156 106.925781 221.660156 106.558594 C 221.660156 106.191406 221.957031 105.894531 222.324219 105.894531 Z M 222.324219 105.894531 "/>
<path fill="none" stroke-width="0.1" stroke-linecap="round" stroke-linejoin="round" stroke="rgb(0%, 0%, 0%)" stroke-opacity="1" stroke-miterlimit="4" d="M 0.050168 0.000135421 L 68.236603 0.000135421 " transform="matrix(6.641259, 0, 0, 6.641259, 5.912915, 99.917069)"/>
<path fill="none" stroke-width="0.1" stroke-linecap="round" stroke-linejoin="round" stroke="rgb(0%, 0%, 0%)" stroke-opacity="1" stroke-miterlimit="4" d="M 0.050168 0.000230824 L 68.236603 0.000230824 " transform="matrix(6.641259, 0, 0, 6.641259, 5.912915, 93.275811)"/>
<path fill="none" stroke-width="0.1" stroke-linecap="round" stroke-linejoin="round" stroke="rgb(0%, 0%, 0%)" stroke-opacity="1" stroke-miterlimit="4" d="M 0.050168 -0.000261954 L 68.236603 -0.000261954 " transform="matrix(6.641259, 0, 0, 6.641259, 5.912915, 86.634552)"/>
<path fill="none" stroke-width="0.1" stroke-linecap="round" stroke-linejoin="round" stroke="rgb(0%, 0%, 0%)" stroke-opacity="1" stroke-miterlimit="4" d="M 0.050168 -0.000166551 L 68.236603 -0.000166551 " transform="matrix(6.641259, 0, 0, 6.641259, 5.912915, 79.993294)"/>
<path fill="none" stroke-width="0.1" stroke-linecap="round" stroke-linejoin="round" stroke="rgb(0%, 0%, 0%)" stroke-opacity="1" stroke-miterlimit="4" d="M 0.050168 -0.0000711493 L 68.236603 -0.0000711493 " transform="matrix(6.641259, 0, 0, 6.641259, 5.912915, 73.352035)"/>
<path fill-rule="nonzero" fill="rgb(0%, 0%, 0%)" fill-opacity="1" d="M 455.4375 73.351562 L 459.421875 73.351562 L 459.421875 99.917969 L 455.4375 99.917969 Z M 455.4375 73.351562 "/>
<path fill-rule="nonzero" fill="rgb(0%, 0%, 0%)" fill-opacity="1" d="M 452.183594 73.351562 L 453.445312 73.351562 L 453.445312 99.917969 L 452.183594 99.917969 Z M 452.183594 73.351562 "/>
<path fill-rule="nonzero" fill="rgb(0%, 0%, 0%)" fill-opacity="1" d="M 389.316406 73.351562 L 390.578125 73.351562 L 390.578125 99.917969 L 389.316406 99.917969 Z M 389.316406 73.351562 "/>
<path fill-rule="nonzero" fill="rgb(0%, 0%, 0%)" fill-opacity="1" d="M 282.542969 73.351562 L 283.804688 73.351562 L 283.804688 99.917969 L 282.542969 99.917969 Z M 282.542969 73.351562 "/>
<path fill-rule="nonzero" fill="rgb(0%, 0%, 0%)" fill-opacity="1" d="M 229.617188 102.945312 C 231.371094 102.945312 232.484375 103.902344 232.484375 105.308594 C 232.484375 107.675781 229.484375 110.171875 226.695312 110.171875 C 224.941406 110.171875 223.824219 109.214844 223.824219 107.808594 C 223.824219 105.441406 226.828125 102.945312 229.617188 102.945312 Z M 229.617188 102.945312 "/>
<path fill-rule="nonzero" fill="rgb(0%, 0%, 0%)" fill-opacity="1" d="M 18.292969 110.144531 L 18.132812 110.144531 C 15.265625 110.144531 12.953125 107.808594 12.953125 104.910156 C 12.953125 103.371094 14.359375 102.175781 15.929688 102.175781 C 17.363281 102.175781 18.453125 103.421875 18.453125 104.910156 C 18.453125 106.292969 17.308594 107.433594 15.929688 107.433594 C 15.636719 107.433594 15.371094 107.382812 15.105469 107.277344 C 15.796875 108.3125 16.910156 109.003906 18.210938 109.003906 L 18.320312 109.003906 Z M 23.472656 98.667969 C 25.277344 98.03125 26.472656 96.277344 26.472656 94.3125 C 26.472656 91.921875 24.722656 89.558594 21.878906 89.265625 C 22.382812 91.628906 23.152344 95.691406 23.472656 98.667969 Z M 13.191406 92.53125 C 13.191406 96.382812 16.9375 99.09375 20.203125 99.09375 C 20.230469 99.09375 21.453125 99.09375 22.382812 98.933594 C 22.199219 97.234375 21.613281 93.542969 20.710938 89.265625 C 18.609375 89.476562 17.414062 90.886719 17.414062 92.425781 C 17.414062 93.59375 18.078125 94.84375 19.566406 95.691406 C 19.699219 95.824219 19.753906 95.957031 19.753906 96.089844 C 19.753906 96.382812 19.488281 96.675781 19.167969 96.675781 C 18.769531 96.675781 15.820312 95.027344 15.820312 91.707031 C 15.820312 89.371094 17.363281 87.085938 20.070312 86.476562 C 19.699219 84.933594 19.300781 83.367188 18.851562 81.828125 C 16.007812 85.039062 13.191406 88.28125 13.191406 92.53125 Z M 17.867188 78.585938 C 17.097656 76.035156 16.484375 74.070312 16.484375 69.394531 C 16.484375 66.339844 17.945312 63.441406 20.445312 61.636719 C 20.601562 61.503906 20.816406 61.503906 20.976562 61.636719 C 22.78125 63.761719 24.507812 68.144531 24.507812 71.148438 C 24.507812 74.945312 22.222656 77.921875 19.726562 80.816406 C 20.285156 82.625 20.761719 84.484375 21.214844 86.316406 C 21.265625 86.316406 21.398438 86.289062 21.558594 86.289062 C 25.675781 86.289062 28.359375 89.691406 28.359375 93.222656 C 28.359375 96.222656 26.394531 98.855469 23.578125 99.757812 C 23.660156 100.6875 23.710938 101.617188 23.710938 102.546875 C 23.710938 103.050781 23.683594 103.582031 23.660156 104.085938 C 23.472656 107.25 21.320312 110.066406 18.292969 110.144531 L 18.320312 109.003906 C 20.789062 108.949219 22.382812 106.558594 22.542969 103.929688 C 22.570312 103.449219 22.597656 102.945312 22.597656 102.46875 C 22.597656 101.644531 22.570312 100.847656 22.488281 100.023438 C 22.355469 100.050781 21.320312 100.234375 20.125 100.234375 C 15 100.234375 11.277344 95.453125 11.277344 90.300781 C 11.277344 85.597656 14.757812 82.171875 17.867188 78.585938 Z M 22.597656 68.941406 C 22.597656 68.039062 22.621094 67.1875 22.066406 65.515625 C 19.433594 66.789062 17.761719 69.472656 17.761719 72.394531 C 17.761719 73.777344 18.078125 75.449219 18.71875 77.550781 C 20.84375 74.972656 22.597656 72.289062 22.597656 68.941406 Z M 22.597656 68.941406 "/>
<path fill-rule="nonzero" fill="rgb(0%, 0%, 0%)" fill-opacity="1" d="M 0.875 65.207031 C 1.105469 65.207031 1.390625 65.335938 1.730469 65.570312 C 2.066406 65.800781 2.351562 65.933594 2.535156 65.933594 C 2.976562 65.933594 3.339844 65.75 3.675781 65.359375 C 4.011719 64.972656 4.167969 64.503906 4.167969 63.960938 C 4.167969 62.972656 3.648438 62.273438 2.613281 61.832031 C 2.015625 61.597656 1.496094 61.46875 0.976562 61.46875 C 0.898438 61.46875 0.847656 61.46875 0.820312 61.46875 C 0.796875 61.46875 0.796875 61.445312 0.742188 61.417969 C 0.769531 61.390625 0.769531 61.367188 0.769531 61.339844 C 0.769531 61.3125 0.796875 61.289062 0.796875 61.289062 L 2.015625 58.5625 L 4.453125 58.5625 C 4.582031 58.5625 4.660156 58.539062 4.738281 58.511719 C 4.789062 58.460938 4.894531 58.382812 5 58.277344 L 5.078125 58.355469 L 4.636719 59.394531 C 4.636719 59.445312 4.582031 59.445312 4.53125 59.472656 C 4.453125 59.472656 4.375 59.472656 4.296875 59.472656 L 2.117188 59.472656 L 1.625 60.484375 C 2.25 60.585938 2.691406 60.691406 2.976562 60.769531 C 3.441406 60.925781 3.855469 61.160156 4.167969 61.46875 C 4.425781 61.730469 4.636719 62.039062 4.789062 62.378906 C 4.921875 62.714844 5 63.078125 5 63.441406 C 5 64.273438 4.6875 64.972656 4.089844 65.515625 C 3.492188 66.085938 2.765625 66.371094 1.832031 66.371094 C 1.46875 66.371094 1.183594 66.320312 0.953125 66.269531 C 0.5625 66.140625 0.378906 65.933594 0.378906 65.621094 C 0.378906 65.515625 0.433594 65.414062 0.511719 65.335938 C 0.589844 65.257812 0.71875 65.207031 0.875 65.207031 Z M 0.015625 57.550781 "/>
<path fill-rule="nonzero" fill="rgb(0%, 0%, 0%)" fill-opacity="1" stroke-width="0.08" stroke-linecap="round" stroke-linejoin="round" stroke="rgb(0%, 0%, 0%)" stroke-opacity="1" stroke-miterlimit="4" d="M 5.865178 -0.200052 L 5.865178 0.19991 L 0.0398516 0.19991 L 0.0398516 -0.200052 Z M 5.865178 -0.200052 " transform="matrix(6.641259, 0, 0, 6.641259, 108.692367, 73.352035)"/>
<path fill-rule="nonzero" fill="rgb(0%, 0%, 0%)" fill-opacity="1" d="M 50.996094 53.675781 C 52.578125 53.675781 53.796875 54.089844 54.679688 54.921875 C 55.5625 55.75 56.027344 56.683594 56.132812 57.75 L 54.496094 57.75 C 54.289062 56.945312 53.925781 56.296875 53.382812 55.828125 C 52.8125 55.363281 52.035156 55.128906 51.023438 55.128906 C 49.800781 55.128906 48.816406 55.570312 48.039062 56.425781 C 47.285156 57.28125 46.921875 58.605469 46.921875 60.394531 C 46.921875 61.847656 47.261719 63.039062 47.933594 63.949219 C 48.609375 64.855469 49.648438 65.296875 50.996094 65.296875 C 52.242188 65.296875 53.175781 64.832031 53.824219 63.871094 C 54.1875 63.378906 54.445312 62.703125 54.601562 61.875 L 56.261719 61.875 C 56.105469 63.195312 55.613281 64.285156 54.785156 65.195312 C 53.796875 66.257812 52.472656 66.777344 50.789062 66.777344 C 49.335938 66.777344 48.117188 66.359375 47.128906 65.480469 C 45.832031 64.3125 45.183594 62.523438 45.183594 60.109375 C 45.183594 58.265625 45.675781 56.761719 46.664062 55.570312 C 47.699219 54.296875 49.152344 53.675781 50.996094 53.675781 Z M 44.433594 53.078125 "/>
<path fill-rule="nonzero" fill="rgb(0%, 0%, 0%)" fill-opacity="1" d="M 50.222656 79.699219 C 51.976562 79.699219 53.09375 80.65625 53.09375 82.066406 C 53.09375 84.429688 50.089844 86.925781 47.300781 86.925781 C 45.546875 86.925781 44.433594 85.96875 44.433594 84.5625 C 44.433594 82.199219 47.433594 79.699219 50.222656 79.699219 Z M 50.222656 79.699219 "/>
<path fill-rule="nonzero" fill="rgb(0%, 0%, 0%)" fill-opacity="1" d="M 44.699219 84.550781 L 45.03125 84.550781 C 45.175781 84.550781 45.296875 84.667969 45.296875 84.816406 L 45.296875 105.03125 C 45.296875 105.175781 45.175781 105.296875 45.03125 105.296875 L 44.699219 105.296875 C 44.550781 105.296875 44.433594 105.175781 44.433594 105.03125 L 44.433594 84.816406 C 44.433594 84.667969 44.550781 84.550781 44.699219 84.550781 Z M 44.699219 84.550781 "/>
<path fill-rule="nonzero" fill="rgb(0%, 0%, 0%)" fill-opacity="1" stroke-width="0.08" stroke-linecap="round" stroke-linejoin="round" stroke="rgb(0%, 0%, 0%)" stroke-opacity="1" stroke-miterlimit="4" d="M 5.864942 -0.199923 L 5.864942 0.200039 L 0.0402036 0.200039 L 0.0402036 -0.199923 Z M 5.864942 -0.199923 " transform="matrix(6.641259, 0, 0, 6.641259, 44.432216, 105.296492)"/>
<path fill-rule="nonzero" fill="rgb(0%, 0%, 0%)" fill-opacity="1" d="M 69.402344 79.699219 C 71.152344 79.699219 72.269531 80.65625 72.269531 82.066406 C 72.269531 84.429688 69.269531 86.925781 66.480469 86.925781 C 64.726562 86.925781 63.609375 85.96875 63.609375 84.5625 C 63.609375 82.199219 66.613281 79.699219 69.402344 79.699219 Z M 69.402344 79.699219 "/>
<path fill-rule="nonzero" fill="rgb(0%, 0%, 0%)" fill-opacity="1" d="M 63.875 84.550781 L 64.207031 84.550781 C 64.355469 84.550781 64.472656 84.667969 64.472656 84.816406 L 64.472656 105.03125 C 64.472656 105.175781 64.355469 105.296875 64.207031 105.296875 L 63.875 105.296875 C 63.726562 105.296875 63.609375 105.175781 63.609375 105.03125 L 63.609375 84.816406 C 63.609375 84.667969 63.726562 84.550781 63.875 84.550781 Z M 63.875 84.550781 "/>
<path fill-rule="nonzero" fill="rgb(0%, 0%, 0%)" fill-opacity="1" d="M 88.578125 79.699219 C 90.332031 79.699219 91.445312 80.65625 91.445312 82.066406 C 91.445312 84.429688 88.445312 86.925781 85.65625 86.925781 C 83.902344 86.925781 82.785156 85.96875 82.785156 84.5625 C 82.785156 82.199219 85.789062 79.699219 88.578125 79.699219 Z M 88.578125 79.699219 "/>
<path fill-rule="nonzero" fill="rgb(0%, 0%, 0%)" fill-opacity="1" d="M 83.050781 84.550781 L 83.382812 84.550781 C 83.53125 84.550781 83.648438 84.667969 83.648438 84.816406 L 83.648438 105.03125 C 83.648438 105.175781 83.53125 105.296875 83.382812 105.296875 L 83.050781 105.296875 C 82.90625 105.296875 82.785156 105.175781 82.785156 105.03125 L 82.785156 84.816406 C 82.785156 84.667969 82.90625 84.550781 83.050781 84.550781 Z M 83.050781 84.550781 "/>
<path fill-rule="nonzero" fill="rgb(0%, 0%, 0%)" fill-opacity="1" d="M 106.683594 89.664062 C 108.4375 89.664062 109.554688 90.621094 109.554688 92.027344 C 109.554688 94.390625 106.550781 96.886719 103.761719 96.886719 C 102.007812 96.886719 100.894531 95.933594 100.894531 94.523438 C 100.894531 92.160156 103.894531 89.664062 106.683594 89.664062 Z M 106.683594 89.664062 "/>
<path fill-rule="nonzero" fill="rgb(0%, 0%, 0%)" fill-opacity="1" d="M 108.957031 73.351562 L 109.289062 73.351562 C 109.4375 73.351562 109.554688 73.472656 109.554688 73.617188 L 109.554688 91.773438 C 109.554688 91.921875 109.4375 92.039062 109.289062 92.039062 L 108.957031 92.039062 C 108.8125 92.039062 108.691406 91.921875 108.691406 91.773438 L 108.691406 73.617188 C 108.691406 73.472656 108.8125 73.351562 108.957031 73.351562 Z M 108.957031 73.351562 "/>
<path fill-rule="nonzero" fill="rgb(0%, 0%, 0%)" fill-opacity="1" d="M 125.863281 89.664062 C 127.617188 89.664062 128.730469 90.621094 128.730469 92.027344 C 128.730469 94.390625 125.730469 96.886719 122.941406 96.886719 C 121.1875 96.886719 120.070312 95.933594 120.070312 94.523438 C 120.070312 92.160156 123.074219 89.664062 125.863281 89.664062 Z M 125.863281 89.664062 "/>
<path fill-rule="nonzero" fill="rgb(0%, 0%, 0%)" fill-opacity="1" d="M 128.132812 73.351562 L 128.464844 73.351562 C 128.613281 73.351562 128.730469 73.472656 128.730469 73.617188 L 128.730469 91.773438 C 128.730469 91.921875 128.613281 92.039062 128.464844 92.039062 L 128.132812 92.039062 C 127.988281 92.039062 127.867188 91.921875 127.867188 91.773438 L 127.867188 73.617188 C 127.867188 73.472656 127.988281 73.351562 128.132812 73.351562 Z M 128.132812 73.351562 "/>
<path fill-rule="nonzero" fill="rgb(0%, 0%, 0%)" fill-opacity="1" d="M 145.039062 89.664062 C 146.792969 89.664062 147.910156 90.621094 147.910156 92.027344 C 147.910156 94.390625 144.90625 96.886719 142.117188 96.886719 C 140.363281 96.886719 139.25 95.933594 139.25 94.523438 C 139.25 92.160156 142.25 89.664062 145.039062 89.664062 Z M 145.039062 89.664062 "/>
<path fill-rule="nonzero" fill="rgb(0%, 0%, 0%)" fill-opacity="1" d="M 147.3125 73.351562 L 147.644531 73.351562 C 147.789062 73.351562 147.910156 73.472656 147.910156 73.617188 L 147.910156 91.773438 C 147.910156 91.921875 147.789062 92.039062 147.644531 92.039062 L 147.3125 92.039062 C 147.164062 92.039062 147.046875 91.921875 147.046875 91.773438 L 147.046875 73.617188 C 147.046875 73.472656 147.164062 73.351562 147.3125 73.351562 Z M 147.3125 73.351562 "/>
<path fill-rule="nonzero" fill="rgb(0%, 0%, 0%)" fill-opacity="1" d="M 173.746094 96.304688 C 175.5 96.304688 176.613281 97.261719 176.613281 98.667969 C 176.613281 101.03125 173.613281 103.53125 170.824219 103.53125 C 169.070312 103.53125 167.953125 102.574219 167.953125 101.164062 C 167.953125 98.800781 170.957031 96.304688 173.746094 96.304688 Z M 173.746094 96.304688 "/>
<path fill-rule="nonzero" fill="rgb(0%, 0%, 0%)" fill-opacity="1" d="M 176.019531 79.992188 L 176.351562 79.992188 C 176.496094 79.992188 176.617188 80.113281 176.617188 80.257812 L 176.617188 98.414062 C 176.617188 98.5625 176.496094 98.679688 176.351562 98.679688 L 176.019531 98.679688 C 175.871094 98.679688 175.753906 98.5625 175.753906 98.414062 L 175.753906 80.257812 C 175.753906 80.113281 175.871094 79.992188 176.019531 79.992188 Z M 176.019531 79.992188 "/>
<path fill-rule="nonzero" fill="rgb(0%, 0%, 0%)" fill-opacity="1" d="M 192.921875 96.304688 C 194.675781 96.304688 195.792969 97.261719 195.792969 98.667969 C 195.792969 101.03125 192.789062 103.53125 190 103.53125 C 188.246094 103.53125 187.132812 102.574219 187.132812 101.164062 C 187.132812 98.800781 190.132812 96.304688 192.921875 96.304688 Z M 192.921875 96.304688 "/>
<path fill-rule="nonzero" fill="rgb(0%, 0%, 0%)" fill-opacity="1" d="M 195.195312 79.992188 L 195.527344 79.992188 C 195.675781 79.992188 195.792969 80.113281 195.792969 80.257812 L 195.792969 98.414062 C 195.792969 98.5625 195.675781 98.679688 195.527344 98.679688 L 195.195312 98.679688 C 195.046875 98.679688 194.929688 98.5625 194.929688 98.414062 L 194.929688 80.257812 C 194.929688 80.113281 195.046875 79.992188 195.195312 79.992188 Z M 195.195312 79.992188 "/>
<path fill-rule="nonzero" fill="rgb(0%, 0%, 0%)" fill-opacity="1" d="M 212.097656 96.304688 C 213.851562 96.304688 214.96875 97.261719 214.96875 98.667969 C 214.96875 101.03125 211.964844 103.53125 209.175781 103.53125 C 207.425781 103.53125 206.308594 102.574219 206.308594 101.164062 C 206.308594 98.800781 209.308594 96.304688 212.097656 96.304688 Z M 212.097656 96.304688 "/>
<path fill-rule="nonzero" fill="rgb(0%, 0%, 0%)" fill-opacity="1" d="M 214.371094 79.992188 L 214.703125 79.992188 C 214.851562 79.992188 214.96875 80.113281 214.96875 80.257812 L 214.96875 98.414062 C 214.96875 98.5625 214.851562 98.679688 214.703125 98.679688 L 214.371094 98.679688 C 214.226562 98.679688 214.105469 98.5625 214.105469 98.414062 L 214.105469 80.257812 C 214.105469 80.113281 214.226562 79.992188 214.371094 79.992188 Z M 214.371094 79.992188 "/>
<path fill-rule="nonzero" fill="rgb(0%, 0%, 0%)" fill-opacity="1" stroke-width="0.08" stroke-linecap="round" stroke-linejoin="round" stroke="rgb(0%, 0%, 0%)" stroke-opacity="1" stroke-miterlimit="4" d="M 5.864949 -0.200147 L 5.864949 0.199814 L 0.0402108 0.199814 L 0.0402108 -0.200147 Z M 5.864949 -0.200147 " transform="matrix(6.641259, 0, 0, 6.641259, 175.752481, 79.993294)"/>
<path fill-rule="nonzero" fill="rgb(0%, 0%, 0%)" fill-opacity="1" d="M 231.890625 86.632812 L 232.222656 86.632812 C 232.367188 86.632812 232.488281 86.753906 232.488281 86.898438 L 232.488281 105.058594 C 232.488281 105.203125 232.367188 105.324219 232.222656 105.324219 L 231.890625 105.324219 C 231.742188 105.324219 231.625 105.203125 231.625 105.058594 L 231.625 86.898438 C 231.625 86.753906 231.742188 86.632812 231.890625 86.632812 Z M 231.890625 86.632812 "/>
<path fill-rule="nonzero" fill="rgb(0%, 0%, 0%)" fill-opacity="1" d="M 248.792969 102.945312 C 250.546875 102.945312 251.664062 103.902344 251.664062 105.308594 C 251.664062 107.675781 248.660156 110.171875 245.871094 110.171875 C 244.117188 110.171875 243.003906 109.214844 243.003906 107.808594 C 243.003906 105.441406 246.003906 102.945312 248.792969 102.945312 Z M 248.792969 102.945312 "/>
<path fill-rule="nonzero" fill="rgb(0%, 0%, 0%)" fill-opacity="1" d="M 251.066406 86.632812 L 251.398438 86.632812 C 251.546875 86.632812 251.664062 86.753906 251.664062 86.898438 L 251.664062 105.058594 C 251.664062 105.203125 251.546875 105.324219 251.398438 105.324219 L 251.066406 105.324219 C 250.917969 105.324219 250.800781 105.203125 250.800781 105.058594 L 250.800781 86.898438 C 250.800781 86.753906 250.917969 86.632812 251.066406 86.632812 Z M 251.066406 86.632812 "/>
<path fill-rule="nonzero" fill="rgb(0%, 0%, 0%)" fill-opacity="1" d="M 267.972656 102.945312 C 269.722656 102.945312 270.839844 103.902344 270.839844 105.308594 C 270.839844 107.675781 267.839844 110.171875 265.050781 110.171875 C 263.296875 110.171875 262.179688 109.214844 262.179688 107.808594 C 262.179688 105.441406 265.183594 102.945312 267.972656 102.945312 Z M 267.972656 102.945312 "/>
<path fill-rule="nonzero" fill="rgb(0%, 0%, 0%)" fill-opacity="1" d="M 270.242188 86.632812 L 270.574219 86.632812 C 270.722656 86.632812 270.839844 86.753906 270.839844 86.898438 L 270.839844 105.058594 C 270.839844 105.203125 270.722656 105.324219 270.574219 105.324219 L 270.242188 105.324219 C 270.097656 105.324219 269.976562 105.203125 269.976562 105.058594 L 269.976562 86.898438 C 269.976562 86.753906 270.097656 86.632812 270.242188 86.632812 Z M 270.242188 86.632812 "/>
<path fill-rule="nonzero" fill="rgb(0%, 0%, 0%)" fill-opacity="1" d="M 297.457031 53.675781 C 298.625 53.675781 299.636719 53.910156 300.492188 54.351562 C 301.734375 55 302.488281 56.140625 302.746094 57.773438 L 301.085938 57.773438 C 300.878906 56.867188 300.464844 56.191406 299.816406 55.777344 C 299.195312 55.363281 298.390625 55.152344 297.402344 55.152344 C 296.261719 55.152344 295.277344 55.59375 294.5 56.453125 C 293.695312 57.332031 293.304688 58.628906 293.304688 60.34375 C 293.304688 61.820312 293.640625 63.015625 294.289062 63.949219 C 294.9375 64.882812 296.003906 65.347656 297.457031 65.347656 C 298.597656 65.347656 299.53125 65.011719 300.257812 64.363281 C 301.011719 63.714844 301.371094 62.652344 301.398438 61.199219 L 297.480469 61.199219 L 297.480469 59.796875 L 302.957031 59.796875 L 302.957031 66.464844 L 301.867188 66.464844 L 301.476562 64.855469 C 300.90625 65.480469 300.386719 65.921875 299.945312 66.179688 C 299.21875 66.59375 298.261719 66.800781 297.117188 66.800781 C 295.640625 66.800781 294.367188 66.308594 293.304688 65.347656 C 292.164062 64.15625 291.566406 62.523438 291.566406 60.421875 C 291.566406 58.34375 292.136719 56.683594 293.277344 55.441406 C 294.34375 54.273438 295.742188 53.675781 297.457031 53.675781 Z M 290.738281 53.078125 "/>
<path fill-rule="nonzero" fill="rgb(0%, 0%, 0%)" fill-opacity="1" d="M 296.527344 89.664062 C 298.28125 89.664062 299.398438 90.621094 299.398438 92.027344 C 299.398438 94.390625 296.394531 96.886719 293.605469 96.886719 C 291.851562 96.886719 290.738281 95.933594 290.738281 94.523438 C 290.738281 92.160156 293.738281 89.664062 296.527344 89.664062 Z M 296.527344 89.664062 "/>
<path fill-rule="nonzero" fill="rgb(0%, 0%, 0%)" fill-opacity="1" d="M 298.800781 70.03125 L 299.132812 70.03125 C 299.277344 70.03125 299.398438 70.148438 299.398438 70.296875 L 299.398438 91.773438 C 299.398438 91.921875 299.277344 92.039062 299.132812 92.039062 L 298.800781 92.039062 C 298.652344 92.039062 298.535156 91.921875 298.535156 91.773438 L 298.535156 70.296875 C 298.535156 70.148438 298.652344 70.03125 298.800781 70.03125 Z M 298.800781 70.03125 "/>
<path fill-rule="nonzero" fill="rgb(0%, 0%, 0%)" fill-opacity="1" d="M 326.222656 92.984375 C 327.972656 92.984375 329.089844 93.941406 329.089844 95.347656 C 329.089844 97.710938 326.089844 100.210938 323.296875 100.210938 C 321.546875 100.210938 320.429688 99.253906 320.429688 97.84375 C 320.429688 95.480469 323.429688 92.984375 326.222656 92.984375 Z M 326.222656 92.984375 "/>
<path fill-rule="nonzero" fill="rgb(0%, 0%, 0%)" fill-opacity="1" d="M 328.492188 73.351562 L 328.824219 73.351562 C 328.972656 73.351562 329.089844 73.472656 329.089844 73.617188 L 329.089844 95.09375 C 329.089844 95.242188 328.972656 95.359375 328.824219 95.359375 L 328.492188 95.359375 C 328.347656 95.359375 328.226562 95.242188 328.226562 95.09375 L 328.226562 73.617188 C 328.226562 73.472656 328.347656 73.351562 328.492188 73.351562 Z M 328.492188 73.351562 "/>
<path fill-rule="nonzero" fill="rgb(0%, 0%, 0%)" fill-opacity="1" d="M 329.089844 73.617188 L 329.089844 80.257812 L 328.667969 80.257812 L 328.667969 73.617188 Z M 329.089844 73.617188 C 329.089844 78.851562 334.589844 82.542969 334.589844 87.777344 C 334.589844 89.664062 334.191406 91.523438 333.5 93.277344 C 333.367188 93.488281 333.15625 93.59375 332.96875 93.59375 C 332.625 93.59375 332.277344 93.300781 332.359375 92.878906 C 333.050781 91.257812 333.472656 89.53125 333.472656 87.777344 C 333.472656 85.039062 330.976562 82.25 329.089844 80.257812 Z M 329.089844 73.617188 "/>
<path fill-rule="nonzero" fill="rgb(0%, 0%, 0%)" fill-opacity="1" d="M 345.816406 96.304688 C 347.570312 96.304688 348.6875 97.261719 348.6875 98.667969 C 348.6875 101.03125 345.683594 103.53125 342.894531 103.53125 C 341.140625 103.53125 340.027344 102.574219 340.027344 101.164062 C 340.027344 98.800781 343.027344 96.304688 345.816406 96.304688 Z M 345.816406 96.304688 "/>
<path fill-rule="nonzero" fill="rgb(0%, 0%, 0%)" fill-opacity="1" d="M 348.089844 76.671875 L 348.421875 76.671875 C 348.570312 76.671875 348.6875 76.792969 348.6875 76.9375 L 348.6875 98.414062 C 348.6875 98.5625 348.570312 98.679688 348.421875 98.679688 L 348.089844 98.679688 C 347.945312 98.679688 347.824219 98.5625 347.824219 98.414062 L 347.824219 76.9375 C 347.824219 76.792969 347.945312 76.671875 348.089844 76.671875 Z M 348.089844 76.671875 "/>
<path fill-rule="nonzero" fill="rgb(0%, 0%, 0%)" fill-opacity="1" d="M 375.511719 99.625 C 377.265625 99.625 378.378906 100.582031 378.378906 101.988281 C 378.378906 104.351562 375.378906 106.851562 372.589844 106.851562 C 370.835938 106.851562 369.71875 105.894531 369.71875 104.484375 C 369.71875 102.121094 372.722656 99.625 375.511719 99.625 Z M 375.511719 99.625 "/>
<path fill-rule="nonzero" fill="rgb(0%, 0%, 0%)" fill-opacity="1" d="M 377.785156 79.992188 L 378.117188 79.992188 C 378.261719 79.992188 378.382812 80.113281 378.382812 80.257812 L 378.382812 101.734375 C 378.382812 101.882812 378.261719 102 378.117188 102 L 377.785156 102 C 377.636719 102 377.519531 101.882812 377.519531 101.734375 L 377.519531 80.257812 C 377.519531 80.113281 377.636719 79.992188 377.785156 79.992188 Z M 377.785156 79.992188 "/>
<path fill-rule="nonzero" fill="rgb(0%, 0%, 0%)" fill-opacity="1" d="M 378.382812 80.257812 L 378.382812 86.898438 L 377.957031 86.898438 L 377.957031 80.257812 Z M 378.382812 80.257812 C 378.382812 85.492188 383.878906 89.183594 383.878906 94.417969 C 383.878906 96.304688 383.480469 98.164062 382.792969 99.917969 C 382.660156 100.128906 382.445312 100.234375 382.257812 100.234375 C 381.914062 100.234375 381.570312 99.945312 381.648438 99.519531 C 382.339844 97.898438 382.765625 96.171875 382.765625 94.417969 C 382.765625 91.683594 380.265625 88.894531 378.382812 86.898438 Z M 378.382812 80.257812 "/>
<path fill-rule="nonzero" fill="rgb(0%, 0%, 0%)" fill-opacity="1" d="M 410.714844 53.675781 C 412.296875 53.675781 413.515625 54.089844 414.398438 54.921875 C 415.28125 55.75 415.75 56.683594 415.851562 57.75 L 414.21875 57.75 C 414.011719 56.945312 413.648438 56.296875 413.101562 55.828125 C 412.53125 55.363281 411.753906 55.128906 410.742188 55.128906 C 409.523438 55.128906 408.535156 55.570312 407.757812 56.425781 C 407.003906 57.28125 406.640625 58.605469 406.640625 60.394531 C 406.640625 61.847656 406.980469 63.039062 407.652344 63.949219 C 408.328125 64.855469 409.367188 65.296875 410.714844 65.296875 C 411.960938 65.296875 412.894531 64.832031 413.542969 63.871094 C 413.90625 63.378906 414.164062 62.703125 414.320312 61.875 L 415.980469 61.875 C 415.824219 63.195312 415.332031 64.285156 414.503906 65.195312 C 413.515625 66.257812 412.195312 66.777344 410.507812 66.777344 C 409.054688 66.777344 407.835938 66.359375 406.851562 65.480469 C 405.554688 64.3125 404.90625 62.523438 404.90625 60.109375 C 404.90625 58.265625 405.398438 56.761719 406.382812 55.570312 C 407.421875 54.296875 408.875 53.675781 410.714844 53.675781 Z M 404.152344 53.078125 "/>
<path fill-rule="nonzero" fill="rgb(0%, 0%, 0%)" fill-opacity="1" d="M 412.492188 104.832031 C 412.492188 104.21875 411.988281 103.742188 411.378906 103.742188 C 410.339844 103.742188 405.957031 106.664062 405.242188 107.542969 C 405.054688 107.753906 404.976562 108.019531 404.976562 108.285156 C 404.976562 108.894531 405.480469 109.375 406.089844 109.375 C 407.128906 109.375 411.484375 106.453125 412.203125 105.574219 C 412.386719 105.363281 412.492188 105.097656 412.492188 104.832031 Z M 411.113281 102.945312 C 412.203125 102.945312 413.289062 103.316406 413.289062 104.832031 C 413.289062 105.523438 412.867188 107.808594 411.324219 108.84375 C 410.660156 109.292969 409.011719 110.171875 406.355469 110.171875 C 405.269531 110.171875 404.152344 109.800781 404.152344 108.285156 C 404.152344 107.59375 404.578125 105.308594 406.117188 104.273438 C 406.78125 103.820312 408.457031 102.945312 411.113281 102.945312 Z M 411.113281 102.945312 "/>
<path fill-rule="nonzero" fill="rgb(0%, 0%, 0%)" fill-opacity="1" d="M 416.289062 103.238281 C 416.289062 102.414062 416.953125 101.75 417.773438 101.75 C 418.597656 101.75 419.261719 102.414062 419.261719 103.238281 C 419.261719 104.0625 418.597656 104.726562 417.773438 104.726562 C 416.953125 104.726562 416.289062 104.0625 416.289062 103.238281 Z M 416.289062 103.238281 "/>
<path fill-rule="nonzero" fill="rgb(0%, 0%, 0%)" fill-opacity="1" d="M 412.703125 83.3125 L 413.035156 83.3125 C 413.179688 83.3125 413.300781 83.433594 413.300781 83.578125 L 413.300781 104.574219 C 413.300781 104.71875 413.179688 104.839844 413.035156 104.839844 L 412.703125 104.839844 C 412.554688 104.839844 412.4375 104.71875 412.4375 104.574219 L 412.4375 83.578125 C 412.4375 83.433594 412.554688 83.3125 412.703125 83.3125 Z M 412.703125 83.3125 "/>
<path fill-rule="nonzero" fill="rgb(0%, 0%, 0%)" fill-opacity="1" stroke-width="0.08" stroke-linecap="round" stroke-linejoin="round" stroke="rgb(0%, 0%, 0%)" stroke-opacity="1" stroke-miterlimit="4" d="M 5.864977 -0.200243 L 5.864977 0.199719 L 0.0402388 0.199719 L 0.0402388 -0.200243 Z M 5.864977 -0.200243 " transform="matrix(6.641259, 0, 0, 6.641259, 231.623389, 86.634552)"/>
</svg>
