<?xml version="1.0" encoding="UTF-8"?>
<svg xmlns="http://www.w3.org/2000/svg" xmlns:xlink="http://www.w3.org/1999/xlink" width="459.439361" height="129.637792" viewBox="0 0 459.439361 129.637792">
<rect x="-45.943936" y="-12.963779" width="551.327233" height="155.565351" fill="rgb(100%, 100%, 100%)" fill-opacity="1"/>
<path fill-rule="nonzero" fill="rgb(0%, 0%, 0%)" fill-opacity="1" d="M 102.191406 14.761719 C 102.996094 14.734375 103.515625 14.578125 103.800781 14.320312 C 104.085938 14.0625 104.242188 13.515625 104.242188 12.660156 L 104.242188 2.386719 C 104.242188 1.503906 104.058594 0.90625 103.722656 0.648438 C 103.515625 0.46875 102.996094 0.335938 102.191406 0.257812 L 102.191406 -0.3125 L 109.664062 -0.3125 C 111.21875 -0.3125 112.464844 -0.15625 113.425781 0.15625 C 115.292969 0.832031 116.226562 1.996094 116.226562 3.710938 C 116.226562 4.980469 115.757812 5.96875 114.824219 6.691406 C 114.125 7.238281 113.371094 7.574219 112.566406 7.730469 L 117.238281 14.347656 C 117.367188 14.527344 117.496094 14.632812 117.652344 14.683594 C 117.78125 14.734375 117.964844 14.789062 118.171875 14.8125 L 118.171875 15.359375 L 113.425781 15.359375 L 108.625 8.121094 L 108.003906 8.121094 L 108.003906 12.660156 C 108.003906 13.464844 108.132812 14.007812 108.417969 14.292969 C 108.675781 14.578125 109.222656 14.734375 110.050781 14.761719 L 110.050781 15.359375 L 102.191406 15.359375 Z M 108.003906 7.367188 C 109.507812 7.34375 110.597656 7.132812 111.269531 6.71875 C 111.917969 6.304688 112.230469 5.371094 112.230469 3.917969 C 112.230469 3.007812 112.101562 2.308594 111.867188 1.789062 C 111.425781 0.90625 110.648438 0.46875 109.507812 0.46875 C 108.882812 0.46875 108.496094 0.542969 108.289062 0.699219 C 108.105469 0.855469 108.003906 1.117188 108.003906 1.453125 Z M 119.105469 10.039062 C 119.105469 8.429688 119.597656 7.082031 120.585938 5.992188 C 121.570312 4.929688 122.816406 4.382812 124.320312 4.382812 C 125.851562 4.382812 127.121094 4.929688 128.109375 6.042969 C 129.066406 7.132812 129.558594 8.484375 129.558594 10.039062 C 129.558594 11.597656 129.066406 12.917969 128.109375 14.035156 C 127.148438 15.152344 125.875 15.722656 124.320312 15.722656 C 122.816406 15.722656 121.570312 15.175781 120.585938 14.085938 C 119.597656 12.996094 119.105469 11.648438 119.105469 10.039062 Z M 122.503906 10.039062 C 122.503906 11.675781 122.582031 12.816406 122.761719 13.464844 C 123.023438 14.449219 123.542969 14.96875 124.320312 14.96875 C 125.074219 14.96875 125.566406 14.578125 125.796875 13.800781 C 126.03125 13.023438 126.160156 11.777344 126.160156 10.039062 C 126.160156 8.300781 126.03125 7.054688 125.773438 6.277344 C 125.539062 5.5 125.046875 5.136719 124.347656 5.136719 C 123.566406 5.136719 123.023438 5.628906 122.761719 6.640625 C 122.582031 7.316406 122.503906 8.457031 122.503906 10.039062 Z M 135.710938 4.667969 L 135.710938 5.242188 C 135.449219 5.265625 135.242188 5.316406 135.058594 5.394531 C 134.90625 5.5 134.828125 5.679688 134.828125 5.941406 C 134.828125 6.019531 134.828125 6.121094 134.851562 6.199219 C 134.878906 6.277344 134.929688 6.40625 134.984375 6.589844 L 136.722656 11.128906 L 136.824219 11.128906 L 138.328125 7.316406 C 138.328125 7.265625 138.277344 7.03125 138.148438 6.617188 C 138.042969 6.226562 137.941406 5.941406 137.863281 5.785156 C 137.734375 5.578125 137.628906 5.421875 137.5 5.371094 C 137.394531 5.316406 137.160156 5.292969 136.824219 5.242188 L 136.824219 4.667969 L 142.246094 4.667969 L 142.246094 5.242188 C 141.933594 5.265625 141.648438 5.292969 141.46875 5.371094 C 141.261719 5.449219 141.15625 5.578125 141.15625 5.757812 C 141.15625 5.863281 141.183594 6.019531 141.207031 6.148438 C 141.234375 6.304688 141.285156 6.511719 141.363281 6.746094 L 142.53125 10.894531 L 142.660156 10.894531 L 144.320312 6.484375 C 144.347656 6.40625 144.375 6.328125 144.398438 6.253906 C 144.398438 6.199219 144.398438 6.121094 144.398438 6.070312 C 144.398438 5.734375 144.320312 5.527344 144.113281 5.421875 C 143.933594 5.34375 143.648438 5.265625 143.285156 5.242188 L 143.285156 4.667969 L 146.421875 4.667969 L 146.421875 5.242188 C 146.136719 5.292969 145.929688 5.394531 145.773438 5.527344 C 145.59375 5.679688 145.4375 5.96875 145.28125 6.40625 L 141.675781 15.695312 L 141.132812 15.695312 L 138.796875 8.664062 L 138.691406 8.664062 L 135.863281 15.695312 L 135.292969 15.695312 L 131.871094 7.003906 C 131.585938 6.277344 131.375 5.835938 131.246094 5.628906 C 131.089844 5.421875 130.882812 5.292969 130.546875 5.242188 L 130.546875 4.667969 Z M 147.667969 19.042969 C 148.367188 18.550781 148.914062 18.132812 149.25 17.769531 C 149.875 17.148438 150.210938 16.550781 150.210938 15.980469 C 150.210938 15.824219 150.160156 15.695312 150.082031 15.617188 C 150.003906 15.515625 149.898438 15.460938 149.742188 15.460938 C 149.667969 15.460938 149.5625 15.488281 149.457031 15.488281 C 149.355469 15.515625 149.25 15.539062 149.226562 15.539062 C 148.757812 15.539062 148.367188 15.359375 148.03125 15.046875 C 147.695312 14.710938 147.511719 14.269531 147.511719 13.722656 C 147.511719 13.152344 147.695312 12.6875 148.03125 12.324219 C 148.394531 11.960938 148.863281 11.777344 149.433594 11.777344 C 150.105469 11.777344 150.679688 12.011719 151.117188 12.503906 C 151.558594 12.996094 151.792969 13.644531 151.792969 14.449219 C 151.792969 15.695312 151.300781 16.835938 150.289062 17.847656 C 149.742188 18.394531 148.964844 18.964844 147.953125 19.5625 Z M 157.628906 14.761719 C 158.433594 14.734375 158.953125 14.578125 159.238281 14.320312 C 159.523438 14.0625 159.679688 13.515625 159.679688 12.660156 L 159.679688 2.386719 C 159.679688 1.503906 159.5 0.90625 159.160156 0.648438 C 158.953125 0.46875 158.433594 0.335938 157.628906 0.257812 L 157.628906 -0.3125 L 165.101562 -0.3125 C 166.660156 -0.3125 167.902344 -0.15625 168.863281 0.15625 C 170.730469 0.832031 171.664062 1.996094 171.664062 3.710938 C 171.664062 4.980469 171.199219 5.96875 170.265625 6.691406 C 169.566406 7.238281 168.8125 7.574219 168.007812 7.730469 L 172.675781 14.347656 C 172.808594 14.527344 172.9375 14.632812 173.09375 14.683594 C 173.222656 14.734375 173.402344 14.789062 173.613281 14.8125 L 173.613281 15.359375 L 168.863281 15.359375 L 164.066406 8.121094 L 163.441406 8.121094 L 163.441406 12.660156 C 163.441406 13.464844 163.570312 14.007812 163.855469 14.292969 C 164.117188 14.578125 164.660156 14.734375 165.492188 14.761719 L 165.492188 15.359375 L 157.628906 15.359375 Z M 163.441406 7.367188 C 164.945312 7.34375 166.035156 7.132812 166.710938 6.71875 C 167.359375 6.304688 167.671875 5.371094 167.671875 3.917969 C 167.671875 3.007812 167.539062 2.308594 167.308594 1.789062 C 166.867188 0.90625 166.089844 0.46875 164.945312 0.46875 C 164.324219 0.46875 163.933594 0.542969 163.726562 0.699219 C 163.546875 0.855469 163.441406 1.117188 163.441406 1.453125 Z M 174.519531 10.039062 C 174.519531 8.429688 175.011719 7.082031 176 5.992188 C 176.984375 4.929688 178.230469 4.382812 179.734375 4.382812 C 181.265625 4.382812 182.535156 4.929688 183.523438 6.042969 C 184.480469 7.132812 184.972656 8.484375 184.972656 10.039062 C 184.972656 11.597656 184.480469 12.917969 183.523438 14.035156 C 182.5625 15.152344 181.289062 15.722656 179.734375 15.722656 C 178.230469 15.722656 176.984375 15.175781 176 14.085938 C 175.011719 12.996094 174.519531 11.648438 174.519531 10.039062 Z M 177.917969 10.039062 C 177.917969 11.675781 177.996094 12.816406 178.175781 13.464844 C 178.4375 14.449219 178.957031 14.96875 179.734375 14.96875 C 180.488281 14.96875 180.980469 14.578125 181.210938 13.800781 C 181.445312 13.023438 181.574219 11.777344 181.574219 10.039062 C 181.574219 8.300781 181.445312 7.054688 181.1875 6.277344 C 180.953125 5.5 180.460938 5.136719 179.761719 5.136719 C 178.980469 5.136719 178.4375 5.628906 178.175781 6.640625 C 177.996094 7.316406 177.917969 8.457031 177.917969 10.039062 Z M 191.148438 4.667969 L 191.148438 5.242188 C 190.890625 5.265625 190.683594 5.316406 190.5 5.394531 C 190.34375 5.5 190.265625 5.679688 190.265625 5.941406 C 190.265625 6.019531 190.265625 6.121094 190.292969 6.199219 C 190.320312 6.277344 190.371094 6.40625 190.421875 6.589844 L 192.160156 11.128906 L 192.265625 11.128906 L 193.769531 7.316406 C 193.769531 7.265625 193.71875 7.03125 193.585938 6.617188 C 193.484375 6.226562 193.378906 5.941406 193.300781 5.785156 C 193.171875 5.578125 193.070312 5.421875 192.9375 5.371094 C 192.835938 5.316406 192.601562 5.292969 192.265625 5.242188 L 192.265625 4.667969 L 197.6875 4.667969 L 197.6875 5.242188 C 197.375 5.265625 197.089844 5.292969 196.910156 5.371094 C 196.699219 5.449219 196.597656 5.578125 196.597656 5.757812 C 196.597656 5.863281 196.621094 6.019531 196.648438 6.148438 C 196.675781 6.304688 196.726562 6.511719 196.804688 6.746094 L 197.972656 10.894531 L 198.101562 10.894531 L 199.761719 6.484375 C 199.789062 6.40625 199.8125 6.328125 199.839844 6.253906 C 199.839844 6.199219 199.839844 6.121094 199.839844 6.070312 C 199.839844 5.734375 199.761719 5.527344 199.554688 5.421875 C 199.371094 5.34375 199.085938 5.265625 198.722656 5.242188 L 198.722656 4.667969 L 201.863281 4.667969 L 201.863281 5.242188 C 201.578125 5.292969 201.371094 5.394531 201.214844 5.527344 C 201.035156 5.679688 200.878906 5.96875 200.722656 6.40625 L 197.117188 15.695312 L 196.570312 15.695312 L 194.234375 8.664062 L 194.132812 8.664062 L 191.304688 15.695312 L 190.734375 15.695312 L 187.308594 7.003906 C 187.023438 6.277344 186.816406 5.835938 186.6875 5.628906 C 186.53125 5.421875 186.324219 5.292969 185.988281 5.242188 L 185.988281 4.667969 Z M 203.082031 19.042969 C 203.78125 18.550781 204.328125 18.132812 204.664062 17.769531 C 205.289062 17.148438 205.625 16.550781 205.625 15.980469 C 205.625 15.824219 205.574219 15.695312 205.496094 15.617188 C 205.417969 15.515625 205.3125 15.460938 205.15625 15.460938 C 205.082031 15.460938 204.976562 15.488281 204.871094 15.488281 C 204.769531 15.515625 204.664062 15.539062 204.640625 15.539062 C 204.171875 15.539062 203.78125 15.359375 203.445312 15.046875 C 203.109375 14.710938 202.925781 14.269531 202.925781 13.722656 C 202.925781 13.152344 203.109375 12.6875 203.445312 12.324219 C 203.808594 11.960938 204.277344 11.777344 204.847656 11.777344 C 205.519531 11.777344 206.09375 12.011719 206.53125 12.503906 C 206.972656 12.996094 207.207031 13.644531 207.207031 14.449219 C 207.207031 15.695312 206.714844 16.835938 205.703125 17.847656 C 205.15625 18.394531 204.378906 18.964844 203.367188 19.5625 Z M 213.070312 14.761719 C 213.875 14.734375 214.394531 14.578125 214.679688 14.320312 C 214.964844 14.0625 215.121094 13.515625 215.121094 12.660156 L 215.121094 2.386719 C 215.121094 1.503906 214.9375 0.90625 214.601562 0.648438 C 214.394531 0.46875 213.875 0.335938 213.070312 0.257812 L 213.070312 -0.3125 L 220.542969 -0.3125 C 222.097656 -0.3125 223.34375 -0.15625 224.304688 0.15625 C 226.171875 0.832031 227.105469 1.996094 227.105469 3.710938 C 227.105469 4.980469 226.640625 5.96875 225.703125 6.691406 C 225.003906 7.238281 224.253906 7.574219 223.449219 7.730469 L 228.117188 14.347656 C 228.246094 14.527344 228.378906 14.632812 228.53125 14.683594 C 228.664062 14.734375 228.84375 14.789062 229.050781 14.8125 L 229.050781 15.359375 L 224.304688 15.359375 L 219.503906 8.121094 L 218.882812 8.121094 L 218.882812 12.660156 C 218.882812 13.464844 219.011719 14.007812 219.296875 14.292969 C 219.554688 14.578125 220.101562 14.734375 220.929688 14.761719 L 220.929688 15.359375 L 213.070312 15.359375 Z M 218.882812 7.367188 C 220.386719 7.34375 221.476562 7.132812 222.152344 6.71875 C 222.800781 6.304688 223.109375 5.371094 223.109375 3.917969 C 223.109375 3.007812 222.980469 2.308594 222.746094 1.789062 C 222.304688 0.90625 221.527344 0.46875 220.386719 0.46875 C 219.765625 0.46875 219.375 0.542969 219.167969 0.699219 C 218.984375 0.855469 218.882812 1.117188 218.882812 1.453125 Z M 229.960938 10.039062 C 229.960938 8.429688 230.453125 7.082031 231.4375 5.992188 C 232.425781 4.929688 233.667969 4.382812 235.175781 4.382812 C 236.703125 4.382812 237.976562 4.929688 238.960938 6.042969 C 239.921875 7.132812 240.414062 8.484375 240.414062 10.039062 C 240.414062 11.597656 239.921875 12.917969 238.960938 14.035156 C 238 15.152344 236.730469 15.722656 235.175781 15.722656 C 233.667969 15.722656 232.425781 15.175781 231.4375 14.085938 C 230.453125 12.996094 229.960938 11.648438 229.960938 10.039062 Z M 233.359375 10.039062 C 233.359375 11.675781 233.4375 12.816406 233.617188 13.464844 C 233.875 14.449219 234.394531 14.96875 235.175781 14.96875 C 235.925781 14.96875 236.417969 14.578125 236.652344 13.800781 C 236.886719 13.023438 237.015625 11.777344 237.015625 10.039062 C 237.015625 8.300781 236.886719 7.054688 236.625 6.277344 C 236.394531 5.5 235.902344 5.136719 235.199219 5.136719 C 234.421875 5.136719 233.875 5.628906 233.617188 6.640625 C 233.4375 7.316406 233.359375 8.457031 233.359375 10.039062 Z M 246.5625 4.667969 L 246.5625 5.242188 C 246.304688 5.265625 246.097656 5.316406 245.914062 5.394531 C 245.757812 5.5 245.679688 5.679688 245.679688 5.941406 C 245.679688 6.019531 245.679688 6.121094 245.707031 6.199219 C 245.734375 6.277344 245.785156 6.40625 245.835938 6.589844 L 247.574219 11.128906 L 247.679688 11.128906 L 249.183594 7.316406 C 249.183594 7.265625 249.132812 7.03125 249 6.617188 C 248.898438 6.226562 248.792969 5.941406 248.714844 5.785156 C 248.585938 5.578125 248.484375 5.421875 248.351562 5.371094 C 248.25 5.316406 248.015625 5.292969 247.679688 5.242188 L 247.679688 4.667969 L 253.101562 4.667969 L 253.101562 5.242188 C 252.789062 5.265625 252.503906 5.292969 252.324219 5.371094 C 252.113281 5.449219 252.011719 5.578125 252.011719 5.757812 C 252.011719 5.863281 252.035156 6.019531 252.0625 6.148438 C 252.089844 6.304688 252.140625 6.511719 252.21875 6.746094 L 253.386719 10.894531 L 253.515625 10.894531 L 255.175781 6.484375 C 255.203125 6.40625 255.226562 6.328125 255.253906 6.253906 C 255.253906 6.199219 255.253906 6.121094 255.253906 6.070312 C 255.253906 5.734375 255.175781 5.527344 254.96875 5.421875 C 254.785156 5.34375 254.5 5.265625 254.136719 5.242188 L 254.136719 4.667969 L 257.277344 4.667969 L 257.277344 5.242188 C 256.992188 5.292969 256.785156 5.394531 256.628906 5.527344 C 256.445312 5.679688 256.292969 5.96875 256.136719 6.40625 L 252.53125 15.695312 L 251.984375 15.695312 L 249.648438 8.664062 L 249.546875 8.664062 L 246.71875 15.695312 L 246.148438 15.695312 L 242.722656 7.003906 C 242.4375 6.277344 242.230469 5.835938 242.101562 5.628906 C 241.945312 5.421875 241.738281 5.292969 241.398438 5.242188 L 241.398438 4.667969 Z M 270.84375 -0.3125 L 270.84375 0.257812 C 270.042969 0.3125 269.546875 0.363281 269.316406 0.441406 C 269.082031 0.519531 268.976562 0.675781 268.976562 0.933594 C 268.976562 1.039062 269.003906 1.140625 269.03125 1.269531 C 269.082031 1.402344 269.160156 1.609375 269.316406 1.945312 L 272.21875 7.523438 L 272.402344 7.523438 L 274.917969 3.449219 C 275.074219 3.191406 275.230469 2.878906 275.410156 2.515625 C 275.671875 1.972656 275.800781 1.554688 275.800781 1.296875 C 275.800781 0.882812 275.644531 0.621094 275.308594 0.492188 C 275.101562 0.390625 274.605469 0.3125 273.855469 0.257812 L 273.855469 -0.3125 L 278.964844 -0.3125 L 278.964844 0.257812 C 278.601562 0.335938 278.292969 0.414062 278.082031 0.519531 C 277.796875 0.648438 277.566406 0.882812 277.382812 1.167969 L 272.945312 8.378906 L 272.945312 12.660156 C 272.945312 13.542969 273.101562 14.113281 273.386719 14.347656 C 273.699219 14.605469 274.269531 14.734375 275.101562 14.761719 L 275.101562 15.359375 L 267.03125 15.359375 L 267.03125 14.761719 C 267.914062 14.734375 268.484375 14.605469 268.769531 14.320312 C 269.054688 14.0625 269.183594 13.492188 269.183594 12.660156 L 269.183594 9.234375 L 264.957031 1.53125 C 264.671875 1.039062 264.332031 0.675781 263.917969 0.46875 C 263.660156 0.335938 263.375 0.285156 263.089844 0.257812 L 263.089844 -0.3125 Z M 277.460938 10.039062 C 277.460938 8.429688 277.953125 7.082031 278.941406 5.992188 C 279.925781 4.929688 281.171875 4.382812 282.675781 4.382812 C 284.207031 4.382812 285.476562 4.929688 286.464844 6.042969 C 287.421875 7.132812 287.914062 8.484375 287.914062 10.039062 C 287.914062 11.597656 287.421875 12.917969 286.464844 14.035156 C 285.503906 15.152344 284.230469 15.722656 282.675781 15.722656 C 281.171875 15.722656 279.925781 15.175781 278.941406 14.085938 C 277.953125 12.996094 277.460938 11.648438 277.460938 10.039062 Z M 280.859375 10.039062 C 280.859375 11.675781 280.9375 12.816406 281.117188 13.464844 C 281.378906 14.449219 281.898438 14.96875 282.675781 14.96875 C 283.429688 14.96875 283.921875 14.578125 284.152344 13.800781 C 284.386719 13.023438 284.515625 11.777344 284.515625 10.039062 C 284.515625 8.300781 284.386719 7.054688 284.128906 6.277344 C 283.894531 5.5 283.402344 5.136719 282.703125 5.136719 C 281.921875 5.136719 281.378906 5.628906 281.117188 6.640625 C 280.9375 7.316406 280.859375 8.457031 280.859375 10.039062 Z M 293.285156 4.667969 L 293.285156 12.554688 C 293.285156 13.023438 293.339844 13.359375 293.46875 13.566406 C 293.648438 13.957031 294.039062 14.164062 294.609375 14.164062 C 295 14.164062 295.363281 14.035156 295.699219 13.800781 C 295.90625 13.671875 296.164062 13.464844 296.476562 13.152344 L 296.476562 6.589844 C 296.476562 6.097656 296.375 5.757812 296.191406 5.578125 C 296.011719 5.371094 295.621094 5.265625 295.023438 5.242188 L 295.023438 4.667969 L 299.640625 4.667969 L 299.640625 13.023438 C 299.640625 13.515625 299.746094 13.851562 299.925781 14.035156 C 300.109375 14.214844 300.445312 14.320312 300.992188 14.371094 L 300.992188 14.917969 C 299.5625 15.046875 298.65625 15.152344 298.265625 15.203125 C 297.902344 15.28125 297.308594 15.4375 296.476562 15.695312 L 296.476562 14.164062 C 295.933594 14.632812 295.464844 14.96875 295.101562 15.175781 C 294.480469 15.515625 293.804688 15.695312 293.128906 15.695312 C 292.378906 15.695312 291.675781 15.4375 291.027344 14.96875 C 290.378906 14.503906 290.070312 13.644531 290.070312 12.425781 L 290.070312 6.589844 C 290.070312 6.097656 289.992188 5.757812 289.835938 5.605469 C 289.679688 5.472656 289.367188 5.34375 288.902344 5.242188 L 288.902344 4.667969 Z M 301.847656 14.8125 C 302.289062 14.761719 302.601562 14.632812 302.78125 14.476562 C 302.960938 14.320312 303.039062 14.007812 303.066406 13.566406 L 303.09375 12.894531 L 303.09375 6.589844 C 303.09375 6.097656 303.015625 5.757812 302.832031 5.605469 C 302.675781 5.421875 302.339844 5.292969 301.847656 5.242188 L 301.847656 4.667969 L 306.257812 4.667969 L 306.257812 6.511719 C 306.75 5.863281 307.242188 5.34375 307.710938 4.980469 C 308.203125 4.59375 308.773438 4.410156 309.398438 4.410156 C 309.863281 4.410156 310.304688 4.566406 310.695312 4.851562 C 311.058594 5.164062 311.265625 5.605469 311.265625 6.199219 C 311.265625 6.667969 311.109375 7.03125 310.847656 7.316406 C 310.589844 7.628906 310.226562 7.757812 309.8125 7.757812 C 309.320312 7.757812 308.878906 7.550781 308.539062 7.082031 C 308.175781 6.617188 307.917969 6.382812 307.789062 6.382812 C 307.476562 6.382812 307.164062 6.589844 306.828125 6.953125 C 306.515625 7.34375 306.363281 7.886719 306.363281 8.585938 L 306.363281 12.972656 C 306.363281 13.75 306.492188 14.242188 306.699219 14.425781 C 306.933594 14.605469 307.375 14.734375 308.046875 14.8125 L 308.046875 15.359375 L 301.847656 15.359375 Z M 317.492188 14.761719 C 318.113281 14.734375 318.582031 14.65625 318.839844 14.527344 C 319.308594 14.269531 319.539062 13.828125 319.539062 13.128906 L 319.539062 1.917969 C 319.539062 1.246094 319.332031 0.777344 318.890625 0.542969 C 318.632812 0.390625 318.164062 0.3125 317.492188 0.257812 L 317.492188 -0.3125 L 324.675781 -0.3125 C 326.050781 -0.3125 327.195312 -0.15625 328.128906 0.15625 C 329.839844 0.753906 330.695312 1.84375 330.695312 3.425781 C 330.695312 4.382812 330.359375 5.136719 329.65625 5.707031 C 328.957031 6.277344 328.207031 6.617188 327.375 6.769531 L 327.375 6.980469 C 328.230469 7.160156 328.984375 7.417969 329.632812 7.835938 C 330.851562 8.585938 331.472656 9.675781 331.472656 11.050781 C 331.472656 12.324219 330.878906 13.359375 329.710938 14.164062 C 328.515625 14.96875 326.933594 15.359375 324.960938 15.359375 L 317.492188 15.359375 Z M 323.25 6.71875 C 324.675781 6.71875 325.636719 6.484375 326.128906 6.019531 C 326.621094 5.550781 326.882812 4.722656 326.882812 3.527344 C 326.882812 2.644531 326.699219 1.894531 326.390625 1.296875 C 326.078125 0.699219 325.457031 0.390625 324.546875 0.390625 C 324.054688 0.390625 323.71875 0.46875 323.535156 0.621094 C 323.355469 0.777344 323.25 1.089844 323.25 1.503906 Z M 323.25 13.203125 C 323.25 13.621094 323.300781 13.929688 323.433594 14.113281 C 323.613281 14.449219 323.976562 14.605469 324.519531 14.605469 C 325.609375 14.605469 326.390625 14.320312 326.832031 13.722656 C 327.269531 13.128906 327.480469 12.269531 327.480469 11.15625 C 327.480469 9.519531 326.984375 8.429688 326.027344 7.886719 C 325.429688 7.550781 324.496094 7.394531 323.25 7.417969 Z M 333.132812 10.039062 C 333.132812 8.429688 333.628906 7.082031 334.613281 5.992188 C 335.597656 4.929688 336.84375 4.382812 338.347656 4.382812 C 339.878906 4.382812 341.152344 4.929688 342.136719 6.042969 C 343.097656 7.132812 343.589844 8.484375 343.589844 10.039062 C 343.589844 11.597656 343.097656 12.917969 342.136719 14.035156 C 341.175781 15.152344 339.90625 15.722656 338.347656 15.722656 C 336.84375 15.722656 335.597656 15.175781 334.613281 14.085938 C 333.628906 12.996094 333.132812 11.648438 333.132812 10.039062 Z M 336.53125 10.039062 C 336.53125 11.675781 336.609375 12.816406 336.792969 13.464844 C 337.050781 14.449219 337.570312 14.96875 338.347656 14.96875 C 339.101562 14.96875 339.59375 14.578125 339.828125 13.800781 C 340.0625 13.023438 340.191406 11.777344 340.191406 10.039062 C 340.191406 8.300781 340.0625 7.054688 339.800781 6.277344 C 339.566406 5.5 339.074219 5.136719 338.375 5.136719 C 337.597656 5.136719 337.050781 5.628906 336.792969 6.640625 C 336.609375 7.316406 336.53125 8.457031 336.53125 10.039062 Z M 349.296875 14.035156 C 349.6875 14.035156 350.023438 13.929688 350.359375 13.699219 C 350.542969 13.566406 350.75 13.335938 351.007812 13.050781 L 351.007812 9.675781 C 350.386719 9.832031 349.839844 10.066406 349.375 10.378906 C 348.570312 10.921875 348.179688 11.648438 348.179688 12.503906 C 348.179688 12.996094 348.285156 13.386719 348.519531 13.644531 C 348.753906 13.90625 349.011719 14.035156 349.296875 14.035156 Z M 344.808594 13.203125 C 344.808594 12.167969 345.300781 11.335938 346.3125 10.714844 C 347.324219 10.089844 348.882812 9.496094 351.035156 8.871094 L 351.035156 7.1875 C 351.035156 6.484375 350.878906 5.992188 350.59375 5.65625 C 350.308594 5.316406 349.789062 5.164062 349.039062 5.164062 C 348.621094 5.164062 348.285156 5.242188 348.027344 5.394531 C 347.765625 5.550781 347.609375 5.734375 347.609375 5.96875 C 347.609375 6.070312 347.636719 6.148438 347.664062 6.199219 C 347.6875 6.253906 347.742188 6.328125 347.792969 6.40625 L 347.949219 6.5625 C 348.050781 6.691406 348.128906 6.824219 348.179688 6.980469 C 348.257812 7.132812 348.285156 7.289062 348.285156 7.472656 C 348.285156 7.914062 348.15625 8.25 347.84375 8.484375 C 347.558594 8.71875 347.222656 8.847656 346.832031 8.847656 C 346.390625 8.847656 346.003906 8.71875 345.691406 8.457031 C 345.378906 8.199219 345.222656 7.808594 345.222656 7.316406 C 345.222656 6.40625 345.640625 5.707031 346.496094 5.1875 C 347.324219 4.667969 348.363281 4.410156 349.582031 4.410156 C 350.90625 4.410156 351.996094 4.667969 352.878906 5.164062 C 353.757812 5.679688 354.199219 6.617188 354.199219 7.992188 L 354.199219 13.621094 C 354.199219 13.777344 354.226562 13.929688 354.328125 14.035156 C 354.40625 14.164062 354.511719 14.214844 354.613281 14.214844 C 354.691406 14.214844 354.769531 14.191406 354.847656 14.164062 C 354.925781 14.140625 355.03125 14.035156 355.1875 13.878906 L 355.550781 14.371094 C 355.082031 14.890625 354.589844 15.28125 354.042969 15.488281 C 353.679688 15.617188 353.316406 15.695312 352.929688 15.695312 C 352.253906 15.695312 351.734375 15.488281 351.425781 15.097656 C 351.242188 14.867188 351.113281 14.527344 351.035156 14.085938 C 350.386719 14.734375 349.660156 15.175781 348.855469 15.4375 C 348.363281 15.589844 347.871094 15.695312 347.402344 15.695312 C 346.78125 15.695312 346.183594 15.488281 345.640625 15.074219 C 345.066406 14.683594 344.808594 14.035156 344.808594 13.203125 Z M 356.171875 5.707031 L 356.171875 5.058594 C 356.378906 4.851562 356.640625 4.644531 356.949219 4.382812 C 357.339844 4.019531 357.726562 3.632812 358.066406 3.242188 C 358.765625 2.464844 359.414062 1.632812 359.984375 0.753906 L 360.582031 0.753906 L 360.582031 4.667969 L 362.789062 4.667969 L 362.789062 5.707031 L 360.582031 5.707031 L 360.582031 12.6875 C 360.582031 12.996094 360.632812 13.28125 360.738281 13.492188 C 360.867188 13.828125 361.125 14.007812 361.464844 14.007812 C 361.777344 14.007812 362.035156 13.878906 362.242188 13.671875 C 362.449219 13.464844 362.632812 13.152344 362.839844 12.789062 L 363.410156 13.050781 C 363.125 13.699219 362.8125 14.214844 362.425781 14.605469 C 361.75 15.304688 360.945312 15.667969 359.984375 15.667969 C 359.441406 15.667969 358.972656 15.566406 358.558594 15.359375 C 357.78125 14.96875 357.390625 14.242188 357.390625 13.203125 L 357.390625 5.707031 Z M 101.828125 -2.050781 "/>
<path fill-rule="nonzero" fill="rgb(0%, 0%, 0%)" fill-opacity="1" d="M 149.109375 36.167969 L 150.371094 36.167969 L 150.371094 62.734375 L 149.109375 62.734375 Z M 149.109375 36.167969 "/>
<path fill-rule="nonzero" fill="rgb(0%, 0%, 0%)" fill-opacity="1" d="M 156.824219 68.710938 L 168.488281 68.710938 C 168.855469 68.710938 169.152344 69.007812 169.152344 69.375 C 169.152344 69.742188 168.855469 70.039062 168.488281 70.039062 L 156.824219 70.039062 C 156.457031 70.039062 156.160156 69.742188 156.160156 69.375 C 156.160156 69.007812 156.457031 68.710938 156.824219 68.710938 Z M 156.824219 68.710938 "/>
<path fill-rule="nonzero" fill="rgb(0%, 0%, 0%)" fill-opacity="1" d="M 103.535156 68.710938 L 115.199219 68.710938 C 115.566406 68.710938 115.863281 69.007812 115.863281 69.375 C 115.863281 69.742188 115.566406 70.039062 115.199219 70.039062 L 103.535156 70.039062 C 103.167969 70.039062 102.871094 69.742188 102.871094 69.375 C 102.871094 69.007812 103.167969 68.710938 103.535156 68.710938 Z M 103.535156 68.710938 "/>
<path fill-rule="nonzero" fill="rgb(0%, 0%, 0%)" fill-opacity="1" d="M 60.648438 68.710938 L 72.3125 68.710938 C 72.679688 68.710938 72.976562 69.007812 72.976562 69.375 C 72.976562 69.742188 72.679688 70.039062 72.3125 70.039062 L 60.648438 70.039062 C 60.28125 70.039062 59.984375 69.742188 59.984375 69.375 C 59.984375 69.007812 60.28125 68.710938 60.648438 68.710938 Z M 60.648438 68.710938 "/>
<path fill="none" stroke-width="0.1" stroke-linecap="round" stroke-linejoin="round" stroke="rgb(0%, 0%, 0%)" stroke-opacity="1" stroke-miterlimit="4" d="M 0.0502088 -0.0000191053 L 68.236546 -0.0000191053 " transform="matrix(6.641383, 0, 0, 6.641383, 5.908732, 62.734502)"/>
<path fill="none" stroke-width="0.1" stroke-linecap="round" stroke-linejoin="round" stroke="rgb(0%, 0%, 0%)" stroke-opacity="1" stroke-miterlimit="4" d="M 0.0502088 0.0000949862 L 68.236546 0.0000949862 " transform="matrix(6.641383, 0, 0, 6.641383, 5.908732, 56.093119)"/>
<path fill="none" stroke-width="0.1" stroke-linecap="round" stroke-linejoin="round" stroke="rgb(0%, 0%, 0%)" stroke-opacity="1" stroke-miterlimit="4" d="M 0.0502088 0.000209078 L 68.236546 0.000209078 " transform="matrix(6.641383, 0, 0, 6.641383, 5.908732, 49.451736)"/>
<path fill="none" stroke-width="0.1" stroke-linecap="round" stroke-linejoin="round" stroke="rgb(0%, 0%, 0%)" stroke-opacity="1" stroke-miterlimit="4" d="M 0.0502088 -0.000264999 L 68.236546 -0.000264999 " transform="matrix(6.641383, 0, 0, 6.641383, 5.908732, 42.810354)"/>
<path fill="none" stroke-width="0.1" stroke-linecap="round" stroke-linejoin="round" stroke="rgb(0%, 0%, 0%)" stroke-opacity="1" stroke-miterlimit="4" d="M 0.0502088 -0.000150907 L 68.236546 -0.000150907 " transform="matrix(6.641383, 0, 0, 6.641383, 5.908732, 36.168971)"/>
<path fill-rule="nonzero" fill="rgb(0%, 0%, 0%)" fill-opacity="1" d="M 458.164062 36.167969 L 459.425781 36.167969 L 459.425781 62.734375 L 458.164062 62.734375 Z M 458.164062 36.167969 "/>
<path fill-rule="nonzero" fill="rgb(0%, 0%, 0%)" fill-opacity="1" d="M 384.394531 36.167969 L 385.65625 36.167969 L 385.65625 62.734375 L 384.394531 62.734375 Z M 384.394531 36.167969 "/>
<path fill-rule="nonzero" fill="rgb(0%, 0%, 0%)" fill-opacity="1" d="M 260.25 36.167969 L 261.511719 36.167969 L 261.511719 62.734375 L 260.25 62.734375 Z M 260.25 36.167969 "/>
<path fill-rule="nonzero" fill="rgb(0%, 0%, 0%)" fill-opacity="1" d="M 68.710938 19.496094 C 70.296875 19.496094 71.515625 19.914062 72.398438 20.742188 C 73.277344 21.574219 73.746094 22.507812 73.847656 23.570312 L 72.214844 23.570312 C 72.007812 22.765625 71.644531 22.117188 71.097656 21.652344 C 70.527344 21.183594 69.75 20.949219 68.738281 20.949219 C 67.519531 20.949219 66.535156 21.390625 65.753906 22.246094 C 65.003906 23.101562 64.640625 24.425781 64.640625 26.214844 C 64.640625 27.667969 64.976562 28.863281 65.652344 29.769531 C 66.324219 30.679688 67.363281 31.121094 68.710938 31.121094 C 69.957031 31.121094 70.890625 30.652344 71.539062 29.691406 C 71.902344 29.199219 72.164062 28.523438 72.320312 27.695312 L 73.980469 27.695312 C 73.824219 29.019531 73.332031 30.109375 72.5 31.015625 C 71.515625 32.078125 70.191406 32.597656 68.503906 32.597656 C 67.050781 32.597656 65.832031 32.183594 64.847656 31.300781 C 63.550781 30.132812 62.902344 28.34375 62.902344 25.929688 C 62.902344 24.089844 63.394531 22.585938 64.378906 21.390625 C 65.417969 20.121094 66.871094 19.496094 68.710938 19.496094 Z M 62.148438 18.902344 "/>
<path fill-rule="nonzero" fill="rgb(0%, 0%, 0%)" fill-opacity="1" d="M 67.941406 65.761719 C 69.695312 65.761719 70.808594 66.71875 70.808594 68.128906 C 70.808594 70.492188 67.808594 72.988281 65.019531 72.988281 C 63.265625 72.988281 62.148438 72.03125 62.148438 70.625 C 62.148438 68.261719 65.152344 65.761719 67.941406 65.761719 Z M 67.941406 65.761719 "/>
<path fill-rule="nonzero" fill="rgb(0%, 0%, 0%)" fill-opacity="1" d="M 18.289062 72.960938 L 18.128906 72.960938 C 15.261719 72.960938 12.949219 70.625 12.949219 67.730469 C 12.949219 66.1875 14.355469 64.992188 15.925781 64.992188 C 17.359375 64.992188 18.449219 66.242188 18.449219 67.730469 C 18.449219 69.109375 17.304688 70.253906 15.925781 70.253906 C 15.632812 70.253906 15.367188 70.199219 15.101562 70.09375 C 15.792969 71.128906 16.90625 71.820312 18.207031 71.820312 L 18.316406 71.820312 Z M 23.46875 61.484375 C 25.273438 60.847656 26.46875 59.09375 26.46875 57.128906 C 26.46875 54.738281 24.71875 52.375 21.875 52.082031 C 22.378906 54.445312 23.148438 58.511719 23.46875 61.484375 Z M 13.1875 55.347656 C 13.1875 59.203125 16.933594 61.910156 20.199219 61.910156 C 20.226562 61.910156 21.449219 61.910156 22.378906 61.75 C 22.195312 60.050781 21.609375 56.359375 20.707031 52.082031 C 18.605469 52.292969 17.410156 53.703125 17.410156 55.242188 C 17.410156 56.410156 18.074219 57.660156 19.5625 58.511719 C 19.695312 58.644531 19.75 58.777344 19.75 58.910156 C 19.75 59.203125 19.484375 59.492188 19.164062 59.492188 C 18.765625 59.492188 15.816406 57.847656 15.816406 54.527344 C 15.816406 52.1875 17.359375 49.902344 20.066406 49.292969 C 19.695312 47.75 19.296875 46.183594 18.847656 44.644531 C 16.003906 47.859375 13.1875 51.097656 13.1875 55.347656 Z M 17.863281 41.402344 C 17.09375 38.851562 16.480469 36.886719 16.480469 32.210938 C 16.480469 29.15625 17.941406 26.261719 20.441406 24.453125 C 20.597656 24.320312 20.8125 24.320312 20.972656 24.453125 C 22.777344 26.578125 24.503906 30.960938 24.503906 33.964844 C 24.503906 37.761719 22.21875 40.738281 19.722656 43.632812 C 20.28125 45.441406 20.757812 47.300781 21.210938 49.132812 C 21.261719 49.132812 21.394531 49.105469 21.554688 49.105469 C 25.671875 49.105469 28.355469 52.507812 28.355469 56.039062 C 28.355469 59.042969 26.390625 61.671875 23.574219 62.574219 C 23.65625 63.503906 23.707031 64.433594 23.707031 65.363281 C 23.707031 65.871094 23.679688 66.402344 23.65625 66.90625 C 23.46875 70.066406 21.316406 72.882812 18.289062 72.960938 L 18.316406 71.820312 C 20.785156 71.765625 22.378906 69.375 22.539062 66.746094 C 22.566406 66.269531 22.59375 65.761719 22.59375 65.285156 C 22.59375 64.460938 22.566406 63.664062 22.484375 62.839844 C 22.351562 62.867188 21.316406 63.054688 20.121094 63.054688 C 14.996094 63.054688 11.273438 58.273438 11.273438 53.117188 C 11.273438 48.414062 14.753906 44.988281 17.863281 41.402344 Z M 22.59375 31.757812 C 22.59375 30.855469 22.617188 30.003906 22.0625 28.332031 C 19.429688 29.605469 17.757812 32.289062 17.757812 35.210938 C 17.757812 36.59375 18.074219 38.269531 18.714844 40.367188 C 20.839844 37.789062 22.59375 35.105469 22.59375 31.757812 Z M 22.59375 31.757812 "/>
<path fill-rule="nonzero" fill="rgb(0%, 0%, 0%)" fill-opacity="1" d="M 43.972656 42.570312 C 42.617188 42.570312 42.5625 43.714844 42.5625 45.226562 L 42.5625 46.183594 C 42.5625 47.699219 42.617188 48.839844 43.972656 48.839844 C 45.484375 48.839844 45.59375 47.484375 45.59375 45.707031 C 45.59375 43.925781 45.484375 42.570312 43.972656 42.570312 Z M 42.5625 42.386719 C 42.960938 42.121094 43.441406 41.960938 43.972656 41.960938 C 46.65625 41.960938 48.488281 43.183594 48.488281 45.707031 C 48.488281 48.230469 46.65625 49.453125 43.972656 49.453125 C 40.996094 49.453125 39.457031 46.15625 39.457031 42.808594 C 39.457031 39.410156 41.367188 36.167969 44.503906 36.167969 C 46.363281 36.167969 48.117188 37.203125 48.117188 38.90625 C 48.117188 39.863281 47.34375 40.660156 46.390625 40.660156 C 45.433594 40.660156 44.636719 39.863281 44.636719 38.90625 C 44.636719 38.269531 45.699219 38.242188 45.699219 37.601562 C 45.699219 37.070312 45.085938 36.78125 44.503906 36.78125 C 42.75 36.78125 42.511719 38.507812 42.511719 40.472656 C 42.511719 41.109375 42.5625 41.746094 42.5625 42.386719 Z M 42.5625 42.386719 "/>
<path fill-rule="nonzero" fill="rgb(0%, 0%, 0%)" fill-opacity="1" d="M 46.050781 55.109375 C 46.714844 54.3125 47.21875 53.410156 47.21875 52.375 C 47.21875 50.9375 45.757812 50.0625 44.191406 50.0625 C 42.96875 50.0625 42.25 51.019531 42.25 51.949219 C 42.25 52.507812 42.515625 53.066406 43.074219 53.382812 Z M 46.871094 55.589844 C 47.484375 55.933594 48.996094 57.023438 48.996094 58.910156 C 48.996094 60.847656 47.246094 62.734375 43.976562 62.734375 C 41.480469 62.734375 39.117188 61.300781 39.117188 59.015625 C 39.117188 57.6875 40.070312 56.703125 41.027344 55.746094 C 40.046875 55.003906 39.566406 53.996094 39.566406 53.011719 C 39.566406 51.203125 41.160156 49.453125 44.191406 49.453125 C 46.316406 49.453125 48.359375 50.488281 48.359375 52.375 C 48.359375 53.597656 47.695312 54.660156 46.871094 55.589844 Z M 41.851562 56.253906 C 41.027344 57.050781 40.285156 57.871094 40.285156 59.015625 C 40.285156 60.847656 42.039062 62.125 43.976562 62.125 C 45.410156 62.125 46.261719 61.007812 46.261719 59.917969 C 46.261719 59.28125 45.996094 58.644531 45.332031 58.273438 Z M 41.851562 56.253906 "/>
<path fill-rule="nonzero" fill="rgb(0%, 0%, 0%)" fill-opacity="1" d="M 73.800781 66.054688 C 73.800781 65.230469 74.464844 64.566406 75.289062 64.566406 C 76.109375 64.566406 76.773438 65.230469 76.773438 66.054688 C 76.773438 66.878906 76.109375 67.542969 75.289062 67.542969 C 74.464844 67.542969 73.800781 66.878906 73.800781 66.054688 Z M 73.800781 66.054688 "/>
<path fill-rule="nonzero" fill="rgb(0%, 0%, 0%)" fill-opacity="1" d="M 70.214844 46.132812 L 70.546875 46.132812 C 70.691406 46.132812 70.8125 46.25 70.8125 46.398438 L 70.8125 67.875 C 70.8125 68.019531 70.691406 68.140625 70.546875 68.140625 L 70.214844 68.140625 C 70.066406 68.140625 69.949219 68.019531 69.949219 67.875 L 69.949219 46.398438 C 69.949219 46.25 70.066406 46.132812 70.214844 46.132812 Z M 70.214844 46.132812 "/>
<path fill-rule="nonzero" fill="rgb(0%, 0%, 0%)" fill-opacity="1" d="M 110.828125 65.761719 C 112.582031 65.761719 113.695312 66.71875 113.695312 68.128906 C 113.695312 70.492188 110.695312 72.988281 107.90625 72.988281 C 106.152344 72.988281 105.035156 72.03125 105.035156 70.625 C 105.035156 68.261719 108.039062 65.761719 110.828125 65.761719 Z M 110.828125 65.761719 "/>
<path fill-rule="nonzero" fill="rgb(0%, 0%, 0%)" fill-opacity="1" d="M 116.6875 66.054688 C 116.6875 65.230469 117.351562 64.566406 118.175781 64.566406 C 119 64.566406 119.664062 65.230469 119.664062 66.054688 C 119.664062 66.878906 119 67.542969 118.175781 67.542969 C 117.351562 67.542969 116.6875 66.878906 116.6875 66.054688 Z M 116.6875 66.054688 "/>
<path fill-rule="nonzero" fill="rgb(0%, 0%, 0%)" fill-opacity="1" d="M 113.101562 46.132812 L 113.433594 46.132812 C 113.578125 46.132812 113.699219 46.25 113.699219 46.398438 L 113.699219 67.875 C 113.699219 68.019531 113.578125 68.140625 113.433594 68.140625 L 113.101562 68.140625 C 112.953125 68.140625 112.835938 68.019531 112.835938 67.875 L 112.835938 46.398438 C 112.835938 46.25 112.953125 46.132812 113.101562 46.132812 Z M 113.101562 46.132812 "/>
<path fill-rule="nonzero" fill="rgb(0%, 0%, 0%)" fill-opacity="1" d="M 164.117188 65.761719 C 165.871094 65.761719 166.984375 66.71875 166.984375 68.128906 C 166.984375 70.492188 163.984375 72.988281 161.195312 72.988281 C 159.441406 72.988281 158.324219 72.03125 158.324219 70.625 C 158.324219 68.261719 161.328125 65.761719 164.117188 65.761719 Z M 164.117188 65.761719 "/>
<path fill-rule="nonzero" fill="rgb(0%, 0%, 0%)" fill-opacity="1" d="M 166.390625 46.132812 L 166.722656 46.132812 C 166.867188 46.132812 166.988281 46.25 166.988281 46.398438 L 166.988281 67.875 C 166.988281 68.019531 166.867188 68.140625 166.722656 68.140625 L 166.390625 68.140625 C 166.242188 68.140625 166.125 68.019531 166.125 67.875 L 166.125 46.398438 C 166.125 46.25 166.242188 46.132812 166.390625 46.132812 Z M 166.390625 46.132812 "/>
<path fill-rule="nonzero" fill="rgb(0%, 0%, 0%)" fill-opacity="1" d="M 199.257812 62.441406 C 201.011719 62.441406 202.128906 63.398438 202.128906 64.804688 C 202.128906 67.171875 199.125 69.667969 196.335938 69.667969 C 194.582031 69.667969 193.46875 68.710938 193.46875 67.304688 C 193.46875 64.9375 196.46875 62.441406 199.257812 62.441406 Z M 199.257812 62.441406 "/>
<path fill-rule="nonzero" fill="rgb(0%, 0%, 0%)" fill-opacity="1" d="M 201.53125 42.808594 L 201.863281 42.808594 C 202.011719 42.808594 202.128906 42.929688 202.128906 43.074219 L 202.128906 64.554688 C 202.128906 64.699219 202.011719 64.820312 201.863281 64.820312 L 201.53125 64.820312 C 201.386719 64.820312 201.265625 64.699219 201.265625 64.554688 L 201.265625 43.074219 C 201.265625 42.929688 201.386719 42.808594 201.53125 42.808594 Z M 201.53125 42.808594 "/>
<path fill-rule="nonzero" fill="rgb(0%, 0%, 0%)" fill-opacity="1" d="M 202.128906 43.074219 L 202.128906 49.71875 L 201.703125 49.71875 L 201.703125 43.074219 Z M 202.128906 43.074219 C 202.128906 48.308594 207.628906 52.003906 207.628906 57.234375 C 207.628906 59.121094 207.230469 60.980469 206.539062 62.734375 C 206.40625 62.945312 206.195312 63.054688 206.007812 63.054688 C 205.664062 63.054688 205.316406 62.761719 205.398438 62.335938 C 206.089844 60.714844 206.511719 58.988281 206.511719 57.234375 C 206.511719 54.5 204.015625 51.710938 202.128906 49.71875 Z M 202.128906 43.074219 "/>
<path fill-rule="nonzero" fill="rgb(0%, 0%, 0%)" fill-opacity="1" d="M 221.582031 59.121094 C 223.335938 59.121094 224.449219 60.078125 224.449219 61.484375 C 224.449219 63.851562 221.449219 66.347656 218.660156 66.347656 C 216.90625 66.347656 215.789062 65.390625 215.789062 63.984375 C 215.789062 61.617188 218.792969 59.121094 221.582031 59.121094 Z M 221.582031 59.121094 "/>
<path fill-rule="nonzero" fill="rgb(0%, 0%, 0%)" fill-opacity="1" d="M 227.441406 59.414062 C 227.441406 58.589844 228.105469 57.925781 228.925781 57.925781 C 229.75 57.925781 230.414062 58.589844 230.414062 59.414062 C 230.414062 60.238281 229.75 60.902344 228.925781 60.902344 C 228.105469 60.902344 227.441406 60.238281 227.441406 59.414062 Z M 227.441406 59.414062 "/>
<path fill-rule="nonzero" fill="rgb(0%, 0%, 0%)" fill-opacity="1" d="M 223.855469 39.488281 L 224.1875 39.488281 C 224.332031 39.488281 224.453125 39.609375 224.453125 39.753906 L 224.453125 61.234375 C 224.453125 61.378906 224.332031 61.5 224.1875 61.5 L 223.855469 61.5 C 223.707031 61.5 223.589844 61.378906 223.589844 61.234375 L 223.589844 39.753906 C 223.589844 39.609375 223.707031 39.488281 223.855469 39.488281 Z M 223.855469 39.488281 "/>
<path fill-rule="nonzero" fill="rgb(0%, 0%, 0%)" fill-opacity="1" d="M 275.257812 59.121094 C 277.007812 59.121094 278.125 60.078125 278.125 61.484375 C 278.125 63.851562 275.125 66.347656 272.332031 66.347656 C 270.582031 66.347656 269.464844 65.390625 269.464844 63.984375 C 269.464844 61.617188 272.464844 59.121094 275.257812 59.121094 Z M 275.257812 59.121094 "/>
<path fill-rule="nonzero" fill="rgb(0%, 0%, 0%)" fill-opacity="1" d="M 277.53125 39.488281 L 277.863281 39.488281 C 278.007812 39.488281 278.128906 39.609375 278.128906 39.753906 L 278.128906 61.234375 C 278.128906 61.378906 278.007812 61.5 277.863281 61.5 L 277.53125 61.5 C 277.382812 61.5 277.261719 61.378906 277.261719 61.234375 L 277.261719 39.753906 C 277.261719 39.609375 277.382812 39.488281 277.53125 39.488281 Z M 277.53125 39.488281 "/>
<path fill-rule="nonzero" fill="rgb(0%, 0%, 0%)" fill-opacity="1" d="M 310.398438 62.441406 C 312.152344 62.441406 313.269531 63.398438 313.269531 64.804688 C 313.269531 67.171875 310.265625 69.667969 307.476562 69.667969 C 305.722656 69.667969 304.609375 68.710938 304.609375 67.304688 C 304.609375 64.9375 307.609375 62.441406 310.398438 62.441406 Z M 310.398438 62.441406 "/>
<path fill-rule="nonzero" fill="rgb(0%, 0%, 0%)" fill-opacity="1" d="M 312.671875 42.808594 L 313.003906 42.808594 C 313.148438 42.808594 313.269531 42.929688 313.269531 43.074219 L 313.269531 64.554688 C 313.269531 64.699219 313.148438 64.820312 313.003906 64.820312 L 312.671875 64.820312 C 312.523438 64.820312 312.40625 64.699219 312.40625 64.554688 L 312.40625 43.074219 C 312.40625 42.929688 312.523438 42.808594 312.671875 42.808594 Z M 312.671875 42.808594 "/>
<path fill-rule="nonzero" fill="rgb(0%, 0%, 0%)" fill-opacity="1" d="M 313.269531 43.074219 L 313.269531 49.71875 L 312.84375 49.71875 L 312.84375 43.074219 Z M 313.269531 43.074219 C 313.269531 48.308594 318.769531 52.003906 318.769531 57.234375 C 318.769531 59.121094 318.371094 60.980469 317.679688 62.734375 C 317.546875 62.945312 317.332031 63.054688 317.148438 63.054688 C 316.800781 63.054688 316.457031 62.761719 316.535156 62.335938 C 317.226562 60.714844 317.652344 58.988281 317.652344 57.234375 C 317.652344 54.5 315.15625 51.710938 313.269531 49.71875 Z M 313.269531 43.074219 "/>
<path fill-rule="nonzero" fill="rgb(0%, 0%, 0%)" fill-opacity="1" d="M 332.71875 59.121094 C 334.472656 59.121094 335.589844 60.078125 335.589844 61.484375 C 335.589844 63.851562 332.585938 66.347656 329.796875 66.347656 C 328.046875 66.347656 326.929688 65.390625 326.929688 63.984375 C 326.929688 61.617188 329.929688 59.121094 332.71875 59.121094 Z M 332.71875 59.121094 "/>
<path fill-rule="nonzero" fill="rgb(0%, 0%, 0%)" fill-opacity="1" d="M 334.992188 39.488281 L 335.324219 39.488281 C 335.472656 39.488281 335.589844 39.609375 335.589844 39.753906 L 335.589844 61.234375 C 335.589844 61.378906 335.472656 61.5 335.324219 61.5 L 334.992188 61.5 C 334.847656 61.5 334.726562 61.378906 334.726562 61.234375 L 334.726562 39.753906 C 334.726562 39.609375 334.847656 39.488281 334.992188 39.488281 Z M 334.992188 39.488281 "/>
<path fill-rule="nonzero" fill="rgb(0%, 0%, 0%)" fill-opacity="1" d="M 367.863281 55.800781 C 369.617188 55.800781 370.730469 56.757812 370.730469 58.164062 C 370.730469 60.53125 367.730469 63.027344 364.941406 63.027344 C 363.1875 63.027344 362.070312 62.070312 362.070312 60.664062 C 362.070312 58.296875 365.074219 55.800781 367.863281 55.800781 Z M 367.863281 55.800781 "/>
<path fill-rule="nonzero" fill="rgb(0%, 0%, 0%)" fill-opacity="1" d="M 370.136719 36.167969 L 370.46875 36.167969 C 370.613281 36.167969 370.734375 36.289062 370.734375 36.433594 L 370.734375 57.914062 C 370.734375 58.058594 370.613281 58.179688 370.46875 58.179688 L 370.136719 58.179688 C 369.988281 58.179688 369.871094 58.058594 369.871094 57.914062 L 369.871094 36.433594 C 369.871094 36.289062 369.988281 36.167969 370.136719 36.167969 Z M 370.136719 36.167969 "/>
<path fill-rule="nonzero" fill="rgb(0%, 0%, 0%)" fill-opacity="1" d="M 370.734375 36.433594 L 370.734375 43.074219 L 370.308594 43.074219 L 370.308594 36.433594 Z M 370.734375 36.433594 C 370.734375 41.667969 376.230469 45.359375 376.230469 50.59375 C 376.230469 52.480469 375.832031 54.339844 375.144531 56.09375 C 375.011719 56.304688 374.796875 56.410156 374.613281 56.410156 C 374.265625 56.410156 373.921875 56.121094 374 55.695312 C 374.691406 54.074219 375.117188 52.347656 375.117188 50.59375 C 375.117188 47.859375 372.621094 45.070312 370.734375 43.074219 Z M 370.734375 36.433594 "/>
<path fill-rule="nonzero" fill="rgb(0%, 0%, 0%)" fill-opacity="1" d="M 408.59375 54.367188 C 408.59375 53.753906 408.085938 53.277344 407.476562 53.277344 C 406.441406 53.277344 402.058594 56.199219 401.339844 57.074219 C 401.152344 57.289062 401.074219 57.554688 401.074219 57.820312 C 401.074219 58.429688 401.578125 58.910156 402.191406 58.910156 C 403.226562 58.910156 407.582031 55.988281 408.300781 55.109375 C 408.484375 54.898438 408.59375 54.632812 408.59375 54.367188 Z M 407.210938 52.480469 C 408.300781 52.480469 409.390625 52.851562 409.390625 54.367188 C 409.390625 55.058594 408.964844 57.339844 407.421875 58.378906 C 406.757812 58.828125 405.113281 59.707031 402.457031 59.707031 C 401.367188 59.707031 400.25 59.335938 400.25 57.820312 C 400.25 57.128906 400.675781 54.84375 402.214844 53.808594 C 402.878906 53.355469 404.554688 52.480469 407.210938 52.480469 Z M 407.210938 52.480469 "/>
<path fill-rule="nonzero" fill="rgb(0%, 0%, 0%)" fill-opacity="1" d="M 412.386719 52.773438 C 412.386719 51.949219 413.050781 51.285156 413.875 51.285156 C 414.699219 51.285156 415.363281 51.949219 415.363281 52.773438 C 415.363281 53.597656 414.699219 54.261719 413.875 54.261719 C 413.050781 54.261719 412.386719 53.597656 412.386719 52.773438 Z M 412.386719 52.773438 "/>
<path fill-rule="nonzero" fill="rgb(0%, 0%, 0%)" fill-opacity="1" d="M 408.800781 32.847656 L 409.132812 32.847656 C 409.277344 32.847656 409.398438 32.96875 409.398438 33.113281 L 409.398438 54.105469 C 409.398438 54.253906 409.277344 54.371094 409.132812 54.371094 L 408.800781 54.371094 C 408.652344 54.371094 408.535156 54.253906 408.535156 54.105469 L 408.535156 33.113281 C 408.535156 32.96875 408.652344 32.847656 408.800781 32.847656 Z M 408.800781 32.847656 "/>
<path fill-rule="nonzero" fill="rgb(0%, 0%, 0%)" fill-opacity="1" d="M 159.757812 92.777344 L 161.019531 92.777344 L 161.019531 119.34375 L 159.757812 119.34375 Z M 159.757812 92.777344 "/>
<path fill-rule="nonzero" fill="rgb(0%, 0%, 0%)" fill-opacity="1" d="M 402.53125 125.320312 L 414.925781 125.320312 C 415.292969 125.320312 415.589844 125.617188 415.589844 125.984375 C 415.589844 126.351562 415.292969 126.648438 414.925781 126.648438 L 402.53125 126.648438 C 402.164062 126.648438 401.867188 126.351562 401.867188 125.984375 C 401.867188 125.617188 402.164062 125.320312 402.53125 125.320312 Z M 402.53125 125.320312 "/>
<path fill-rule="nonzero" fill="rgb(0%, 0%, 0%)" fill-opacity="1" d="M 260.679688 125.320312 L 272.34375 125.320312 C 272.710938 125.320312 273.007812 125.617188 273.007812 125.984375 C 273.007812 126.351562 272.710938 126.648438 272.34375 126.648438 L 260.679688 126.648438 C 260.3125 126.648438 260.015625 126.351562 260.015625 125.984375 C 260.015625 125.617188 260.3125 125.320312 260.679688 125.320312 Z M 260.679688 125.320312 "/>
<path fill-rule="nonzero" fill="rgb(0%, 0%, 0%)" fill-opacity="1" d="M 241.5 125.320312 L 253.167969 125.320312 C 253.53125 125.320312 253.832031 125.617188 253.832031 125.984375 C 253.832031 126.351562 253.53125 126.648438 253.167969 126.648438 L 241.5 126.648438 C 241.136719 126.648438 240.835938 126.351562 240.835938 125.984375 C 240.835938 125.617188 241.136719 125.320312 241.5 125.320312 Z M 241.5 125.320312 "/>
<path fill-rule="nonzero" fill="rgb(0%, 0%, 0%)" fill-opacity="1" d="M 222.324219 125.320312 L 233.988281 125.320312 C 234.355469 125.320312 234.652344 125.617188 234.652344 125.984375 C 234.652344 126.351562 234.355469 126.648438 233.988281 126.648438 L 222.324219 126.648438 C 221.957031 126.648438 221.660156 126.351562 221.660156 125.984375 C 221.660156 125.617188 221.957031 125.320312 222.324219 125.320312 Z M 222.324219 125.320312 "/>
<path fill="none" stroke-width="0.1" stroke-linecap="round" stroke-linejoin="round" stroke="rgb(0%, 0%, 0%)" stroke-opacity="1" stroke-miterlimit="4" d="M 0.0502088 0.0000144196 L 68.236546 0.0000144196 " transform="matrix(6.641383, 0, 0, 6.641383, 5.908732, 119.343654)"/>
<path fill="none" stroke-width="0.1" stroke-linecap="round" stroke-linejoin="round" stroke="rgb(0%, 0%, 0%)" stroke-opacity="1" stroke-miterlimit="4" d="M 0.0502088 0.000128511 L 68.236546 0.000128511 " transform="matrix(6.641383, 0, 0, 6.641383, 5.908732, 112.702272)"/>
<path fill="none" stroke-width="0.1" stroke-linecap="round" stroke-linejoin="round" stroke="rgb(0%, 0%, 0%)" stroke-opacity="1" stroke-miterlimit="4" d="M 0.0502088 0.000242603 L 68.236546 0.000242603 " transform="matrix(6.641383, 0, 0, 6.641383, 5.908732, 106.060889)"/>
<path fill="none" stroke-width="0.1" stroke-linecap="round" stroke-linejoin="round" stroke="rgb(0%, 0%, 0%)" stroke-opacity="1" stroke-miterlimit="4" d="M 0.0502088 -0.000231474 L 68.236546 -0.000231474 " transform="matrix(6.641383, 0, 0, 6.641383, 5.908732, 99.419506)"/>
<path fill="none" stroke-width="0.1" stroke-linecap="round" stroke-linejoin="round" stroke="rgb(0%, 0%, 0%)" stroke-opacity="1" stroke-miterlimit="4" d="M 0.0502088 -0.000117382 L 68.236546 -0.000117382 " transform="matrix(6.641383, 0, 0, 6.641383, 5.908732, 92.778123)"/>
<path fill-rule="nonzero" fill="rgb(0%, 0%, 0%)" fill-opacity="1" d="M 455.441406 92.777344 L 459.425781 92.777344 L 459.425781 119.34375 L 455.441406 119.34375 Z M 455.441406 92.777344 "/>
<path fill-rule="nonzero" fill="rgb(0%, 0%, 0%)" fill-opacity="1" d="M 452.1875 92.777344 L 453.449219 92.777344 L 453.449219 119.34375 L 452.1875 119.34375 Z M 452.1875 92.777344 "/>
<path fill-rule="nonzero" fill="rgb(0%, 0%, 0%)" fill-opacity="1" d="M 389.320312 92.777344 L 390.582031 92.777344 L 390.582031 119.34375 L 389.320312 119.34375 Z M 389.320312 92.777344 "/>
<path fill-rule="nonzero" fill="rgb(0%, 0%, 0%)" fill-opacity="1" d="M 282.542969 92.777344 L 283.804688 92.777344 L 283.804688 119.34375 L 282.542969 119.34375 Z M 282.542969 92.777344 "/>
<path fill-rule="nonzero" fill="rgb(0%, 0%, 0%)" fill-opacity="1" d="M 229.617188 122.371094 C 231.371094 122.371094 232.484375 123.328125 232.484375 124.738281 C 232.484375 127.101562 229.484375 129.597656 226.695312 129.597656 C 224.941406 129.597656 223.824219 128.640625 223.824219 127.234375 C 223.824219 124.871094 226.828125 122.371094 229.617188 122.371094 Z M 229.617188 122.371094 "/>
<path fill-rule="nonzero" fill="rgb(0%, 0%, 0%)" fill-opacity="1" d="M 18.289062 129.570312 L 18.128906 129.570312 C 15.261719 129.570312 12.949219 127.234375 12.949219 124.339844 C 12.949219 122.796875 14.355469 121.601562 15.925781 121.601562 C 17.359375 121.601562 18.449219 122.851562 18.449219 124.339844 C 18.449219 125.71875 17.304688 126.863281 15.925781 126.863281 C 15.632812 126.863281 15.367188 126.808594 15.101562 126.703125 C 15.792969 127.738281 16.90625 128.429688 18.207031 128.429688 L 18.316406 128.429688 Z M 23.46875 118.09375 C 25.273438 117.457031 26.46875 115.703125 26.46875 113.738281 C 26.46875 111.347656 24.71875 108.984375 21.875 108.691406 C 22.378906 111.054688 23.148438 115.121094 23.46875 118.09375 Z M 13.1875 111.957031 C 13.1875 115.808594 16.933594 118.519531 20.199219 118.519531 C 20.226562 118.519531 21.449219 118.519531 22.378906 118.359375 C 22.195312 116.660156 21.609375 112.96875 20.707031 108.691406 C 18.605469 108.902344 17.410156 110.3125 17.410156 111.851562 C 17.410156 113.019531 18.074219 114.269531 19.5625 115.121094 C 19.695312 115.253906 19.75 115.386719 19.75 115.519531 C 19.75 115.808594 19.484375 116.101562 19.164062 116.101562 C 18.765625 116.101562 15.816406 114.457031 15.816406 111.136719 C 15.816406 108.796875 17.359375 106.511719 20.066406 105.902344 C 19.695312 104.359375 19.296875 102.792969 18.847656 101.253906 C 16.003906 104.46875 13.1875 107.707031 13.1875 111.957031 Z M 17.863281 98.011719 C 17.09375 95.460938 16.480469 93.496094 16.480469 88.820312 C 16.480469 85.765625 17.941406 82.871094 20.441406 81.0625 C 20.597656 80.929688 20.8125 80.929688 20.972656 81.0625 C 22.777344 83.1875 24.503906 87.570312 24.503906 90.574219 C 24.503906 94.371094 22.21875 97.347656 19.722656 100.242188 C 20.28125 102.050781 20.757812 103.910156 21.210938 105.742188 C 21.261719 105.742188 21.394531 105.714844 21.554688 105.714844 C 25.671875 105.714844 28.355469 109.117188 28.355469 112.648438 C 28.355469 115.652344 26.390625 118.28125 23.574219 119.183594 C 23.65625 120.113281 23.707031 121.042969 23.707031 121.972656 C 23.707031 122.476562 23.679688 123.007812 23.65625 123.515625 C 23.46875 126.675781 21.316406 129.492188 18.289062 129.570312 L 18.316406 128.429688 C 20.785156 128.375 22.378906 125.984375 22.539062 123.355469 C 22.566406 122.875 22.59375 122.371094 22.59375 121.894531 C 22.59375 121.070312 22.566406 120.273438 22.484375 119.449219 C 22.351562 119.476562 21.316406 119.664062 20.121094 119.664062 C 14.996094 119.664062 11.273438 114.878906 11.273438 109.726562 C 11.273438 105.023438 14.753906 101.597656 17.863281 98.011719 Z M 22.59375 88.367188 C 22.59375 87.464844 22.617188 86.613281 22.0625 84.941406 C 19.429688 86.214844 17.757812 88.898438 17.757812 91.820312 C 17.757812 93.203125 18.074219 94.875 18.714844 96.976562 C 20.839844 94.398438 22.59375 91.714844 22.59375 88.367188 Z M 22.59375 88.367188 "/>
<path fill-rule="nonzero" fill="rgb(0%, 0%, 0%)" fill-opacity="1" d="M 0.871094 84.628906 C 1.101562 84.628906 1.386719 84.761719 1.726562 84.992188 C 2.0625 85.226562 2.347656 85.355469 2.53125 85.355469 C 2.96875 85.355469 3.332031 85.175781 3.671875 84.785156 C 4.007812 84.398438 4.164062 83.929688 4.164062 83.386719 C 4.164062 82.398438 3.644531 81.699219 2.609375 81.257812 C 2.011719 81.023438 1.492188 80.894531 0.972656 80.894531 C 0.894531 80.894531 0.84375 80.894531 0.816406 80.894531 C 0.792969 80.894531 0.792969 80.867188 0.738281 80.84375 C 0.765625 80.816406 0.765625 80.792969 0.765625 80.765625 C 0.765625 80.738281 0.792969 80.714844 0.792969 80.714844 L 2.011719 77.988281 L 4.449219 77.988281 C 4.578125 77.988281 4.65625 77.964844 4.734375 77.9375 C 4.785156 77.886719 4.890625 77.808594 4.996094 77.703125 L 5.070312 77.78125 L 4.632812 78.820312 C 4.632812 78.871094 4.578125 78.871094 4.527344 78.898438 C 4.449219 78.898438 4.371094 78.898438 4.292969 78.898438 L 2.113281 78.898438 L 1.621094 79.910156 C 2.246094 80.011719 2.683594 80.117188 2.96875 80.195312 C 3.4375 80.351562 3.851562 80.582031 4.164062 80.894531 C 4.421875 81.15625 4.632812 81.464844 4.785156 81.804688 C 4.917969 82.140625 4.996094 82.503906 4.996094 82.867188 C 4.996094 83.695312 4.683594 84.398438 4.085938 84.941406 C 3.488281 85.511719 2.761719 85.796875 1.828125 85.796875 C 1.464844 85.796875 1.179688 85.746094 0.945312 85.695312 C 0.558594 85.566406 0.375 85.355469 0.375 85.046875 C 0.375 84.941406 0.429688 84.839844 0.507812 84.761719 C 0.582031 84.683594 0.714844 84.628906 0.871094 84.628906 Z M 0.0117188 76.976562 "/>
<path fill-rule="nonzero" fill="rgb(0%, 0%, 0%)" fill-opacity="1" stroke-width="0.08" stroke-linecap="round" stroke-linejoin="round" stroke="rgb(0%, 0%, 0%)" stroke-opacity="1" stroke-miterlimit="4" d="M 5.865409 -0.200095 L 5.865409 0.19986 L 0.0401914 0.19986 L 0.0401914 -0.200095 Z M 5.865409 -0.200095 " transform="matrix(6.641383, 0, 0, 6.641383, 108.690105, 92.778123)"/>
<path fill-rule="nonzero" fill="rgb(0%, 0%, 0%)" fill-opacity="1" d="M 50.992188 73.101562 C 52.574219 73.101562 53.792969 73.515625 54.675781 74.347656 C 55.558594 75.175781 56.023438 76.109375 56.128906 77.175781 L 54.496094 77.175781 C 54.285156 76.371094 53.925781 75.722656 53.378906 75.253906 C 52.808594 74.789062 52.03125 74.554688 51.019531 74.554688 C 49.800781 74.554688 48.8125 74.996094 48.035156 75.851562 C 47.28125 76.707031 46.917969 78.03125 46.917969 79.820312 C 46.917969 81.273438 47.257812 82.464844 47.929688 83.375 C 48.605469 84.28125 49.644531 84.722656 50.992188 84.722656 C 52.238281 84.722656 53.171875 84.257812 53.820312 83.296875 C 54.183594 82.804688 54.441406 82.128906 54.597656 81.300781 L 56.257812 81.300781 C 56.101562 82.621094 55.609375 83.710938 54.78125 84.621094 C 53.792969 85.683594 52.472656 86.203125 50.785156 86.203125 C 49.332031 86.203125 48.113281 85.789062 47.125 84.90625 C 45.828125 83.738281 45.179688 81.949219 45.179688 79.535156 C 45.179688 77.691406 45.675781 76.1875 46.660156 74.996094 C 47.699219 73.722656 49.148438 73.101562 50.992188 73.101562 Z M 44.429688 72.503906 "/>
<path fill-rule="nonzero" fill="rgb(0%, 0%, 0%)" fill-opacity="1" d="M 50.21875 99.128906 C 51.972656 99.128906 53.089844 100.082031 53.089844 101.492188 C 53.089844 103.855469 50.085938 106.351562 47.296875 106.351562 C 45.542969 106.351562 44.429688 105.398438 44.429688 103.988281 C 44.429688 101.625 47.429688 99.128906 50.21875 99.128906 Z M 50.21875 99.128906 "/>
<path fill-rule="nonzero" fill="rgb(0%, 0%, 0%)" fill-opacity="1" d="M 44.695312 103.976562 L 45.027344 103.976562 C 45.171875 103.976562 45.292969 104.09375 45.292969 104.242188 L 45.292969 124.457031 C 45.292969 124.605469 45.171875 124.722656 45.027344 124.722656 L 44.695312 124.722656 C 44.546875 124.722656 44.429688 124.605469 44.429688 124.457031 L 44.429688 104.242188 C 44.429688 104.09375 44.546875 103.976562 44.695312 103.976562 Z M 44.695312 103.976562 "/>
<path fill-rule="nonzero" fill="rgb(0%, 0%, 0%)" fill-opacity="1" stroke-width="0.08" stroke-linecap="round" stroke-linejoin="round" stroke="rgb(0%, 0%, 0%)" stroke-opacity="1" stroke-miterlimit="4" d="M 5.865354 -0.200055 L 5.865354 0.1999 L 0.0401362 0.1999 L 0.0401362 -0.200055 Z M 5.865354 -0.200055 " transform="matrix(6.641383, 0, 0, 6.641383, 44.428753, 124.723171)"/>
<path fill-rule="nonzero" fill="rgb(0%, 0%, 0%)" fill-opacity="1" d="M 69.398438 99.128906 C 71.152344 99.128906 72.265625 100.082031 72.265625 101.492188 C 72.265625 103.855469 69.265625 106.351562 66.476562 106.351562 C 64.722656 106.351562 63.605469 105.398438 63.605469 103.988281 C 63.605469 101.625 66.609375 99.128906 69.398438 99.128906 Z M 69.398438 99.128906 "/>
<path fill-rule="nonzero" fill="rgb(0%, 0%, 0%)" fill-opacity="1" d="M 63.871094 103.976562 L 64.203125 103.976562 C 64.351562 103.976562 64.46875 104.09375 64.46875 104.242188 L 64.46875 124.457031 C 64.46875 124.605469 64.351562 124.722656 64.203125 124.722656 L 63.871094 124.722656 C 63.726562 124.722656 63.605469 124.605469 63.605469 124.457031 L 63.605469 104.242188 C 63.605469 104.09375 63.726562 103.976562 63.871094 103.976562 Z M 63.871094 103.976562 "/>
<path fill-rule="nonzero" fill="rgb(0%, 0%, 0%)" fill-opacity="1" d="M 88.574219 99.128906 C 90.328125 99.128906 91.445312 100.082031 91.445312 101.492188 C 91.445312 103.855469 88.441406 106.351562 85.652344 106.351562 C 83.898438 106.351562 82.785156 105.398438 82.785156 103.988281 C 82.785156 101.625 85.785156 99.128906 88.574219 99.128906 Z M 88.574219 99.128906 "/>
<path fill-rule="nonzero" fill="rgb(0%, 0%, 0%)" fill-opacity="1" d="M 83.050781 103.976562 L 83.382812 103.976562 C 83.527344 103.976562 83.648438 104.09375 83.648438 104.242188 L 83.648438 124.457031 C 83.648438 124.605469 83.527344 124.722656 83.382812 124.722656 L 83.050781 124.722656 C 82.902344 124.722656 82.785156 124.605469 82.785156 124.457031 L 82.785156 104.242188 C 82.785156 104.09375 82.902344 103.976562 83.050781 103.976562 Z M 83.050781 103.976562 "/>
<path fill-rule="nonzero" fill="rgb(0%, 0%, 0%)" fill-opacity="1" d="M 106.683594 109.089844 C 108.4375 109.089844 109.550781 110.046875 109.550781 111.453125 C 109.550781 113.816406 106.550781 116.316406 103.761719 116.316406 C 102.007812 116.316406 100.890625 115.359375 100.890625 113.949219 C 100.890625 111.585938 103.894531 109.089844 106.683594 109.089844 Z M 106.683594 109.089844 "/>
<path fill-rule="nonzero" fill="rgb(0%, 0%, 0%)" fill-opacity="1" d="M 108.957031 92.777344 L 109.289062 92.777344 C 109.433594 92.777344 109.554688 92.898438 109.554688 93.042969 L 109.554688 111.199219 C 109.554688 111.347656 109.433594 111.464844 109.289062 111.464844 L 108.957031 111.464844 C 108.808594 111.464844 108.691406 111.347656 108.691406 111.199219 L 108.691406 93.042969 C 108.691406 92.898438 108.808594 92.777344 108.957031 92.777344 Z M 108.957031 92.777344 "/>
<path fill-rule="nonzero" fill="rgb(0%, 0%, 0%)" fill-opacity="1" d="M 125.859375 109.089844 C 127.613281 109.089844 128.730469 110.046875 128.730469 111.453125 C 128.730469 113.816406 125.726562 116.316406 122.9375 116.316406 C 121.183594 116.316406 120.070312 115.359375 120.070312 113.949219 C 120.070312 111.585938 123.070312 109.089844 125.859375 109.089844 Z M 125.859375 109.089844 "/>
<path fill-rule="nonzero" fill="rgb(0%, 0%, 0%)" fill-opacity="1" d="M 128.132812 92.777344 L 128.464844 92.777344 C 128.613281 92.777344 128.730469 92.898438 128.730469 93.042969 L 128.730469 111.199219 C 128.730469 111.347656 128.613281 111.464844 128.464844 111.464844 L 128.132812 111.464844 C 127.984375 111.464844 127.867188 111.347656 127.867188 111.199219 L 127.867188 93.042969 C 127.867188 92.898438 127.984375 92.777344 128.132812 92.777344 Z M 128.132812 92.777344 "/>
<path fill-rule="nonzero" fill="rgb(0%, 0%, 0%)" fill-opacity="1" d="M 145.039062 109.089844 C 146.792969 109.089844 147.90625 110.046875 147.90625 111.453125 C 147.90625 113.816406 144.90625 116.316406 142.117188 116.316406 C 140.363281 116.316406 139.246094 115.359375 139.246094 113.949219 C 139.246094 111.585938 142.25 109.089844 145.039062 109.089844 Z M 145.039062 109.089844 "/>
<path fill-rule="nonzero" fill="rgb(0%, 0%, 0%)" fill-opacity="1" d="M 147.308594 92.777344 L 147.640625 92.777344 C 147.789062 92.777344 147.90625 92.898438 147.90625 93.042969 L 147.90625 111.199219 C 147.90625 111.347656 147.789062 111.464844 147.640625 111.464844 L 147.308594 111.464844 C 147.164062 111.464844 147.042969 111.347656 147.042969 111.199219 L 147.042969 93.042969 C 147.042969 92.898438 147.164062 92.777344 147.308594 92.777344 Z M 147.308594 92.777344 "/>
<path fill-rule="nonzero" fill="rgb(0%, 0%, 0%)" fill-opacity="1" d="M 173.746094 115.730469 C 175.496094 115.730469 176.613281 116.6875 176.613281 118.09375 C 176.613281 120.460938 173.613281 122.957031 170.820312 122.957031 C 169.070312 122.957031 167.953125 122 167.953125 120.59375 C 167.953125 118.226562 170.953125 115.730469 173.746094 115.730469 Z M 173.746094 115.730469 "/>
<path fill-rule="nonzero" fill="rgb(0%, 0%, 0%)" fill-opacity="1" d="M 176.015625 99.417969 L 176.347656 99.417969 C 176.496094 99.417969 176.613281 99.539062 176.613281 99.683594 L 176.613281 117.84375 C 176.613281 117.988281 176.496094 118.109375 176.347656 118.109375 L 176.015625 118.109375 C 175.871094 118.109375 175.75 117.988281 175.75 117.84375 L 175.75 99.683594 C 175.75 99.539062 175.871094 99.417969 176.015625 99.417969 Z M 176.015625 99.417969 "/>
<path fill-rule="nonzero" fill="rgb(0%, 0%, 0%)" fill-opacity="1" d="M 192.921875 115.730469 C 194.675781 115.730469 195.792969 116.6875 195.792969 118.09375 C 195.792969 120.460938 192.789062 122.957031 190 122.957031 C 188.246094 122.957031 187.128906 122 187.128906 120.59375 C 187.128906 118.226562 190.132812 115.730469 192.921875 115.730469 Z M 192.921875 115.730469 "/>
<path fill-rule="nonzero" fill="rgb(0%, 0%, 0%)" fill-opacity="1" d="M 195.195312 99.417969 L 195.527344 99.417969 C 195.671875 99.417969 195.792969 99.539062 195.792969 99.683594 L 195.792969 117.84375 C 195.792969 117.988281 195.671875 118.109375 195.527344 118.109375 L 195.195312 118.109375 C 195.046875 118.109375 194.929688 117.988281 194.929688 117.84375 L 194.929688 99.683594 C 194.929688 99.539062 195.046875 99.417969 195.195312 99.417969 Z M 195.195312 99.417969 "/>
<path fill-rule="nonzero" fill="rgb(0%, 0%, 0%)" fill-opacity="1" d="M 212.097656 115.730469 C 213.851562 115.730469 214.96875 116.6875 214.96875 118.09375 C 214.96875 120.460938 211.964844 122.957031 209.175781 122.957031 C 207.421875 122.957031 206.308594 122 206.308594 120.59375 C 206.308594 118.226562 209.308594 115.730469 212.097656 115.730469 Z M 212.097656 115.730469 "/>
<path fill-rule="nonzero" fill="rgb(0%, 0%, 0%)" fill-opacity="1" d="M 214.371094 99.417969 L 214.703125 99.417969 C 214.851562 99.417969 214.96875 99.539062 214.96875 99.683594 L 214.96875 117.84375 C 214.96875 117.988281 214.851562 118.109375 214.703125 118.109375 L 214.371094 118.109375 C 214.226562 118.109375 214.105469 117.988281 214.105469 117.84375 L 214.105469 99.683594 C 214.105469 99.539062 214.226562 99.417969 214.371094 99.417969 Z M 214.371094 99.417969 "/>
<path fill-rule="nonzero" fill="rgb(0%, 0%, 0%)" fill-opacity="1" stroke-width="0.08" stroke-linecap="round" stroke-linejoin="round" stroke="rgb(0%, 0%, 0%)" stroke-opacity="1" stroke-miterlimit="4" d="M 5.864991 -0.200209 L 5.864991 0.199746 L 0.0397738 0.199746 L 0.0397738 -0.200209 Z M 5.864991 -0.200209 " transform="matrix(6.641383, 0, 0, 6.641383, 175.751472, 99.419506)"/>
<path fill-rule="nonzero" fill="rgb(0%, 0%, 0%)" fill-opacity="1" d="M 231.890625 106.0625 L 232.222656 106.0625 C 232.367188 106.0625 232.488281 106.179688 232.488281 106.328125 L 232.488281 124.484375 C 232.488281 124.628906 232.367188 124.75 232.222656 124.75 L 231.890625 124.75 C 231.742188 124.75 231.625 124.628906 231.625 124.484375 L 231.625 106.328125 C 231.625 106.179688 231.742188 106.0625 231.890625 106.0625 Z M 231.890625 106.0625 "/>
<path fill-rule="nonzero" fill="rgb(0%, 0%, 0%)" fill-opacity="1" d="M 248.792969 122.371094 C 250.546875 122.371094 251.664062 123.328125 251.664062 124.738281 C 251.664062 127.101562 248.660156 129.597656 245.871094 129.597656 C 244.117188 129.597656 243.003906 128.640625 243.003906 127.234375 C 243.003906 124.871094 246.003906 122.371094 248.792969 122.371094 Z M 248.792969 122.371094 "/>
<path fill-rule="nonzero" fill="rgb(0%, 0%, 0%)" fill-opacity="1" d="M 251.066406 106.0625 L 251.398438 106.0625 C 251.546875 106.0625 251.664062 106.179688 251.664062 106.328125 L 251.664062 124.484375 C 251.664062 124.628906 251.546875 124.75 251.398438 124.75 L 251.066406 124.75 C 250.921875 124.75 250.800781 124.628906 250.800781 124.484375 L 250.800781 106.328125 C 250.800781 106.179688 250.921875 106.0625 251.066406 106.0625 Z M 251.066406 106.0625 "/>
<path fill-rule="nonzero" fill="rgb(0%, 0%, 0%)" fill-opacity="1" d="M 267.972656 122.371094 C 269.726562 122.371094 270.839844 123.328125 270.839844 124.738281 C 270.839844 127.101562 267.839844 129.597656 265.050781 129.597656 C 263.296875 129.597656 262.179688 128.640625 262.179688 127.234375 C 262.179688 124.871094 265.183594 122.371094 267.972656 122.371094 Z M 267.972656 122.371094 "/>
<path fill-rule="nonzero" fill="rgb(0%, 0%, 0%)" fill-opacity="1" d="M 270.246094 106.0625 L 270.578125 106.0625 C 270.722656 106.0625 270.84375 106.179688 270.84375 106.328125 L 270.84375 124.484375 C 270.84375 124.628906 270.722656 124.75 270.578125 124.75 L 270.246094 124.75 C 270.097656 124.75 269.980469 124.628906 269.980469 124.484375 L 269.980469 106.328125 C 269.980469 106.179688 270.097656 106.0625 270.246094 106.0625 Z M 270.246094 106.0625 "/>
<path fill-rule="nonzero" fill="rgb(0%, 0%, 0%)" fill-opacity="1" d="M 297.457031 73.101562 C 298.625 73.101562 299.636719 73.335938 300.492188 73.777344 C 301.738281 74.425781 302.488281 75.566406 302.75 77.199219 L 301.089844 77.199219 C 300.882812 76.292969 300.464844 75.617188 299.816406 75.203125 C 299.195312 74.789062 298.390625 74.578125 297.40625 74.578125 C 296.261719 74.578125 295.277344 75.019531 294.5 75.878906 C 293.695312 76.757812 293.304688 78.054688 293.304688 79.769531 C 293.304688 81.246094 293.644531 82.441406 294.292969 83.375 C 294.941406 84.308594 296.003906 84.777344 297.457031 84.777344 C 298.597656 84.777344 299.53125 84.4375 300.257812 83.789062 C 301.011719 83.140625 301.375 82.078125 301.398438 80.625 L 297.484375 80.625 L 297.484375 79.222656 L 302.957031 79.222656 L 302.957031 85.890625 L 301.867188 85.890625 L 301.476562 84.28125 C 300.90625 84.90625 300.386719 85.347656 299.949219 85.605469 C 299.222656 86.019531 298.261719 86.226562 297.121094 86.226562 C 295.640625 86.226562 294.371094 85.734375 293.304688 84.777344 C 292.164062 83.582031 291.566406 81.949219 291.566406 79.847656 C 291.566406 77.769531 292.136719 76.109375 293.28125 74.867188 C 294.34375 73.699219 295.746094 73.101562 297.457031 73.101562 Z M 290.738281 72.503906 "/>
<path fill-rule="nonzero" fill="rgb(0%, 0%, 0%)" fill-opacity="1" d="M 296.527344 109.089844 C 298.28125 109.089844 299.398438 110.046875 299.398438 111.453125 C 299.398438 113.816406 296.394531 116.316406 293.605469 116.316406 C 291.851562 116.316406 290.738281 115.359375 290.738281 113.949219 C 290.738281 111.585938 293.738281 109.089844 296.527344 109.089844 Z M 296.527344 109.089844 "/>
<path fill-rule="nonzero" fill="rgb(0%, 0%, 0%)" fill-opacity="1" d="M 298.800781 89.457031 L 299.132812 89.457031 C 299.28125 89.457031 299.398438 89.578125 299.398438 89.722656 L 299.398438 111.199219 C 299.398438 111.347656 299.28125 111.464844 299.132812 111.464844 L 298.800781 111.464844 C 298.65625 111.464844 298.535156 111.347656 298.535156 111.199219 L 298.535156 89.722656 C 298.535156 89.578125 298.65625 89.457031 298.800781 89.457031 Z M 298.800781 89.457031 "/>
<path fill-rule="nonzero" fill="rgb(0%, 0%, 0%)" fill-opacity="1" d="M 326.222656 112.410156 C 327.976562 112.410156 329.089844 113.367188 329.089844 114.773438 C 329.089844 117.140625 326.089844 119.636719 323.300781 119.636719 C 321.546875 119.636719 320.429688 118.679688 320.429688 117.273438 C 320.429688 114.90625 323.433594 112.410156 326.222656 112.410156 Z M 326.222656 112.410156 "/>
<path fill-rule="nonzero" fill="rgb(0%, 0%, 0%)" fill-opacity="1" d="M 328.496094 92.777344 L 328.828125 92.777344 C 328.972656 92.777344 329.09375 92.898438 329.09375 93.042969 L 329.09375 114.519531 C 329.09375 114.667969 328.972656 114.785156 328.828125 114.785156 L 328.496094 114.785156 C 328.347656 114.785156 328.230469 114.667969 328.230469 114.519531 L 328.230469 93.042969 C 328.230469 92.898438 328.347656 92.777344 328.496094 92.777344 Z M 328.496094 92.777344 "/>
<path fill-rule="nonzero" fill="rgb(0%, 0%, 0%)" fill-opacity="1" d="M 329.09375 93.042969 L 329.09375 99.683594 L 328.667969 99.683594 L 328.667969 93.042969 Z M 329.09375 93.042969 C 329.09375 98.277344 334.59375 101.96875 334.59375 107.203125 C 334.59375 109.089844 334.195312 110.949219 333.503906 112.703125 C 333.371094 112.914062 333.15625 113.019531 332.972656 113.019531 C 332.625 113.019531 332.28125 112.730469 332.359375 112.304688 C 333.050781 110.683594 333.476562 108.957031 333.476562 107.203125 C 333.476562 104.46875 330.980469 101.675781 329.09375 99.683594 Z M 329.09375 93.042969 "/>
<path fill-rule="nonzero" fill="rgb(0%, 0%, 0%)" fill-opacity="1" d="M 345.820312 115.730469 C 347.574219 115.730469 348.6875 116.6875 348.6875 118.09375 C 348.6875 120.460938 345.6875 122.957031 342.898438 122.957031 C 341.144531 122.957031 340.027344 122 340.027344 120.59375 C 340.027344 118.226562 343.03125 115.730469 345.820312 115.730469 Z M 345.820312 115.730469 "/>
<path fill-rule="nonzero" fill="rgb(0%, 0%, 0%)" fill-opacity="1" d="M 348.09375 96.097656 L 348.425781 96.097656 C 348.570312 96.097656 348.691406 96.21875 348.691406 96.363281 L 348.691406 117.84375 C 348.691406 117.988281 348.570312 118.109375 348.425781 118.109375 L 348.09375 118.109375 C 347.945312 118.109375 347.828125 117.988281 347.828125 117.84375 L 347.828125 96.363281 C 347.828125 96.21875 347.945312 96.097656 348.09375 96.097656 Z M 348.09375 96.097656 "/>
<path fill-rule="nonzero" fill="rgb(0%, 0%, 0%)" fill-opacity="1" d="M 375.511719 119.050781 C 377.265625 119.050781 378.382812 120.007812 378.382812 121.414062 C 378.382812 123.78125 375.378906 126.277344 372.589844 126.277344 C 370.839844 126.277344 369.722656 125.320312 369.722656 123.914062 C 369.722656 121.546875 372.722656 119.050781 375.511719 119.050781 Z M 375.511719 119.050781 "/>
<path fill-rule="nonzero" fill="rgb(0%, 0%, 0%)" fill-opacity="1" d="M 377.785156 99.417969 L 378.117188 99.417969 C 378.265625 99.417969 378.382812 99.539062 378.382812 99.683594 L 378.382812 121.164062 C 378.382812 121.308594 378.265625 121.429688 378.117188 121.429688 L 377.785156 121.429688 C 377.640625 121.429688 377.519531 121.308594 377.519531 121.164062 L 377.519531 99.683594 C 377.519531 99.539062 377.640625 99.417969 377.785156 99.417969 Z M 377.785156 99.417969 "/>
<path fill-rule="nonzero" fill="rgb(0%, 0%, 0%)" fill-opacity="1" d="M 378.382812 99.683594 L 378.382812 106.328125 L 377.960938 106.328125 L 377.960938 99.683594 Z M 378.382812 99.683594 C 378.382812 104.917969 383.882812 108.609375 383.882812 113.84375 C 383.882812 115.730469 383.484375 117.589844 382.792969 119.34375 C 382.660156 119.554688 382.449219 119.664062 382.261719 119.664062 C 381.917969 119.664062 381.570312 119.371094 381.652344 118.945312 C 382.34375 117.324219 382.765625 115.597656 382.765625 113.84375 C 382.765625 111.109375 380.269531 108.320312 378.382812 106.328125 Z M 378.382812 99.683594 "/>
<path fill-rule="nonzero" fill="rgb(0%, 0%, 0%)" fill-opacity="1" d="M 410.71875 73.101562 C 412.300781 73.101562 413.519531 73.515625 414.402344 74.347656 C 415.285156 75.175781 415.75 76.109375 415.855469 77.175781 L 414.222656 77.175781 C 414.011719 76.371094 413.648438 75.722656 413.105469 75.253906 C 412.535156 74.789062 411.757812 74.554688 410.746094 74.554688 C 409.527344 74.554688 408.539062 74.996094 407.761719 75.851562 C 407.007812 76.707031 406.644531 78.03125 406.644531 79.820312 C 406.644531 81.273438 406.984375 82.464844 407.65625 83.375 C 408.332031 84.28125 409.371094 84.722656 410.71875 84.722656 C 411.964844 84.722656 412.898438 84.257812 413.546875 83.296875 C 413.910156 82.804688 414.167969 82.128906 414.324219 81.300781 L 415.984375 81.300781 C 415.828125 82.621094 415.335938 83.710938 414.507812 84.621094 C 413.519531 85.683594 412.199219 86.203125 410.511719 86.203125 C 409.058594 86.203125 407.839844 85.789062 406.851562 84.90625 C 405.554688 83.738281 404.90625 81.949219 404.90625 79.535156 C 404.90625 77.691406 405.402344 76.1875 406.386719 74.996094 C 407.425781 73.722656 408.875 73.101562 410.71875 73.101562 Z M 404.15625 72.503906 "/>
<path fill-rule="nonzero" fill="rgb(0%, 0%, 0%)" fill-opacity="1" d="M 412.496094 124.257812 C 412.496094 123.648438 411.992188 123.167969 411.382812 123.167969 C 410.34375 123.167969 405.960938 126.089844 405.246094 126.96875 C 405.058594 127.179688 404.980469 127.445312 404.980469 127.710938 C 404.980469 128.324219 405.484375 128.800781 406.09375 128.800781 C 407.128906 128.800781 411.488281 125.878906 412.203125 125.003906 C 412.390625 124.789062 412.496094 124.523438 412.496094 124.257812 Z M 411.117188 122.371094 C 412.203125 122.371094 413.292969 122.742188 413.292969 124.257812 C 413.292969 124.949219 412.867188 127.234375 411.328125 128.269531 C 410.664062 128.722656 409.015625 129.597656 406.359375 129.597656 C 405.269531 129.597656 404.15625 129.226562 404.15625 127.710938 C 404.15625 127.019531 404.582031 124.738281 406.121094 123.699219 C 406.785156 123.25 408.457031 122.371094 411.117188 122.371094 Z M 411.117188 122.371094 "/>
<path fill-rule="nonzero" fill="rgb(0%, 0%, 0%)" fill-opacity="1" d="M 416.292969 122.664062 C 416.292969 121.839844 416.957031 121.175781 417.777344 121.175781 C 418.601562 121.175781 419.265625 121.839844 419.265625 122.664062 C 419.265625 123.488281 418.601562 124.152344 417.777344 124.152344 C 416.957031 124.152344 416.292969 123.488281 416.292969 122.664062 Z M 416.292969 122.664062 "/>
<path fill-rule="nonzero" fill="rgb(0%, 0%, 0%)" fill-opacity="1" d="M 412.703125 102.738281 L 413.035156 102.738281 C 413.183594 102.738281 413.300781 102.859375 413.300781 103.003906 L 413.300781 124 C 413.300781 124.144531 413.183594 124.265625 413.035156 124.265625 L 412.703125 124.265625 C 412.558594 124.265625 412.4375 124.144531 412.4375 124 L 412.4375 103.003906 C 412.4375 102.859375 412.558594 102.738281 412.703125 102.738281 Z M 412.703125 102.738281 "/>
<path fill-rule="nonzero" fill="rgb(0%, 0%, 0%)" fill-opacity="1" stroke-width="0.08" stroke-linecap="round" stroke-linejoin="round" stroke="rgb(0%, 0%, 0%)" stroke-opacity="1" stroke-miterlimit="4" d="M 5.86545 -0.199735 L 5.86545 0.20022 L 0.0402327 0.20022 L 0.0402327 -0.199735 Z M 5.86545 -0.199735 " transform="matrix(6.641383, 0, 0, 6.641383, 231.623424, 106.060889)"/>
</svg>
