<?xml version="1.0" encoding="UTF-8"?>
<svg xmlns="http://www.w3.org/2000/svg" xmlns:xlink="http://www.w3.org/1999/xlink" width="459.439361" height="100.459842" viewBox="0 0 459.439361 100.459842">
<rect x="-45.943936" y="-10.045984" width="551.327233" height="120.551811" fill="rgb(100%, 100%, 100%)" fill-opacity="1"/>
<path fill-rule="nonzero" fill="rgb(0%, 0%, 0%)" fill-opacity="1" d="M 149.113281 11.953125 L 150.375 11.953125 L 150.375 38.519531 L 149.113281 38.519531 Z M 149.113281 11.953125 "/>
<path fill="none" stroke-width="0.1" stroke-linecap="round" stroke-linejoin="round" stroke="rgb(0%, 0%, 0%)" stroke-opacity="1" stroke-miterlimit="4" d="M 0.0502277 0.0000247488 L 68.236542 0.0000247488 " transform="matrix(6.64127, 0, 0, 6.64127, 5.912518, 38.519367)"/>
<path fill="none" stroke-width="0.1" stroke-linecap="round" stroke-linejoin="round" stroke="rgb(0%, 0%, 0%)" stroke-opacity="1" stroke-miterlimit="4" d="M 0.0502277 0.000121925 L 68.236542 0.000121925 " transform="matrix(6.64127, 0, 0, 6.64127, 5.912518, 31.878097)"/>
<path fill="none" stroke-width="0.1" stroke-linecap="round" stroke-linejoin="round" stroke="rgb(0%, 0%, 0%)" stroke-opacity="1" stroke-miterlimit="4" d="M 0.0502277 0.000218864 L 68.236542 0.000218864 " transform="matrix(6.64127, 0, 0, 6.64127, 5.912518, 25.236828)"/>
<path fill="none" stroke-width="0.1" stroke-linecap="round" stroke-linejoin="round" stroke="rgb(0%, 0%, 0%)" stroke-opacity="1" stroke-miterlimit="4" d="M 0.0502277 -0.000272138 L 68.236542 -0.000272138 " transform="matrix(6.64127, 0, 0, 6.64127, 5.912518, 18.595557)"/>
<path fill="none" stroke-width="0.1" stroke-linecap="round" stroke-linejoin="round" stroke="rgb(0%, 0%, 0%)" stroke-opacity="1" stroke-miterlimit="4" d="M 0.0502277 -0.000174961 L 68.236542 -0.000174961 " transform="matrix(6.64127, 0, 0, 6.64127, 5.912518, 11.954287)"/>
<path fill-rule="nonzero" fill="rgb(0%, 0%, 0%)" fill-opacity="1" d="M 458.160156 11.953125 L 459.421875 11.953125 L 459.421875 38.519531 L 458.160156 38.519531 Z M 458.160156 11.953125 "/>
<path fill-rule="nonzero" fill="rgb(0%, 0%, 0%)" fill-opacity="1" d="M 384.390625 11.953125 L 385.652344 11.953125 L 385.652344 38.519531 L 384.390625 38.519531 Z M 384.390625 11.953125 "/>
<path fill-rule="nonzero" fill="rgb(0%, 0%, 0%)" fill-opacity="1" d="M 156.824219 44.496094 L 168.488281 44.496094 C 168.855469 44.496094 169.152344 44.792969 169.152344 45.160156 C 169.152344 45.527344 168.855469 45.824219 168.488281 45.824219 L 156.824219 45.824219 C 156.457031 45.824219 156.160156 45.527344 156.160156 45.160156 C 156.160156 44.792969 156.457031 44.496094 156.824219 44.496094 Z M 156.824219 44.496094 "/>
<path fill-rule="nonzero" fill="rgb(0%, 0%, 0%)" fill-opacity="1" d="M 103.539062 44.496094 L 115.203125 44.496094 C 115.566406 44.496094 115.867188 44.792969 115.867188 45.160156 C 115.867188 45.527344 115.566406 45.824219 115.203125 45.824219 L 103.539062 45.824219 C 103.171875 45.824219 102.875 45.527344 102.875 45.160156 C 102.875 44.792969 103.171875 44.496094 103.539062 44.496094 Z M 103.539062 44.496094 "/>
<path fill-rule="nonzero" fill="rgb(0%, 0%, 0%)" fill-opacity="1" d="M 60.652344 44.496094 L 72.316406 44.496094 C 72.679688 44.496094 72.980469 44.792969 72.980469 45.160156 C 72.980469 45.527344 72.679688 45.824219 72.316406 45.824219 L 60.652344 45.824219 C 60.285156 45.824219 59.988281 45.527344 59.988281 45.160156 C 59.988281 44.792969 60.285156 44.496094 60.652344 44.496094 Z M 60.652344 44.496094 "/>
<path fill-rule="nonzero" fill="rgb(0%, 0%, 0%)" fill-opacity="1" d="M 260.25 11.953125 L 261.511719 11.953125 L 261.511719 38.519531 L 260.25 38.519531 Z M 260.25 11.953125 "/>
<path fill-rule="nonzero" fill="rgb(0%, 0%, 0%)" fill-opacity="1" d="M 275.253906 34.90625 C 277.007812 34.90625 278.125 35.863281 278.125 37.269531 C 278.125 39.636719 275.121094 42.132812 272.332031 42.132812 C 270.578125 42.132812 269.464844 41.175781 269.464844 39.769531 C 269.464844 37.402344 272.464844 34.90625 275.253906 34.90625 Z M 275.253906 34.90625 "/>
<path fill-rule="nonzero" fill="rgb(0%, 0%, 0%)" fill-opacity="1" d="M 67.941406 41.546875 C 69.695312 41.546875 70.8125 42.503906 70.8125 43.910156 C 70.8125 46.277344 67.808594 48.773438 65.019531 48.773438 C 63.269531 48.773438 62.152344 47.816406 62.152344 46.410156 C 62.152344 44.042969 65.152344 41.546875 67.941406 41.546875 Z M 67.941406 41.546875 "/>
<path fill-rule="nonzero" fill="rgb(0%, 0%, 0%)" fill-opacity="1" d="M 18.292969 48.746094 L 18.132812 48.746094 C 15.261719 48.746094 12.953125 46.410156 12.953125 43.511719 C 12.953125 41.972656 14.359375 40.777344 15.925781 40.777344 C 17.363281 40.777344 18.453125 42.027344 18.453125 43.511719 C 18.453125 44.894531 17.308594 46.039062 15.925781 46.039062 C 15.636719 46.039062 15.371094 45.984375 15.105469 45.878906 C 15.792969 46.914062 16.910156 47.605469 18.210938 47.605469 L 18.320312 47.605469 Z M 23.472656 37.269531 C 25.277344 36.632812 26.472656 34.878906 26.472656 32.914062 C 26.472656 30.523438 24.71875 28.160156 21.878906 27.867188 C 22.382812 30.230469 23.152344 34.296875 23.472656 37.269531 Z M 13.191406 31.132812 C 13.191406 34.984375 16.9375 37.695312 20.203125 37.695312 C 20.230469 37.695312 21.453125 37.695312 22.382812 37.535156 C 22.195312 35.835938 21.613281 32.144531 20.710938 27.867188 C 18.609375 28.078125 17.414062 29.488281 17.414062 31.027344 C 17.414062 32.195312 18.078125 33.445312 19.566406 34.296875 C 19.699219 34.429688 19.753906 34.5625 19.753906 34.695312 C 19.753906 34.984375 19.488281 35.277344 19.167969 35.277344 C 18.769531 35.277344 15.820312 33.632812 15.820312 30.3125 C 15.820312 27.972656 17.363281 25.6875 20.070312 25.078125 C 19.699219 23.535156 19.300781 21.96875 18.851562 20.429688 C 16.007812 23.644531 13.191406 26.882812 13.191406 31.132812 Z M 17.867188 17.1875 C 17.097656 14.636719 16.484375 12.671875 16.484375 7.996094 C 16.484375 4.941406 17.945312 2.046875 20.445312 0.238281 C 20.601562 0.105469 20.816406 0.105469 20.976562 0.238281 C 22.78125 2.363281 24.507812 6.746094 24.507812 9.75 C 24.507812 13.546875 22.222656 16.523438 19.726562 19.417969 C 20.285156 21.226562 20.761719 23.085938 21.214844 24.917969 C 21.265625 24.917969 21.398438 24.890625 21.558594 24.890625 C 25.675781 24.890625 28.359375 28.292969 28.359375 31.824219 C 28.359375 34.828125 26.394531 37.457031 23.578125 38.359375 C 23.65625 39.289062 23.710938 40.21875 23.710938 41.148438 C 23.710938 41.652344 23.683594 42.183594 23.65625 42.691406 C 23.472656 45.851562 21.320312 48.667969 18.292969 48.746094 L 18.320312 47.605469 C 20.789062 47.550781 22.382812 45.160156 22.542969 42.53125 C 22.570312 42.050781 22.59375 41.546875 22.59375 41.070312 C 22.59375 40.246094 22.570312 39.449219 22.488281 38.625 C 22.355469 38.652344 21.320312 38.839844 20.125 38.839844 C 14.996094 38.839844 11.277344 34.054688 11.277344 28.902344 C 11.277344 24.199219 14.757812 20.773438 17.867188 17.1875 Z M 22.59375 7.542969 C 22.59375 6.640625 22.621094 5.792969 22.0625 4.117188 C 19.433594 5.394531 17.761719 8.074219 17.761719 10.996094 C 17.761719 12.378906 18.078125 14.054688 18.71875 16.152344 C 20.84375 13.574219 22.59375 10.890625 22.59375 7.542969 Z M 22.59375 7.542969 "/>
<path fill-rule="nonzero" fill="rgb(0%, 0%, 0%)" fill-opacity="1" d="M 43.976562 18.355469 C 42.621094 18.355469 42.566406 19.5 42.566406 21.011719 L 42.566406 21.96875 C 42.566406 23.484375 42.621094 24.625 43.976562 24.625 C 45.488281 24.625 45.59375 23.269531 45.59375 21.492188 C 45.59375 19.710938 45.488281 18.355469 43.976562 18.355469 Z M 42.566406 18.171875 C 42.964844 17.90625 43.445312 17.746094 43.976562 17.746094 C 46.65625 17.746094 48.492188 18.96875 48.492188 21.492188 C 48.492188 24.015625 46.65625 25.238281 43.976562 25.238281 C 41 25.238281 39.457031 21.941406 39.457031 18.59375 C 39.457031 15.195312 41.371094 11.953125 44.507812 11.953125 C 46.367188 11.953125 48.117188 12.992188 48.117188 14.691406 C 48.117188 15.648438 47.347656 16.445312 46.390625 16.445312 C 45.4375 16.445312 44.640625 15.648438 44.640625 14.691406 C 44.640625 14.054688 45.703125 14.027344 45.703125 13.390625 C 45.703125 12.859375 45.089844 12.566406 44.507812 12.566406 C 42.753906 12.566406 42.515625 14.292969 42.515625 16.257812 C 42.515625 16.894531 42.566406 17.53125 42.566406 18.171875 Z M 42.566406 18.171875 "/>
<path fill-rule="nonzero" fill="rgb(0%, 0%, 0%)" fill-opacity="1" d="M 46.050781 30.894531 C 46.714844 30.097656 47.222656 29.195312 47.222656 28.160156 C 47.222656 26.722656 45.761719 25.847656 44.191406 25.847656 C 42.972656 25.847656 42.253906 26.804688 42.253906 27.734375 C 42.253906 28.292969 42.519531 28.851562 43.078125 29.167969 Z M 46.875 31.375 C 47.488281 31.71875 49 32.808594 49 34.695312 C 49 36.632812 47.246094 38.519531 43.980469 38.519531 C 41.484375 38.519531 39.117188 37.085938 39.117188 34.800781 C 39.117188 33.472656 40.074219 32.488281 41.03125 31.53125 C 40.046875 30.789062 39.570312 29.78125 39.570312 28.796875 C 39.570312 26.988281 41.164062 25.238281 44.191406 25.238281 C 46.316406 25.238281 48.363281 26.273438 48.363281 28.160156 C 48.363281 29.382812 47.699219 30.445312 46.875 31.375 Z M 41.855469 32.039062 C 41.03125 32.835938 40.289062 33.65625 40.289062 34.800781 C 40.289062 36.632812 42.042969 37.910156 43.980469 37.910156 C 45.414062 37.910156 46.265625 36.792969 46.265625 35.703125 C 46.265625 35.066406 46 34.429688 45.335938 34.054688 Z M 41.855469 32.039062 "/>
<path fill-rule="nonzero" fill="rgb(0%, 0%, 0%)" fill-opacity="1" d="M 73.800781 41.839844 C 73.800781 41.015625 74.464844 40.351562 75.289062 40.351562 C 76.113281 40.351562 76.777344 41.015625 76.777344 41.839844 C 76.777344 42.664062 76.113281 43.328125 75.289062 43.328125 C 74.464844 43.328125 73.800781 42.664062 73.800781 41.839844 Z M 73.800781 41.839844 "/>
<path fill-rule="nonzero" fill="rgb(0%, 0%, 0%)" fill-opacity="1" d="M 70.214844 21.917969 L 70.546875 21.917969 C 70.695312 21.917969 70.8125 22.035156 70.8125 22.183594 L 70.8125 43.660156 C 70.8125 43.804688 70.695312 43.925781 70.546875 43.925781 L 70.214844 43.925781 C 70.070312 43.925781 69.949219 43.804688 69.949219 43.660156 L 69.949219 22.183594 C 69.949219 22.035156 70.070312 21.917969 70.214844 21.917969 Z M 70.214844 21.917969 "/>
<path fill-rule="nonzero" fill="rgb(0%, 0%, 0%)" fill-opacity="1" d="M 110.828125 41.546875 C 112.582031 41.546875 113.699219 42.503906 113.699219 43.910156 C 113.699219 46.277344 110.695312 48.773438 107.90625 48.773438 C 106.15625 48.773438 105.039062 47.816406 105.039062 46.410156 C 105.039062 44.042969 108.039062 41.546875 110.828125 41.546875 Z M 110.828125 41.546875 "/>
<path fill-rule="nonzero" fill="rgb(0%, 0%, 0%)" fill-opacity="1" d="M 116.6875 41.839844 C 116.6875 41.015625 117.351562 40.351562 118.175781 40.351562 C 119 40.351562 119.664062 41.015625 119.664062 41.839844 C 119.664062 42.664062 119 43.328125 118.175781 43.328125 C 117.351562 43.328125 116.6875 42.664062 116.6875 41.839844 Z M 116.6875 41.839844 "/>
<path fill-rule="nonzero" fill="rgb(0%, 0%, 0%)" fill-opacity="1" d="M 113.101562 21.917969 L 113.433594 21.917969 C 113.582031 21.917969 113.699219 22.035156 113.699219 22.183594 L 113.699219 43.660156 C 113.699219 43.804688 113.582031 43.925781 113.433594 43.925781 L 113.101562 43.925781 C 112.957031 43.925781 112.835938 43.804688 112.835938 43.660156 L 112.835938 22.183594 C 112.835938 22.035156 112.957031 21.917969 113.101562 21.917969 Z M 113.101562 21.917969 "/>
<path fill-rule="nonzero" fill="rgb(0%, 0%, 0%)" fill-opacity="1" d="M 164.117188 41.546875 C 165.871094 41.546875 166.988281 42.503906 166.988281 43.910156 C 166.988281 46.277344 163.984375 48.773438 161.195312 48.773438 C 159.441406 48.773438 158.328125 47.816406 158.328125 46.410156 C 158.328125 44.042969 161.328125 41.546875 164.117188 41.546875 Z M 164.117188 41.546875 "/>
<path fill-rule="nonzero" fill="rgb(0%, 0%, 0%)" fill-opacity="1" d="M 166.390625 21.917969 L 166.722656 21.917969 C 166.871094 21.917969 166.988281 22.035156 166.988281 22.183594 L 166.988281 43.660156 C 166.988281 43.804688 166.871094 43.925781 166.722656 43.925781 L 166.390625 43.925781 C 166.242188 43.925781 166.125 43.804688 166.125 43.660156 L 166.125 22.183594 C 166.125 22.035156 166.242188 21.917969 166.390625 21.917969 Z M 166.390625 21.917969 "/>
<path fill-rule="nonzero" fill="rgb(0%, 0%, 0%)" fill-opacity="1" d="M 199.261719 38.226562 C 201.011719 38.226562 202.128906 39.183594 202.128906 40.589844 C 202.128906 42.957031 199.128906 45.453125 196.335938 45.453125 C 194.585938 45.453125 193.46875 44.496094 193.46875 43.089844 C 193.46875 40.722656 196.46875 38.226562 199.261719 38.226562 Z M 199.261719 38.226562 "/>
<path fill-rule="nonzero" fill="rgb(0%, 0%, 0%)" fill-opacity="1" d="M 201.53125 18.59375 L 201.863281 18.59375 C 202.011719 18.59375 202.128906 18.714844 202.128906 18.859375 L 202.128906 40.339844 C 202.128906 40.484375 202.011719 40.605469 201.863281 40.605469 L 201.53125 40.605469 C 201.386719 40.605469 201.265625 40.484375 201.265625 40.339844 L 201.265625 18.859375 C 201.265625 18.714844 201.386719 18.59375 201.53125 18.59375 Z M 201.53125 18.59375 "/>
<path fill-rule="nonzero" fill="rgb(0%, 0%, 0%)" fill-opacity="1" d="M 202.128906 18.859375 L 202.128906 25.503906 L 201.707031 25.503906 L 201.707031 18.859375 Z M 202.128906 18.859375 C 202.128906 24.09375 207.628906 27.785156 207.628906 33.019531 C 207.628906 34.90625 207.230469 36.765625 206.539062 38.519531 C 206.40625 38.730469 206.195312 38.839844 206.007812 38.839844 C 205.664062 38.839844 205.316406 38.546875 205.398438 38.121094 C 206.089844 36.5 206.511719 34.773438 206.511719 33.019531 C 206.511719 30.285156 204.015625 27.496094 202.128906 25.503906 Z M 202.128906 18.859375 "/>
<path fill-rule="nonzero" fill="rgb(0%, 0%, 0%)" fill-opacity="1" d="M 221.582031 34.90625 C 223.335938 34.90625 224.449219 35.863281 224.449219 37.269531 C 224.449219 39.636719 221.449219 42.132812 218.660156 42.132812 C 216.90625 42.132812 215.789062 41.175781 215.789062 39.769531 C 215.789062 37.402344 218.792969 34.90625 221.582031 34.90625 Z M 221.582031 34.90625 "/>
<path fill-rule="nonzero" fill="rgb(0%, 0%, 0%)" fill-opacity="1" d="M 227.441406 35.199219 C 227.441406 34.375 228.105469 33.710938 228.925781 33.710938 C 229.75 33.710938 230.414062 34.375 230.414062 35.199219 C 230.414062 36.023438 229.75 36.6875 228.925781 36.6875 C 228.105469 36.6875 227.441406 36.023438 227.441406 35.199219 Z M 227.441406 35.199219 "/>
<path fill-rule="nonzero" fill="rgb(0%, 0%, 0%)" fill-opacity="1" d="M 223.855469 15.273438 L 224.1875 15.273438 C 224.332031 15.273438 224.453125 15.394531 224.453125 15.539062 L 224.453125 37.019531 C 224.453125 37.164062 224.332031 37.285156 224.1875 37.285156 L 223.855469 37.285156 C 223.707031 37.285156 223.589844 37.164062 223.589844 37.019531 L 223.589844 15.539062 C 223.589844 15.394531 223.707031 15.273438 223.855469 15.273438 Z M 223.855469 15.273438 "/>
<path fill-rule="nonzero" fill="rgb(0%, 0%, 0%)" fill-opacity="1" d="M 277.527344 15.273438 L 277.859375 15.273438 C 278.007812 15.273438 278.125 15.394531 278.125 15.539062 L 278.125 37.019531 C 278.125 37.164062 278.007812 37.285156 277.859375 37.285156 L 277.527344 37.285156 C 277.382812 37.285156 277.261719 37.164062 277.261719 37.019531 L 277.261719 15.539062 C 277.261719 15.394531 277.382812 15.273438 277.527344 15.273438 Z M 277.527344 15.273438 "/>
<path fill-rule="nonzero" fill="rgb(0%, 0%, 0%)" fill-opacity="1" d="M 310.398438 38.226562 C 312.152344 38.226562 313.265625 39.183594 313.265625 40.589844 C 313.265625 42.957031 310.265625 45.453125 307.476562 45.453125 C 305.722656 45.453125 304.605469 44.496094 304.605469 43.089844 C 304.605469 40.722656 307.609375 38.226562 310.398438 38.226562 Z M 310.398438 38.226562 "/>
<path fill-rule="nonzero" fill="rgb(0%, 0%, 0%)" fill-opacity="1" d="M 312.671875 18.59375 L 313.003906 18.59375 C 313.148438 18.59375 313.269531 18.714844 313.269531 18.859375 L 313.269531 40.339844 C 313.269531 40.484375 313.148438 40.605469 313.003906 40.605469 L 312.671875 40.605469 C 312.523438 40.605469 312.40625 40.484375 312.40625 40.339844 L 312.40625 18.859375 C 312.40625 18.714844 312.523438 18.59375 312.671875 18.59375 Z M 312.671875 18.59375 "/>
<path fill-rule="nonzero" fill="rgb(0%, 0%, 0%)" fill-opacity="1" d="M 313.269531 18.859375 L 313.269531 25.503906 L 312.84375 25.503906 L 312.84375 18.859375 Z M 313.269531 18.859375 C 313.269531 24.09375 318.765625 27.785156 318.765625 33.019531 C 318.765625 34.90625 318.367188 36.765625 317.675781 38.519531 C 317.542969 38.730469 317.332031 38.839844 317.144531 38.839844 C 316.800781 38.839844 316.457031 38.546875 316.535156 38.121094 C 317.226562 36.5 317.652344 34.773438 317.652344 33.019531 C 317.652344 30.285156 315.152344 27.496094 313.269531 25.503906 Z M 313.269531 18.859375 "/>
<path fill-rule="nonzero" fill="rgb(0%, 0%, 0%)" fill-opacity="1" d="M 332.71875 34.90625 C 334.472656 34.90625 335.585938 35.863281 335.585938 37.269531 C 335.585938 39.636719 332.585938 42.132812 329.796875 42.132812 C 328.042969 42.132812 326.925781 41.175781 326.925781 39.769531 C 326.925781 37.402344 329.929688 34.90625 332.71875 34.90625 Z M 332.71875 34.90625 "/>
<path fill-rule="nonzero" fill="rgb(0%, 0%, 0%)" fill-opacity="1" d="M 334.992188 15.273438 L 335.324219 15.273438 C 335.46875 15.273438 335.589844 15.394531 335.589844 15.539062 L 335.589844 37.019531 C 335.589844 37.164062 335.46875 37.285156 335.324219 37.285156 L 334.992188 37.285156 C 334.84375 37.285156 334.726562 37.164062 334.726562 37.019531 L 334.726562 15.539062 C 334.726562 15.394531 334.84375 15.273438 334.992188 15.273438 Z M 334.992188 15.273438 "/>
<path fill-rule="nonzero" fill="rgb(0%, 0%, 0%)" fill-opacity="1" d="M 367.859375 31.585938 C 369.613281 31.585938 370.730469 32.542969 370.730469 33.949219 C 370.730469 36.316406 367.726562 38.8125 364.9375 38.8125 C 363.183594 38.8125 362.070312 37.855469 362.070312 36.449219 C 362.070312 34.082031 365.070312 31.585938 367.859375 31.585938 Z M 367.859375 31.585938 "/>
<path fill-rule="nonzero" fill="rgb(0%, 0%, 0%)" fill-opacity="1" d="M 370.132812 11.953125 L 370.464844 11.953125 C 370.613281 11.953125 370.730469 12.074219 370.730469 12.21875 L 370.730469 33.695312 C 370.730469 33.84375 370.613281 33.960938 370.464844 33.960938 L 370.132812 33.960938 C 369.988281 33.960938 369.867188 33.84375 369.867188 33.695312 L 369.867188 12.21875 C 369.867188 12.074219 369.988281 11.953125 370.132812 11.953125 Z M 370.132812 11.953125 "/>
<path fill-rule="nonzero" fill="rgb(0%, 0%, 0%)" fill-opacity="1" d="M 370.730469 12.21875 L 370.730469 18.859375 L 370.304688 18.859375 L 370.304688 12.21875 Z M 370.730469 12.21875 C 370.730469 17.453125 376.230469 21.144531 376.230469 26.378906 C 376.230469 28.265625 375.832031 30.125 375.140625 31.878906 C 375.007812 32.089844 374.796875 32.195312 374.609375 32.195312 C 374.265625 32.195312 373.917969 31.90625 374 31.480469 C 374.6875 29.859375 375.113281 28.132812 375.113281 26.378906 C 375.113281 23.644531 372.617188 20.855469 370.730469 18.859375 Z M 370.730469 12.21875 "/>
<path fill-rule="nonzero" fill="rgb(0%, 0%, 0%)" fill-opacity="1" d="M 408.589844 30.152344 C 408.589844 29.539062 408.085938 29.0625 407.472656 29.0625 C 406.4375 29.0625 402.054688 31.984375 401.335938 32.859375 C 401.152344 33.074219 401.070312 33.339844 401.070312 33.605469 C 401.070312 34.214844 401.574219 34.695312 402.1875 34.695312 C 403.222656 34.695312 407.578125 31.773438 408.296875 30.894531 C 408.484375 30.683594 408.589844 30.417969 408.589844 30.152344 Z M 407.207031 28.265625 C 408.296875 28.265625 409.386719 28.636719 409.386719 30.152344 C 409.386719 30.84375 408.960938 33.125 407.421875 34.164062 C 406.757812 34.613281 405.109375 35.492188 402.453125 35.492188 C 401.363281 35.492188 400.246094 35.117188 400.246094 33.605469 C 400.246094 32.914062 400.671875 30.628906 402.214844 29.59375 C 402.878906 29.140625 404.550781 28.265625 407.207031 28.265625 Z M 407.207031 28.265625 "/>
<path fill-rule="nonzero" fill="rgb(0%, 0%, 0%)" fill-opacity="1" d="M 412.382812 28.558594 C 412.382812 27.734375 413.046875 27.070312 413.871094 27.070312 C 414.695312 27.070312 415.359375 27.734375 415.359375 28.558594 C 415.359375 29.382812 414.695312 30.046875 413.871094 30.046875 C 413.046875 30.046875 412.382812 29.382812 412.382812 28.558594 Z M 412.382812 28.558594 "/>
<path fill-rule="nonzero" fill="rgb(0%, 0%, 0%)" fill-opacity="1" d="M 408.796875 8.632812 L 409.128906 8.632812 C 409.277344 8.632812 409.394531 8.753906 409.394531 8.898438 L 409.394531 29.890625 C 409.394531 30.039062 409.277344 30.15625 409.128906 30.15625 L 408.796875 30.15625 C 408.652344 30.15625 408.53125 30.039062 408.53125 29.890625 L 408.53125 8.898438 C 408.53125 8.753906 408.652344 8.632812 408.796875 8.632812 Z M 408.796875 8.632812 "/>
<path fill-rule="nonzero" fill="rgb(0%, 0%, 0%)" fill-opacity="1" d="M 159.761719 63.601562 L 161.023438 63.601562 L 161.023438 90.164062 L 159.761719 90.164062 Z M 159.761719 63.601562 "/>
<path fill="none" stroke-width="0.1" stroke-linecap="round" stroke-linejoin="round" stroke="rgb(0%, 0%, 0%)" stroke-opacity="1" stroke-miterlimit="4" d="M 0.0502277 -0.000272536 L 68.236542 -0.000272536 " transform="matrix(6.64127, 0, 0, 6.64127, 5.912518, 90.165872)"/>
<path fill="none" stroke-width="0.1" stroke-linecap="round" stroke-linejoin="round" stroke="rgb(0%, 0%, 0%)" stroke-opacity="1" stroke-miterlimit="4" d="M 0.0502277 -0.00017536 L 68.236542 -0.00017536 " transform="matrix(6.64127, 0, 0, 6.64127, 5.912518, 83.524602)"/>
<path fill="none" stroke-width="0.1" stroke-linecap="round" stroke-linejoin="round" stroke="rgb(0%, 0%, 0%)" stroke-opacity="1" stroke-miterlimit="4" d="M 0.0502277 -0.0000781833 L 68.236542 -0.0000781833 " transform="matrix(6.64127, 0, 0, 6.64127, 5.912518, 76.883332)"/>
<path fill="none" stroke-width="0.1" stroke-linecap="round" stroke-linejoin="round" stroke="rgb(0%, 0%, 0%)" stroke-opacity="1" stroke-miterlimit="4" d="M 0.0502277 0.0000189933 L 68.236542 0.0000189933 " transform="matrix(6.64127, 0, 0, 6.64127, 5.912518, 70.242061)"/>
<path fill="none" stroke-width="0.1" stroke-linecap="round" stroke-linejoin="round" stroke="rgb(0%, 0%, 0%)" stroke-opacity="1" stroke-miterlimit="4" d="M 0.0502277 0.00011617 L 68.236542 0.00011617 " transform="matrix(6.64127, 0, 0, 6.64127, 5.912518, 63.600791)"/>
<path fill-rule="nonzero" fill="rgb(0%, 0%, 0%)" fill-opacity="1" d="M 455.4375 63.601562 L 459.421875 63.601562 L 459.421875 90.164062 L 455.4375 90.164062 Z M 455.4375 63.601562 "/>
<path fill-rule="nonzero" fill="rgb(0%, 0%, 0%)" fill-opacity="1" d="M 452.183594 63.601562 L 453.445312 63.601562 L 453.445312 90.164062 L 452.183594 90.164062 Z M 452.183594 63.601562 "/>
<path fill-rule="nonzero" fill="rgb(0%, 0%, 0%)" fill-opacity="1" d="M 389.316406 63.601562 L 390.578125 63.601562 L 390.578125 90.164062 L 389.316406 90.164062 Z M 389.316406 63.601562 "/>
<path fill-rule="nonzero" fill="rgb(0%, 0%, 0%)" fill-opacity="1" d="M 282.542969 63.601562 L 283.804688 63.601562 L 283.804688 90.164062 L 282.542969 90.164062 Z M 282.542969 63.601562 "/>
<path fill-rule="nonzero" fill="rgb(0%, 0%, 0%)" fill-opacity="1" d="M 402.527344 96.144531 L 414.921875 96.144531 C 415.289062 96.144531 415.585938 96.441406 415.585938 96.808594 C 415.585938 97.175781 415.289062 97.472656 414.921875 97.472656 L 402.527344 97.472656 C 402.164062 97.472656 401.863281 97.175781 401.863281 96.808594 C 401.863281 96.441406 402.164062 96.144531 402.527344 96.144531 Z M 402.527344 96.144531 "/>
<path fill-rule="nonzero" fill="rgb(0%, 0%, 0%)" fill-opacity="1" d="M 260.679688 96.144531 L 272.34375 96.144531 C 272.710938 96.144531 273.007812 96.441406 273.007812 96.808594 C 273.007812 97.175781 272.710938 97.472656 272.34375 97.472656 L 260.679688 97.472656 C 260.3125 97.472656 260.015625 97.175781 260.015625 96.808594 C 260.015625 96.441406 260.3125 96.144531 260.679688 96.144531 Z M 260.679688 96.144531 "/>
<path fill-rule="nonzero" fill="rgb(0%, 0%, 0%)" fill-opacity="1" d="M 241.5 96.144531 L 253.164062 96.144531 C 253.53125 96.144531 253.828125 96.441406 253.828125 96.808594 C 253.828125 97.175781 253.53125 97.472656 253.164062 97.472656 L 241.5 97.472656 C 241.136719 97.472656 240.835938 97.175781 240.835938 96.808594 C 240.835938 96.441406 241.136719 96.144531 241.5 96.144531 Z M 241.5 96.144531 "/>
<path fill-rule="nonzero" fill="rgb(0%, 0%, 0%)" fill-opacity="1" d="M 222.324219 96.144531 L 233.988281 96.144531 C 234.355469 96.144531 234.652344 96.441406 234.652344 96.808594 C 234.652344 97.175781 234.355469 97.472656 233.988281 97.472656 L 222.324219 97.472656 C 221.957031 97.472656 221.660156 97.175781 221.660156 96.808594 C 221.660156 96.441406 221.957031 96.144531 222.324219 96.144531 Z M 222.324219 96.144531 "/>
<path fill-rule="nonzero" fill="rgb(0%, 0%, 0%)" fill-opacity="1" d="M 229.617188 93.195312 C 231.371094 93.195312 232.484375 94.152344 232.484375 95.558594 C 232.484375 97.921875 229.484375 100.421875 226.695312 100.421875 C 224.941406 100.421875 223.824219 99.464844 223.824219 98.054688 C 223.824219 95.691406 226.828125 93.195312 229.617188 93.195312 Z M 229.617188 93.195312 "/>
<path fill-rule="nonzero" fill="rgb(0%, 0%, 0%)" fill-opacity="1" d="M 18.292969 100.394531 L 18.132812 100.394531 C 15.261719 100.394531 12.953125 98.054688 12.953125 95.160156 C 12.953125 93.621094 14.359375 92.425781 15.925781 92.425781 C 17.363281 92.425781 18.453125 93.671875 18.453125 95.160156 C 18.453125 96.542969 17.308594 97.683594 15.925781 97.683594 C 15.636719 97.683594 15.371094 97.628906 15.105469 97.523438 C 15.792969 98.558594 16.910156 99.25 18.210938 99.25 L 18.320312 99.25 Z M 23.472656 88.917969 C 25.277344 88.28125 26.472656 86.527344 26.472656 84.5625 C 26.472656 82.167969 24.71875 79.804688 21.878906 79.511719 C 22.382812 81.878906 23.152344 85.941406 23.472656 88.917969 Z M 13.191406 82.78125 C 13.191406 86.632812 16.9375 89.34375 20.203125 89.34375 C 20.230469 89.34375 21.453125 89.34375 22.382812 89.183594 C 22.195312 87.484375 21.613281 83.789062 20.710938 79.511719 C 18.609375 79.726562 17.414062 81.132812 17.414062 82.675781 C 17.414062 83.84375 18.078125 85.09375 19.566406 85.941406 C 19.699219 86.074219 19.753906 86.207031 19.753906 86.339844 C 19.753906 86.632812 19.488281 86.925781 19.167969 86.925781 C 18.769531 86.925781 15.820312 85.277344 15.820312 81.957031 C 15.820312 79.621094 17.363281 77.335938 20.070312 76.722656 C 19.699219 75.183594 19.300781 73.617188 18.851562 72.074219 C 16.007812 75.289062 13.191406 78.53125 13.191406 82.78125 Z M 17.867188 68.835938 C 17.097656 66.285156 16.484375 64.316406 16.484375 59.644531 C 16.484375 56.585938 17.945312 53.691406 20.445312 51.886719 C 20.601562 51.753906 20.816406 51.753906 20.976562 51.886719 C 22.78125 54.011719 24.507812 58.394531 24.507812 61.394531 C 24.507812 65.195312 22.222656 68.171875 19.726562 71.066406 C 20.285156 72.871094 20.761719 74.730469 21.214844 76.566406 C 21.265625 76.566406 21.398438 76.539062 21.558594 76.539062 C 25.675781 76.539062 28.359375 79.9375 28.359375 83.472656 C 28.359375 86.472656 26.394531 89.101562 23.578125 90.007812 C 23.65625 90.9375 23.710938 91.867188 23.710938 92.796875 C 23.710938 93.300781 23.683594 93.832031 23.65625 94.335938 C 23.472656 97.496094 21.320312 100.3125 18.292969 100.394531 L 18.320312 99.25 C 20.789062 99.199219 22.382812 96.808594 22.542969 94.175781 C 22.570312 93.699219 22.59375 93.195312 22.59375 92.714844 C 22.59375 91.894531 22.570312 91.09375 22.488281 90.273438 C 22.355469 90.296875 21.320312 90.484375 20.125 90.484375 C 14.996094 90.484375 11.277344 85.703125 11.277344 80.550781 C 11.277344 75.847656 14.757812 72.421875 17.867188 68.835938 Z M 22.59375 59.191406 C 22.59375 58.289062 22.621094 57.4375 22.0625 55.765625 C 19.433594 57.039062 17.761719 59.722656 17.761719 62.644531 C 17.761719 64.027344 18.078125 65.699219 18.71875 67.796875 C 20.84375 65.222656 22.59375 62.539062 22.59375 59.191406 Z M 22.59375 59.191406 "/>
<path fill-rule="nonzero" fill="rgb(0%, 0%, 0%)" fill-opacity="1" d="M 0.875 55.453125 C 1.105469 55.453125 1.390625 55.582031 1.730469 55.816406 C 2.066406 56.050781 2.351562 56.179688 2.535156 56.179688 C 2.972656 56.179688 3.335938 56 3.675781 55.609375 C 4.011719 55.21875 4.167969 54.753906 4.167969 54.207031 C 4.167969 53.222656 3.648438 52.523438 2.609375 52.082031 C 2.015625 51.847656 1.496094 51.71875 0.976562 51.71875 C 0.898438 51.71875 0.847656 51.71875 0.820312 51.71875 C 0.796875 51.71875 0.796875 51.691406 0.742188 51.664062 C 0.769531 51.640625 0.769531 51.613281 0.769531 51.589844 C 0.769531 51.5625 0.796875 51.535156 0.796875 51.535156 L 2.015625 48.8125 L 4.453125 48.8125 C 4.582031 48.8125 4.660156 48.785156 4.738281 48.761719 C 4.789062 48.707031 4.894531 48.628906 4.996094 48.527344 L 5.074219 48.605469 L 4.636719 49.640625 C 4.636719 49.695312 4.582031 49.695312 4.53125 49.71875 C 4.453125 49.71875 4.375 49.71875 4.296875 49.71875 L 2.117188 49.71875 L 1.625 50.730469 C 2.25 50.835938 2.6875 50.941406 2.972656 51.015625 C 3.441406 51.171875 3.855469 51.40625 4.167969 51.71875 C 4.425781 51.976562 4.636719 52.289062 4.789062 52.625 C 4.921875 52.964844 4.996094 53.328125 4.996094 53.691406 C 4.996094 54.519531 4.6875 55.21875 4.089844 55.765625 C 3.492188 56.335938 2.765625 56.621094 1.832031 56.621094 C 1.46875 56.621094 1.183594 56.570312 0.949219 56.515625 C 0.5625 56.386719 0.378906 56.179688 0.378906 55.867188 C 0.378906 55.765625 0.433594 55.660156 0.511719 55.582031 C 0.585938 55.503906 0.71875 55.453125 0.875 55.453125 Z M 0.015625 47.800781 "/>
<path fill-rule="nonzero" fill="rgb(0%, 0%, 0%)" fill-opacity="1" stroke-width="0.08" stroke-linecap="round" stroke-linejoin="round" stroke="rgb(0%, 0%, 0%)" stroke-opacity="1" stroke-miterlimit="4" d="M 5.864966 -0.200059 L 5.864966 0.199902 L 0.0402383 0.199902 L 0.0402383 -0.200059 Z M 5.864966 -0.200059 " transform="matrix(6.64127, 0, 0, 6.64127, 231.623392, 76.883332)"/>
<path fill-rule="nonzero" fill="rgb(0%, 0%, 0%)" fill-opacity="1" d="M 50.222656 69.949219 C 51.976562 69.949219 53.09375 70.90625 53.09375 72.3125 C 53.09375 74.679688 50.089844 77.175781 47.300781 77.175781 C 45.546875 77.175781 44.433594 76.21875 44.433594 74.8125 C 44.433594 72.445312 47.433594 69.949219 50.222656 69.949219 Z M 50.222656 69.949219 "/>
<path fill-rule="nonzero" fill="rgb(0%, 0%, 0%)" fill-opacity="1" d="M 44.699219 74.796875 L 45.03125 74.796875 C 45.175781 74.796875 45.296875 74.917969 45.296875 75.0625 L 45.296875 95.28125 C 45.296875 95.425781 45.175781 95.546875 45.03125 95.546875 L 44.699219 95.546875 C 44.550781 95.546875 44.433594 95.425781 44.433594 95.28125 L 44.433594 75.0625 C 44.433594 74.917969 44.550781 74.796875 44.699219 74.796875 Z M 44.699219 74.796875 "/>
<path fill-rule="nonzero" fill="rgb(0%, 0%, 0%)" fill-opacity="1" stroke-width="0.08" stroke-linecap="round" stroke-linejoin="round" stroke="rgb(0%, 0%, 0%)" stroke-opacity="1" stroke-miterlimit="4" d="M 5.8652 -0.199864 L 5.8652 0.200097 L 0.0398838 0.200097 L 0.0398838 -0.199864 Z M 5.8652 -0.199864 " transform="matrix(6.64127, 0, 0, 6.64127, 108.692152, 63.600791)"/>
<path fill-rule="nonzero" fill="rgb(0%, 0%, 0%)" fill-opacity="1" d="M 69.402344 69.949219 C 71.152344 69.949219 72.269531 70.90625 72.269531 72.3125 C 72.269531 74.679688 69.269531 77.175781 66.476562 77.175781 C 64.726562 77.175781 63.609375 76.21875 63.609375 74.8125 C 63.609375 72.445312 66.609375 69.949219 69.402344 69.949219 Z M 69.402344 69.949219 "/>
<path fill-rule="nonzero" fill="rgb(0%, 0%, 0%)" fill-opacity="1" d="M 63.875 74.796875 L 64.207031 74.796875 C 64.355469 74.796875 64.472656 74.917969 64.472656 75.0625 L 64.472656 95.28125 C 64.472656 95.425781 64.355469 95.546875 64.207031 95.546875 L 63.875 95.546875 C 63.726562 95.546875 63.609375 95.425781 63.609375 95.28125 L 63.609375 75.0625 C 63.609375 74.917969 63.726562 74.796875 63.875 74.796875 Z M 63.875 74.796875 "/>
<path fill-rule="nonzero" fill="rgb(0%, 0%, 0%)" fill-opacity="1" stroke-width="0.08" stroke-linecap="round" stroke-linejoin="round" stroke="rgb(0%, 0%, 0%)" stroke-opacity="1" stroke-miterlimit="4" d="M 5.864981 -0.199743 L 5.864981 0.200218 L 0.0402531 0.200218 L 0.0402531 -0.199743 Z M 5.864981 -0.199743 " transform="matrix(6.64127, 0, 0, 6.64127, 44.431887, 95.545298)"/>
<path fill-rule="nonzero" fill="rgb(0%, 0%, 0%)" fill-opacity="1" d="M 88.578125 69.949219 C 90.332031 69.949219 91.445312 70.90625 91.445312 72.3125 C 91.445312 74.679688 88.445312 77.175781 85.65625 77.175781 C 83.902344 77.175781 82.785156 76.21875 82.785156 74.8125 C 82.785156 72.445312 85.789062 69.949219 88.578125 69.949219 Z M 88.578125 69.949219 "/>
<path fill-rule="nonzero" fill="rgb(0%, 0%, 0%)" fill-opacity="1" d="M 83.050781 74.796875 L 83.382812 74.796875 C 83.53125 74.796875 83.648438 74.917969 83.648438 75.0625 L 83.648438 95.28125 C 83.648438 95.425781 83.53125 95.546875 83.382812 95.546875 L 83.050781 95.546875 C 82.90625 95.546875 82.785156 95.425781 82.785156 95.28125 L 82.785156 75.0625 C 82.785156 74.917969 82.90625 74.796875 83.050781 74.796875 Z M 83.050781 74.796875 "/>
<path fill-rule="nonzero" fill="rgb(0%, 0%, 0%)" fill-opacity="1" d="M 106.683594 79.910156 C 108.4375 79.910156 109.554688 80.867188 109.554688 82.277344 C 109.554688 84.640625 106.550781 87.136719 103.761719 87.136719 C 102.007812 87.136719 100.894531 86.179688 100.894531 84.773438 C 100.894531 82.410156 103.894531 79.910156 106.683594 79.910156 Z M 106.683594 79.910156 "/>
<path fill-rule="nonzero" fill="rgb(0%, 0%, 0%)" fill-opacity="1" d="M 108.957031 63.601562 L 109.289062 63.601562 C 109.4375 63.601562 109.554688 63.71875 109.554688 63.867188 L 109.554688 82.023438 C 109.554688 82.167969 109.4375 82.289062 109.289062 82.289062 L 108.957031 82.289062 C 108.8125 82.289062 108.691406 82.167969 108.691406 82.023438 L 108.691406 63.867188 C 108.691406 63.71875 108.8125 63.601562 108.957031 63.601562 Z M 108.957031 63.601562 "/>
<path fill-rule="nonzero" fill="rgb(0%, 0%, 0%)" fill-opacity="1" d="M 125.863281 79.910156 C 127.613281 79.910156 128.730469 80.867188 128.730469 82.277344 C 128.730469 84.640625 125.730469 87.136719 122.941406 87.136719 C 121.1875 87.136719 120.070312 86.179688 120.070312 84.773438 C 120.070312 82.410156 123.074219 79.910156 125.863281 79.910156 Z M 125.863281 79.910156 "/>
<path fill-rule="nonzero" fill="rgb(0%, 0%, 0%)" fill-opacity="1" d="M 128.132812 63.601562 L 128.464844 63.601562 C 128.613281 63.601562 128.730469 63.71875 128.730469 63.867188 L 128.730469 82.023438 C 128.730469 82.167969 128.613281 82.289062 128.464844 82.289062 L 128.132812 82.289062 C 127.988281 82.289062 127.867188 82.167969 127.867188 82.023438 L 127.867188 63.867188 C 127.867188 63.71875 127.988281 63.601562 128.132812 63.601562 Z M 128.132812 63.601562 "/>
<path fill-rule="nonzero" fill="rgb(0%, 0%, 0%)" fill-opacity="1" d="M 145.039062 79.910156 C 146.792969 79.910156 147.90625 80.867188 147.90625 82.277344 C 147.90625 84.640625 144.90625 87.136719 142.117188 87.136719 C 140.363281 87.136719 139.246094 86.179688 139.246094 84.773438 C 139.246094 82.410156 142.25 79.910156 145.039062 79.910156 Z M 145.039062 79.910156 "/>
<path fill-rule="nonzero" fill="rgb(0%, 0%, 0%)" fill-opacity="1" d="M 147.3125 63.601562 L 147.644531 63.601562 C 147.789062 63.601562 147.910156 63.71875 147.910156 63.867188 L 147.910156 82.023438 C 147.910156 82.167969 147.789062 82.289062 147.644531 82.289062 L 147.3125 82.289062 C 147.164062 82.289062 147.046875 82.167969 147.046875 82.023438 L 147.046875 63.867188 C 147.046875 63.71875 147.164062 63.601562 147.3125 63.601562 Z M 147.3125 63.601562 "/>
<path fill-rule="nonzero" fill="rgb(0%, 0%, 0%)" fill-opacity="1" d="M 173.746094 86.554688 C 175.5 86.554688 176.613281 87.507812 176.613281 88.917969 C 176.613281 91.28125 173.613281 93.777344 170.824219 93.777344 C 169.070312 93.777344 167.953125 92.824219 167.953125 91.414062 C 167.953125 89.050781 170.957031 86.554688 173.746094 86.554688 Z M 173.746094 86.554688 "/>
<path fill-rule="nonzero" fill="rgb(0%, 0%, 0%)" fill-opacity="1" d="M 176.019531 70.242188 L 176.351562 70.242188 C 176.496094 70.242188 176.617188 70.359375 176.617188 70.507812 L 176.617188 88.664062 C 176.617188 88.8125 176.496094 88.929688 176.351562 88.929688 L 176.019531 88.929688 C 175.871094 88.929688 175.753906 88.8125 175.753906 88.664062 L 175.753906 70.507812 C 175.753906 70.359375 175.871094 70.242188 176.019531 70.242188 Z M 176.019531 70.242188 "/>
<path fill-rule="nonzero" fill="rgb(0%, 0%, 0%)" fill-opacity="1" d="M 192.921875 86.554688 C 194.675781 86.554688 195.792969 87.507812 195.792969 88.917969 C 195.792969 91.28125 192.789062 93.777344 190 93.777344 C 188.246094 93.777344 187.132812 92.824219 187.132812 91.414062 C 187.132812 89.050781 190.132812 86.554688 192.921875 86.554688 Z M 192.921875 86.554688 "/>
<path fill-rule="nonzero" fill="rgb(0%, 0%, 0%)" fill-opacity="1" d="M 195.195312 70.242188 L 195.527344 70.242188 C 195.675781 70.242188 195.792969 70.359375 195.792969 70.507812 L 195.792969 88.664062 C 195.792969 88.8125 195.675781 88.929688 195.527344 88.929688 L 195.195312 88.929688 C 195.046875 88.929688 194.929688 88.8125 194.929688 88.664062 L 194.929688 70.507812 C 194.929688 70.359375 195.046875 70.242188 195.195312 70.242188 Z M 195.195312 70.242188 "/>
<path fill-rule="nonzero" fill="rgb(0%, 0%, 0%)" fill-opacity="1" d="M 212.097656 86.554688 C 213.851562 86.554688 214.96875 87.507812 214.96875 88.917969 C 214.96875 91.28125 211.964844 93.777344 209.175781 93.777344 C 207.425781 93.777344 206.308594 92.824219 206.308594 91.414062 C 206.308594 89.050781 209.308594 86.554688 212.097656 86.554688 Z M 212.097656 86.554688 "/>
<path fill-rule="nonzero" fill="rgb(0%, 0%, 0%)" fill-opacity="1" d="M 214.371094 70.242188 L 214.703125 70.242188 C 214.851562 70.242188 214.96875 70.359375 214.96875 70.507812 L 214.96875 88.664062 C 214.96875 88.8125 214.851562 88.929688 214.703125 88.929688 L 214.371094 88.929688 C 214.226562 88.929688 214.105469 88.8125 214.105469 88.664062 L 214.105469 70.507812 C 214.105469 70.359375 214.226562 70.242188 214.371094 70.242188 Z M 214.371094 70.242188 "/>
<path fill-rule="nonzero" fill="rgb(0%, 0%, 0%)" fill-opacity="1" stroke-width="0.08" stroke-linecap="round" stroke-linejoin="round" stroke="rgb(0%, 0%, 0%)" stroke-opacity="1" stroke-miterlimit="4" d="M 5.864953 -0.199962 L 5.864953 0.2 L 0.0402252 0.2 L 0.0402252 -0.199962 Z M 5.864953 -0.199962 " transform="matrix(6.64127, 0, 0, 6.64127, 175.752385, 70.242061)"/>
<path fill-rule="nonzero" fill="rgb(0%, 0%, 0%)" fill-opacity="1" d="M 231.890625 76.882812 L 232.222656 76.882812 C 232.367188 76.882812 232.488281 77.003906 232.488281 77.148438 L 232.488281 95.304688 C 232.488281 95.453125 232.367188 95.570312 232.222656 95.570312 L 231.890625 95.570312 C 231.742188 95.570312 231.625 95.453125 231.625 95.304688 L 231.625 77.148438 C 231.625 77.003906 231.742188 76.882812 231.890625 76.882812 Z M 231.890625 76.882812 "/>
<path fill-rule="nonzero" fill="rgb(0%, 0%, 0%)" fill-opacity="1" d="M 248.792969 93.195312 C 250.546875 93.195312 251.664062 94.152344 251.664062 95.558594 C 251.664062 97.921875 248.660156 100.421875 245.871094 100.421875 C 244.117188 100.421875 243.003906 99.464844 243.003906 98.054688 C 243.003906 95.691406 246.003906 93.195312 248.792969 93.195312 Z M 248.792969 93.195312 "/>
<path fill-rule="nonzero" fill="rgb(0%, 0%, 0%)" fill-opacity="1" d="M 251.066406 76.882812 L 251.398438 76.882812 C 251.546875 76.882812 251.664062 77.003906 251.664062 77.148438 L 251.664062 95.304688 C 251.664062 95.453125 251.546875 95.570312 251.398438 95.570312 L 251.066406 95.570312 C 250.917969 95.570312 250.800781 95.453125 250.800781 95.304688 L 250.800781 77.148438 C 250.800781 77.003906 250.917969 76.882812 251.066406 76.882812 Z M 251.066406 76.882812 "/>
<path fill-rule="nonzero" fill="rgb(0%, 0%, 0%)" fill-opacity="1" d="M 267.972656 93.195312 C 269.722656 93.195312 270.839844 94.152344 270.839844 95.558594 C 270.839844 97.921875 267.839844 100.421875 265.050781 100.421875 C 263.296875 100.421875 262.179688 99.464844 262.179688 98.054688 C 262.179688 95.691406 265.183594 93.195312 267.972656 93.195312 Z M 267.972656 93.195312 "/>
<path fill-rule="nonzero" fill="rgb(0%, 0%, 0%)" fill-opacity="1" d="M 270.242188 76.882812 L 270.574219 76.882812 C 270.722656 76.882812 270.839844 77.003906 270.839844 77.148438 L 270.839844 95.304688 C 270.839844 95.453125 270.722656 95.570312 270.574219 95.570312 L 270.242188 95.570312 C 270.097656 95.570312 269.976562 95.453125 269.976562 95.304688 L 269.976562 77.148438 C 269.976562 77.003906 270.097656 76.882812 270.242188 76.882812 Z M 270.242188 76.882812 "/>
<path fill-rule="nonzero" fill="rgb(0%, 0%, 0%)" fill-opacity="1" d="M 296.527344 79.910156 C 298.28125 79.910156 299.398438 80.867188 299.398438 82.277344 C 299.398438 84.640625 296.394531 87.136719 293.605469 87.136719 C 291.851562 87.136719 290.738281 86.179688 290.738281 84.773438 C 290.738281 82.410156 293.738281 79.910156 296.527344 79.910156 Z M 296.527344 79.910156 "/>
<path fill-rule="nonzero" fill="rgb(0%, 0%, 0%)" fill-opacity="1" d="M 298.800781 60.28125 L 299.132812 60.28125 C 299.28125 60.28125 299.398438 60.398438 299.398438 60.546875 L 299.398438 82.023438 C 299.398438 82.167969 299.28125 82.289062 299.132812 82.289062 L 298.800781 82.289062 C 298.652344 82.289062 298.535156 82.167969 298.535156 82.023438 L 298.535156 60.546875 C 298.535156 60.398438 298.652344 60.28125 298.800781 60.28125 Z M 298.800781 60.28125 "/>
<path fill-rule="nonzero" fill="rgb(0%, 0%, 0%)" fill-opacity="1" d="M 326.222656 83.230469 C 327.972656 83.230469 329.089844 84.1875 329.089844 85.597656 C 329.089844 87.960938 326.089844 90.457031 323.300781 90.457031 C 321.546875 90.457031 320.429688 89.5 320.429688 88.09375 C 320.429688 85.730469 323.433594 83.230469 326.222656 83.230469 Z M 326.222656 83.230469 "/>
<path fill-rule="nonzero" fill="rgb(0%, 0%, 0%)" fill-opacity="1" d="M 328.492188 63.601562 L 328.824219 63.601562 C 328.972656 63.601562 329.089844 63.71875 329.089844 63.867188 L 329.089844 85.34375 C 329.089844 85.492188 328.972656 85.609375 328.824219 85.609375 L 328.492188 85.609375 C 328.347656 85.609375 328.226562 85.492188 328.226562 85.34375 L 328.226562 63.867188 C 328.226562 63.71875 328.347656 63.601562 328.492188 63.601562 Z M 328.492188 63.601562 "/>
<path fill-rule="nonzero" fill="rgb(0%, 0%, 0%)" fill-opacity="1" d="M 329.089844 63.867188 L 329.089844 70.507812 L 328.667969 70.507812 L 328.667969 63.867188 Z M 329.089844 63.867188 C 329.089844 69.101562 334.589844 72.792969 334.589844 78.027344 C 334.589844 79.910156 334.191406 81.769531 333.5 83.523438 C 333.367188 83.738281 333.15625 83.84375 332.96875 83.84375 C 332.625 83.84375 332.277344 83.550781 332.359375 83.125 C 333.050781 81.503906 333.472656 79.777344 333.472656 78.027344 C 333.472656 75.289062 330.976562 72.5 329.089844 70.507812 Z M 329.089844 63.867188 "/>
<path fill-rule="nonzero" fill="rgb(0%, 0%, 0%)" fill-opacity="1" d="M 345.816406 86.554688 C 347.570312 86.554688 348.6875 87.507812 348.6875 88.917969 C 348.6875 91.28125 345.683594 93.777344 342.894531 93.777344 C 341.144531 93.777344 340.027344 92.824219 340.027344 91.414062 C 340.027344 89.050781 343.027344 86.554688 345.816406 86.554688 Z M 345.816406 86.554688 "/>
<path fill-rule="nonzero" fill="rgb(0%, 0%, 0%)" fill-opacity="1" d="M 348.089844 66.921875 L 348.421875 66.921875 C 348.570312 66.921875 348.6875 67.039062 348.6875 67.1875 L 348.6875 88.664062 C 348.6875 88.8125 348.570312 88.929688 348.421875 88.929688 L 348.089844 88.929688 C 347.945312 88.929688 347.824219 88.8125 347.824219 88.664062 L 347.824219 67.1875 C 347.824219 67.039062 347.945312 66.921875 348.089844 66.921875 Z M 348.089844 66.921875 "/>
<path fill-rule="nonzero" fill="rgb(0%, 0%, 0%)" fill-opacity="1" d="M 375.511719 89.875 C 377.265625 89.875 378.378906 90.828125 378.378906 92.238281 C 378.378906 94.601562 375.378906 97.097656 372.589844 97.097656 C 370.835938 97.097656 369.71875 96.144531 369.71875 94.734375 C 369.71875 92.371094 372.722656 89.875 375.511719 89.875 Z M 375.511719 89.875 "/>
<path fill-rule="nonzero" fill="rgb(0%, 0%, 0%)" fill-opacity="1" d="M 377.785156 70.242188 L 378.117188 70.242188 C 378.261719 70.242188 378.382812 70.359375 378.382812 70.507812 L 378.382812 91.984375 C 378.382812 92.132812 378.261719 92.25 378.117188 92.25 L 377.785156 92.25 C 377.636719 92.25 377.519531 92.132812 377.519531 91.984375 L 377.519531 70.507812 C 377.519531 70.359375 377.636719 70.242188 377.785156 70.242188 Z M 377.785156 70.242188 "/>
<path fill-rule="nonzero" fill="rgb(0%, 0%, 0%)" fill-opacity="1" d="M 378.382812 70.507812 L 378.382812 77.148438 L 377.957031 77.148438 L 377.957031 70.507812 Z M 378.382812 70.507812 C 378.382812 75.742188 383.878906 79.433594 383.878906 84.667969 C 383.878906 86.554688 383.480469 88.414062 382.792969 90.164062 C 382.660156 90.378906 382.445312 90.484375 382.261719 90.484375 C 381.914062 90.484375 381.570312 90.191406 381.648438 89.765625 C 382.339844 88.148438 382.765625 86.421875 382.765625 84.667969 C 382.765625 81.929688 380.269531 79.140625 378.382812 77.148438 Z M 378.382812 70.507812 "/>
<path fill-rule="nonzero" fill="rgb(0%, 0%, 0%)" fill-opacity="1" d="M 412.492188 95.082031 C 412.492188 94.46875 411.988281 93.992188 411.378906 93.992188 C 410.34375 93.992188 405.957031 96.914062 405.242188 97.789062 C 405.054688 98.003906 404.976562 98.269531 404.976562 98.535156 C 404.976562 99.144531 405.480469 99.621094 406.089844 99.621094 C 407.128906 99.621094 411.484375 96.699219 412.203125 95.824219 C 412.386719 95.613281 412.492188 95.347656 412.492188 95.082031 Z M 411.113281 93.195312 C 412.203125 93.195312 413.289062 93.566406 413.289062 95.082031 C 413.289062 95.769531 412.867188 98.054688 411.324219 99.089844 C 410.660156 99.542969 409.015625 100.421875 406.355469 100.421875 C 405.269531 100.421875 404.152344 100.046875 404.152344 98.535156 C 404.152344 97.84375 404.578125 95.558594 406.117188 94.523438 C 406.78125 94.070312 408.457031 93.195312 411.113281 93.195312 Z M 411.113281 93.195312 "/>
<path fill-rule="nonzero" fill="rgb(0%, 0%, 0%)" fill-opacity="1" d="M 416.289062 93.488281 C 416.289062 92.664062 416.953125 92 417.777344 92 C 418.597656 92 419.261719 92.664062 419.261719 93.488281 C 419.261719 94.308594 418.597656 94.972656 417.777344 94.972656 C 416.953125 94.972656 416.289062 94.308594 416.289062 93.488281 Z M 416.289062 93.488281 "/>
<path fill-rule="nonzero" fill="rgb(0%, 0%, 0%)" fill-opacity="1" d="M 412.703125 73.5625 L 413.035156 73.5625 C 413.179688 73.5625 413.300781 73.679688 413.300781 73.828125 L 413.300781 94.820312 C 413.300781 94.96875 413.179688 95.085938 413.035156 95.085938 L 412.703125 95.085938 C 412.554688 95.085938 412.4375 94.96875 412.4375 94.820312 L 412.4375 73.828125 C 412.4375 73.679688 412.554688 73.5625 412.703125 73.5625 Z M 412.703125 73.5625 "/>
</svg>
