<?xml version="1.0" encoding="UTF-8"?>
<svg xmlns="http://www.w3.org/2000/svg" xmlns:xlink="http://www.w3.org/1999/xlink" width="459.439361" height="175.974808" viewBox="0 0 459.439361 175.974808">
<rect x="-45.943936" y="-17.597481" width="551.327233" height="211.16977" fill="rgb(100%, 100%, 100%)" fill-opacity="1"/>
<path fill-rule="nonzero" fill="rgb(0%, 0%, 0%)" fill-opacity="1" d="M 163.148438 22.828125 L 164.410156 22.828125 L 164.410156 49.394531 L 163.148438 49.394531 Z M 163.148438 22.828125 "/>
<path fill-rule="nonzero" fill="rgb(0%, 0%, 0%)" fill-opacity="1" d="M 419.570312 55.371094 L 431.964844 55.371094 C 432.332031 55.371094 432.628906 55.667969 432.628906 56.035156 C 432.628906 56.402344 432.332031 56.699219 431.964844 56.699219 L 419.570312 56.699219 C 419.207031 56.699219 418.90625 56.402344 418.90625 56.035156 C 418.90625 55.667969 419.207031 55.371094 419.570312 55.371094 Z M 419.570312 55.371094 "/>
<path fill-rule="nonzero" fill="rgb(0%, 0%, 0%)" fill-opacity="1" d="M 85.820312 55.371094 L 97.488281 55.371094 C 97.851562 55.371094 98.152344 55.667969 98.152344 56.035156 C 98.152344 56.402344 97.851562 56.699219 97.488281 56.699219 L 85.820312 56.699219 C 85.453125 56.699219 85.15625 56.402344 85.15625 56.035156 C 85.15625 55.667969 85.453125 55.371094 85.820312 55.371094 Z M 85.820312 55.371094 "/>
<path fill-rule="nonzero" fill="rgb(0%, 0%, 0%)" fill-opacity="1" d="M 61.546875 55.371094 L 73.210938 55.371094 C 73.578125 55.371094 73.875 55.667969 73.875 56.035156 C 73.875 56.402344 73.578125 56.699219 73.210938 56.699219 L 61.546875 56.699219 C 61.179688 56.699219 60.882812 56.402344 60.882812 56.035156 C 60.882812 55.667969 61.179688 55.371094 61.546875 55.371094 Z M 61.546875 55.371094 "/>
<path fill="none" stroke-width="0.1" stroke-linecap="round" stroke-linejoin="round" stroke="rgb(0%, 0%, 0%)" stroke-opacity="1" stroke-miterlimit="4" d="M 0.0497863 -0.0000362265 L 68.23633 -0.0000362265 " transform="matrix(6.641764, 0, 0, 6.641764, 5.895894, 49.394772)"/>
<path fill="none" stroke-width="0.1" stroke-linecap="round" stroke-linejoin="round" stroke="rgb(0%, 0%, 0%)" stroke-opacity="1" stroke-miterlimit="4" d="M 0.0497863 0.000135216 L 68.23633 0.000135216 " transform="matrix(6.641764, 0, 0, 6.641764, 5.895894, 42.753008)"/>
<path fill="none" stroke-width="0.1" stroke-linecap="round" stroke-linejoin="round" stroke="rgb(0%, 0%, 0%)" stroke-opacity="1" stroke-miterlimit="4" d="M 0.0497863 -0.000281357 L 68.23633 -0.000281357 " transform="matrix(6.641764, 0, 0, 6.641764, 5.895894, 36.111244)"/>
<path fill="none" stroke-width="0.1" stroke-linecap="round" stroke-linejoin="round" stroke="rgb(0%, 0%, 0%)" stroke-opacity="1" stroke-miterlimit="4" d="M 0.0497863 -0.000109915 L 68.23633 -0.000109915 " transform="matrix(6.641764, 0, 0, 6.641764, 5.895894, 29.46948)"/>
<path fill="none" stroke-width="0.1" stroke-linecap="round" stroke-linejoin="round" stroke="rgb(0%, 0%, 0%)" stroke-opacity="1" stroke-miterlimit="4" d="M 0.0497863 0.0000615121 L 68.23633 0.0000615121 " transform="matrix(6.641764, 0, 0, 6.641764, 5.895894, 22.827716)"/>
<path fill-rule="nonzero" fill="rgb(0%, 0%, 0%)" fill-opacity="1" d="M 458.175781 22.828125 L 459.4375 22.828125 L 459.4375 49.394531 L 458.175781 49.394531 Z M 458.175781 22.828125 "/>
<path fill-rule="nonzero" fill="rgb(0%, 0%, 0%)" fill-opacity="1" d="M 364.253906 22.828125 L 365.515625 22.828125 L 365.515625 49.394531 L 364.253906 49.394531 Z M 364.253906 22.828125 "/>
<path fill-rule="nonzero" fill="rgb(0%, 0%, 0%)" fill-opacity="1" d="M 257.1875 22.828125 L 258.449219 22.828125 L 258.449219 49.394531 L 257.1875 49.394531 Z M 257.1875 22.828125 "/>
<path fill-rule="nonzero" fill="rgb(0%, 0%, 0%)" fill-opacity="1" d="M 69.609375 0.0742188 C 71.191406 0.0742188 72.414062 0.488281 73.292969 1.320312 C 74.175781 2.148438 74.644531 3.085938 74.746094 4.148438 L 73.113281 4.148438 C 72.90625 3.34375 72.542969 2.695312 71.996094 2.226562 C 71.425781 1.761719 70.648438 1.527344 69.636719 1.527344 C 68.417969 1.527344 67.429688 1.96875 66.652344 2.824219 C 65.898438 3.679688 65.535156 5.003906 65.535156 6.792969 C 65.535156 8.246094 65.875 9.441406 66.546875 10.347656 C 67.222656 11.257812 68.261719 11.699219 69.609375 11.699219 C 70.855469 11.699219 71.789062 11.230469 72.4375 10.269531 C 72.800781 9.777344 73.0625 9.101562 73.214844 8.273438 L 74.875 8.273438 C 74.722656 9.597656 74.226562 10.6875 73.398438 11.59375 C 72.414062 12.65625 71.089844 13.175781 69.402344 13.175781 C 67.949219 13.175781 66.730469 12.761719 65.746094 11.878906 C 64.449219 10.710938 63.796875 8.921875 63.796875 6.507812 C 63.796875 4.667969 64.292969 3.160156 65.277344 1.96875 C 66.316406 0.695312 67.769531 0.0742188 69.609375 0.0742188 Z M 63.046875 -0.523438 "/>
<path fill-rule="nonzero" fill="rgb(0%, 0%, 0%)" fill-opacity="1" d="M 68.839844 52.421875 C 70.589844 52.421875 71.707031 53.378906 71.707031 54.789062 C 71.707031 57.152344 68.703125 59.648438 65.914062 59.648438 C 64.160156 59.648438 63.046875 58.691406 63.046875 57.285156 C 63.046875 54.921875 66.046875 52.421875 68.839844 52.421875 Z M 68.839844 52.421875 "/>
<path fill-rule="nonzero" fill="rgb(0%, 0%, 0%)" fill-opacity="1" d="M 18.277344 59.625 L 18.117188 59.625 C 15.246094 59.625 12.9375 57.285156 12.9375 54.390625 C 12.9375 52.847656 14.34375 51.652344 15.910156 51.652344 C 17.347656 51.652344 18.433594 52.902344 18.433594 54.390625 C 18.433594 55.769531 17.292969 56.914062 15.910156 56.914062 C 15.621094 56.914062 15.355469 56.859375 15.089844 56.753906 C 15.777344 57.789062 16.894531 58.480469 18.195312 58.480469 L 18.300781 58.480469 Z M 23.457031 48.144531 C 25.261719 47.507812 26.457031 45.753906 26.457031 43.789062 C 26.457031 41.398438 24.707031 39.035156 21.863281 38.742188 C 22.367188 41.105469 23.136719 45.171875 23.457031 48.144531 Z M 13.175781 42.007812 C 13.175781 45.863281 16.921875 48.570312 20.1875 48.570312 C 20.214844 48.570312 21.4375 48.570312 22.367188 48.410156 C 22.179688 46.710938 21.597656 43.019531 20.695312 38.742188 C 18.59375 38.953125 17.398438 40.363281 17.398438 41.902344 C 17.398438 43.070312 18.0625 44.320312 19.550781 45.171875 C 19.683594 45.304688 19.738281 45.4375 19.738281 45.570312 C 19.738281 45.863281 19.472656 46.152344 19.152344 46.152344 C 18.753906 46.152344 15.804688 44.507812 15.804688 41.1875 C 15.804688 38.847656 17.347656 36.5625 20.054688 35.953125 C 19.683594 34.410156 19.285156 32.84375 18.835938 31.300781 C 15.992188 34.515625 13.175781 37.757812 13.175781 42.007812 Z M 17.851562 28.0625 C 17.082031 25.511719 16.46875 23.546875 16.46875 18.871094 C 16.46875 15.8125 17.929688 12.917969 20.429688 11.113281 C 20.585938 10.980469 20.800781 10.980469 20.960938 11.113281 C 22.765625 13.238281 24.492188 17.621094 24.492188 20.621094 C 24.492188 24.421875 22.207031 27.398438 19.710938 30.292969 C 20.269531 32.101562 20.746094 33.960938 21.199219 35.792969 C 21.25 35.792969 21.382812 35.765625 21.542969 35.765625 C 25.660156 35.765625 28.34375 39.167969 28.34375 42.699219 C 28.34375 45.703125 26.378906 48.332031 23.5625 49.234375 C 23.644531 50.164062 23.695312 51.09375 23.695312 52.023438 C 23.695312 52.53125 23.667969 53.0625 23.644531 53.566406 C 23.457031 56.726562 21.304688 59.542969 18.277344 59.625 L 18.300781 58.480469 C 20.773438 58.425781 22.367188 56.035156 22.527344 53.40625 C 22.554688 52.929688 22.578125 52.421875 22.578125 51.945312 C 22.578125 51.121094 22.554688 50.324219 22.472656 49.5 C 22.339844 49.527344 21.304688 49.714844 20.109375 49.714844 C 14.980469 49.714844 11.261719 44.929688 11.261719 39.777344 C 11.261719 35.074219 14.742188 31.648438 17.851562 28.0625 Z M 22.578125 18.417969 C 22.578125 17.515625 22.605469 16.664062 22.046875 14.992188 C 19.417969 16.265625 17.746094 18.949219 17.746094 21.871094 C 17.746094 23.253906 18.0625 24.925781 18.703125 27.023438 C 20.828125 24.449219 22.578125 21.765625 22.578125 18.417969 Z M 22.578125 18.417969 "/>
<path fill-rule="nonzero" fill="rgb(0%, 0%, 0%)" fill-opacity="1" d="M 44.3125 33.003906 L 47.421875 33.003906 C 47.421875 34.277344 48.136719 35.5 49.332031 35.5 C 49.546875 35.5 49.652344 35.632812 49.652344 35.792969 C 49.652344 35.953125 49.546875 36.109375 49.332031 36.109375 C 48.164062 36.109375 47.023438 35.765625 45.851562 35.765625 C 44.683594 35.765625 43.542969 36.109375 42.371094 36.109375 C 42.160156 36.109375 42.054688 35.953125 42.054688 35.792969 C 42.054688 35.632812 42.160156 35.5 42.371094 35.5 C 43.566406 35.5 44.3125 34.277344 44.3125 33.003906 Z M 39.050781 32.179688 C 39.050781 31.859375 42.769531 28.378906 42.769531 23.253906 C 42.769531 22.988281 42.957031 22.746094 43.195312 22.828125 C 43.808594 23.015625 44.445312 23.171875 45.082031 23.171875 C 45.71875 23.171875 46.359375 23.015625 46.96875 22.828125 C 47.339844 22.722656 47.578125 23.066406 47.421875 23.253906 L 39.875 32.019531 L 44.3125 32.019531 L 44.3125 28.539062 C 44.3125 27.636719 45.214844 27.824219 46.117188 26.625 C 46.703125 25.828125 46.730469 25.140625 47.074219 25.140625 C 47.234375 25.140625 47.421875 25.273438 47.421875 25.511719 L 47.421875 32.019531 L 49.332031 32.019531 C 49.597656 32.019531 49.730469 32.207031 49.730469 32.390625 C 49.730469 32.578125 49.597656 32.789062 49.332031 32.789062 L 47.421875 32.789062 L 47.421875 33.003906 L 44.3125 33.003906 L 44.3125 32.789062 L 39.875 32.789062 C 39.265625 32.789062 39.050781 32.417969 39.050781 32.179688 Z M 39.050781 32.179688 "/>
<path fill-rule="nonzero" fill="rgb(0%, 0%, 0%)" fill-opacity="1" d="M 44.3125 46.394531 L 47.421875 46.394531 C 47.421875 47.667969 48.136719 48.890625 49.332031 48.890625 C 49.546875 48.890625 49.652344 49.023438 49.652344 49.183594 C 49.652344 49.339844 49.546875 49.5 49.332031 49.5 C 48.164062 49.5 47.023438 49.15625 45.851562 49.15625 C 44.683594 49.15625 43.542969 49.5 42.371094 49.5 C 42.160156 49.5 42.054688 49.339844 42.054688 49.183594 C 42.054688 49.023438 42.160156 48.890625 42.371094 48.890625 C 43.566406 48.890625 44.3125 47.667969 44.3125 46.394531 Z M 39.050781 45.570312 C 39.050781 45.25 42.769531 41.769531 42.769531 36.644531 C 42.769531 36.375 42.957031 36.136719 43.195312 36.21875 C 43.808594 36.402344 44.445312 36.5625 45.082031 36.5625 C 45.71875 36.5625 46.359375 36.402344 46.96875 36.21875 C 47.339844 36.109375 47.578125 36.457031 47.421875 36.644531 L 39.875 45.410156 L 44.3125 45.410156 L 44.3125 41.929688 C 44.3125 41.027344 45.214844 41.210938 46.117188 40.015625 C 46.703125 39.21875 46.730469 38.527344 47.074219 38.527344 C 47.234375 38.527344 47.421875 38.660156 47.421875 38.902344 L 47.421875 45.410156 L 49.332031 45.410156 C 49.597656 45.410156 49.730469 45.59375 49.730469 45.78125 C 49.730469 45.96875 49.597656 46.179688 49.332031 46.179688 L 47.421875 46.179688 L 47.421875 46.394531 L 44.3125 46.394531 L 44.3125 46.179688 L 39.875 46.179688 C 39.265625 46.179688 39.050781 45.808594 39.050781 45.570312 Z M 39.050781 45.570312 "/>
<path fill-rule="nonzero" fill="rgb(0%, 0%, 0%)" fill-opacity="1" d="M 71.109375 32.789062 L 71.441406 32.789062 C 71.589844 32.789062 71.707031 32.910156 71.707031 33.054688 L 71.707031 54.535156 C 71.707031 54.679688 71.589844 54.800781 71.441406 54.800781 L 71.109375 54.800781 C 70.964844 54.800781 70.84375 54.679688 70.84375 54.535156 L 70.84375 33.054688 C 70.84375 32.910156 70.964844 32.789062 71.109375 32.789062 Z M 71.109375 32.789062 "/>
<path fill-rule="nonzero" fill="rgb(0%, 0%, 0%)" fill-opacity="1" d="M 93.113281 52.421875 C 94.867188 52.421875 95.984375 53.378906 95.984375 54.789062 C 95.984375 57.152344 92.980469 59.648438 90.191406 59.648438 C 88.4375 59.648438 87.324219 58.691406 87.324219 57.285156 C 87.324219 54.921875 90.324219 52.421875 93.113281 52.421875 Z M 93.113281 52.421875 "/>
<path fill-rule="nonzero" fill="rgb(0%, 0%, 0%)" fill-opacity="1" d="M 95.386719 32.789062 L 95.71875 32.789062 C 95.867188 32.789062 95.984375 32.910156 95.984375 33.054688 L 95.984375 54.535156 C 95.984375 54.679688 95.867188 54.800781 95.71875 54.800781 L 95.386719 54.800781 C 95.242188 54.800781 95.121094 54.679688 95.121094 54.535156 L 95.121094 33.054688 C 95.121094 32.910156 95.242188 32.789062 95.386719 32.789062 Z M 95.386719 32.789062 "/>
<path fill-rule="nonzero" fill="rgb(0%, 0%, 0%)" fill-opacity="1" d="M 119.050781 39.140625 C 120.804688 39.140625 121.921875 40.097656 121.921875 41.503906 C 121.921875 43.867188 118.917969 46.367188 116.128906 46.367188 C 114.375 46.367188 113.261719 45.410156 113.261719 44 C 113.261719 41.636719 116.261719 39.140625 119.050781 39.140625 Z M 119.050781 39.140625 "/>
<path fill-rule="nonzero" fill="rgb(0%, 0%, 0%)" fill-opacity="1" d="M 121.324219 19.507812 L 121.65625 19.507812 C 121.804688 19.507812 121.921875 19.625 121.921875 19.773438 L 121.921875 41.25 C 121.921875 41.398438 121.804688 41.515625 121.65625 41.515625 L 121.324219 41.515625 C 121.175781 41.515625 121.058594 41.398438 121.058594 41.25 L 121.058594 19.773438 C 121.058594 19.625 121.175781 19.507812 121.324219 19.507812 Z M 121.324219 19.507812 "/>
<path fill-rule="nonzero" fill="rgb(0%, 0%, 0%)" fill-opacity="1" d="M 143.328125 39.140625 C 145.082031 39.140625 146.195312 40.097656 146.195312 41.503906 C 146.195312 43.867188 143.195312 46.367188 140.40625 46.367188 C 138.652344 46.367188 137.535156 45.410156 137.535156 44 C 137.535156 41.636719 140.539062 39.140625 143.328125 39.140625 Z M 143.328125 39.140625 "/>
<path fill-rule="nonzero" fill="rgb(0%, 0%, 0%)" fill-opacity="1" d="M 145.601562 19.507812 L 145.933594 19.507812 C 146.078125 19.507812 146.199219 19.625 146.199219 19.773438 L 146.199219 41.25 C 146.199219 41.398438 146.078125 41.515625 145.933594 41.515625 L 145.601562 41.515625 C 145.453125 41.515625 145.335938 41.398438 145.335938 41.25 L 145.335938 19.773438 C 145.335938 19.625 145.453125 19.507812 145.601562 19.507812 Z M 145.601562 19.507812 "/>
<path fill-rule="nonzero" fill="rgb(0%, 0%, 0%)" fill-opacity="1" d="M 173.015625 0.410156 L 181.65625 0.410156 L 181.65625 1.917969 L 174.703125 1.917969 L 174.703125 5.703125 L 180.824219 5.703125 L 180.824219 7.210938 L 174.703125 7.210938 L 174.703125 12.863281 L 173.015625 12.863281 Z M 171.535156 -0.523438 "/>
<path fill-rule="nonzero" fill="rgb(0%, 0%, 0%)" fill-opacity="1" d="M 177.328125 35.820312 C 179.082031 35.820312 180.195312 36.777344 180.195312 38.183594 C 180.195312 40.546875 177.195312 43.046875 174.40625 43.046875 C 172.652344 43.046875 171.535156 42.089844 171.535156 40.679688 C 171.535156 38.316406 174.539062 35.820312 177.328125 35.820312 Z M 177.328125 35.820312 "/>
<path fill-rule="nonzero" fill="rgb(0%, 0%, 0%)" fill-opacity="1" d="M 179.601562 16.1875 L 179.933594 16.1875 C 180.078125 16.1875 180.199219 16.304688 180.199219 16.453125 L 180.199219 37.929688 C 180.199219 38.078125 180.078125 38.195312 179.933594 38.195312 L 179.601562 38.195312 C 179.453125 38.195312 179.335938 38.078125 179.335938 37.929688 L 179.335938 16.453125 C 179.335938 16.304688 179.453125 16.1875 179.601562 16.1875 Z M 179.601562 16.1875 "/>
<path fill-rule="nonzero" fill="rgb(0%, 0%, 0%)" fill-opacity="1" d="M 201.605469 35.820312 C 203.359375 35.820312 204.472656 36.777344 204.472656 38.183594 C 204.472656 40.546875 201.472656 43.046875 198.683594 43.046875 C 196.929688 43.046875 195.8125 42.089844 195.8125 40.679688 C 195.8125 38.316406 198.816406 35.820312 201.605469 35.820312 Z M 201.605469 35.820312 "/>
<path fill-rule="nonzero" fill="rgb(0%, 0%, 0%)" fill-opacity="1" d="M 203.878906 16.1875 L 204.210938 16.1875 C 204.355469 16.1875 204.476562 16.304688 204.476562 16.453125 L 204.476562 37.929688 C 204.476562 38.078125 204.355469 38.195312 204.210938 38.195312 L 203.878906 38.195312 C 203.730469 38.195312 203.613281 38.078125 203.613281 37.929688 L 203.613281 16.453125 C 203.613281 16.304688 203.730469 16.1875 203.878906 16.1875 Z M 203.878906 16.1875 "/>
<path fill-rule="nonzero" fill="rgb(0%, 0%, 0%)" fill-opacity="1" d="M 226.652344 0.0742188 C 228.234375 0.0742188 229.457031 0.488281 230.335938 1.320312 C 231.21875 2.148438 231.6875 3.085938 231.789062 4.148438 L 230.15625 4.148438 C 229.949219 3.34375 229.585938 2.695312 229.039062 2.226562 C 228.46875 1.761719 227.691406 1.527344 226.679688 1.527344 C 225.460938 1.527344 224.472656 1.96875 223.695312 2.824219 C 222.941406 3.679688 222.582031 5.003906 222.582031 6.792969 C 222.582031 8.246094 222.917969 9.441406 223.59375 10.347656 C 224.265625 11.257812 225.304688 11.699219 226.652344 11.699219 C 227.898438 11.699219 228.832031 11.230469 229.480469 10.269531 C 229.84375 9.777344 230.105469 9.101562 230.257812 8.273438 L 231.921875 8.273438 C 231.765625 9.597656 231.273438 10.6875 230.441406 11.59375 C 229.457031 12.65625 228.132812 13.175781 226.445312 13.175781 C 224.992188 13.175781 223.773438 12.761719 222.789062 11.878906 C 221.492188 10.710938 220.84375 8.921875 220.84375 6.507812 C 220.84375 4.667969 221.335938 3.160156 222.320312 1.96875 C 223.359375 0.695312 224.8125 0.0742188 226.652344 0.0742188 Z M 220.089844 -0.523438 "/>
<path fill-rule="nonzero" fill="rgb(0%, 0%, 0%)" fill-opacity="1" d="M 228.429688 41.027344 C 228.429688 40.414062 227.925781 39.9375 227.316406 39.9375 C 226.28125 39.9375 221.894531 42.859375 221.179688 43.734375 C 220.992188 43.949219 220.914062 44.214844 220.914062 44.480469 C 220.914062 45.089844 221.417969 45.570312 222.027344 45.570312 C 223.066406 45.570312 227.421875 42.648438 228.140625 41.769531 C 228.324219 41.558594 228.429688 41.292969 228.429688 41.027344 Z M 227.050781 39.140625 C 228.140625 39.140625 229.230469 39.511719 229.230469 41.027344 C 229.230469 41.71875 228.804688 44 227.261719 45.039062 C 226.597656 45.488281 224.953125 46.367188 222.292969 46.367188 C 221.207031 46.367188 220.089844 45.996094 220.089844 44.480469 C 220.089844 43.789062 220.515625 41.503906 222.054688 40.46875 C 222.71875 40.015625 224.394531 39.140625 227.050781 39.140625 Z M 227.050781 39.140625 "/>
<path fill-rule="nonzero" fill="rgb(0%, 0%, 0%)" fill-opacity="1" d="M 228.640625 19.507812 L 228.972656 19.507812 C 229.117188 19.507812 229.238281 19.625 229.238281 19.773438 L 229.238281 40.765625 C 229.238281 40.914062 229.117188 41.03125 228.972656 41.03125 L 228.640625 41.03125 C 228.492188 41.03125 228.375 40.914062 228.375 40.765625 L 228.375 19.773438 C 228.375 19.625 228.492188 19.507812 228.640625 19.507812 Z M 228.640625 19.507812 "/>
<path fill-rule="nonzero" fill="rgb(0%, 0%, 0%)" fill-opacity="1" d="M 267.054688 0.410156 L 275.691406 0.410156 L 275.691406 1.917969 L 268.738281 1.917969 L 268.738281 5.703125 L 274.863281 5.703125 L 274.863281 7.210938 L 268.738281 7.210938 L 268.738281 12.863281 L 267.054688 12.863281 Z M 265.574219 -0.523438 "/>
<path fill-rule="nonzero" fill="rgb(0%, 0%, 0%)" fill-opacity="1" d="M 271.367188 42.460938 C 273.121094 42.460938 274.234375 43.417969 274.234375 44.824219 C 274.234375 47.191406 271.234375 49.6875 268.445312 49.6875 C 266.691406 49.6875 265.574219 48.730469 265.574219 47.324219 C 265.574219 44.957031 268.578125 42.460938 271.367188 42.460938 Z M 271.367188 42.460938 "/>
<path fill-rule="nonzero" fill="rgb(0%, 0%, 0%)" fill-opacity="1" d="M 273.640625 22.828125 L 273.972656 22.828125 C 274.117188 22.828125 274.238281 22.945312 274.238281 23.09375 L 274.238281 44.570312 C 274.238281 44.71875 274.117188 44.835938 273.972656 44.835938 L 273.640625 44.835938 C 273.492188 44.835938 273.375 44.71875 273.375 44.570312 L 273.375 23.09375 C 273.375 22.945312 273.492188 22.828125 273.640625 22.828125 Z M 273.640625 22.828125 "/>
<path fill-rule="nonzero" fill="rgb(0%, 0%, 0%)" fill-opacity="1" d="M 295.644531 42.460938 C 297.398438 42.460938 298.511719 43.417969 298.511719 44.824219 C 298.511719 47.191406 295.511719 49.6875 292.722656 49.6875 C 290.96875 49.6875 289.851562 48.730469 289.851562 47.324219 C 289.851562 44.957031 292.855469 42.460938 295.644531 42.460938 Z M 295.644531 42.460938 "/>
<path fill-rule="nonzero" fill="rgb(0%, 0%, 0%)" fill-opacity="1" d="M 297.917969 22.828125 L 298.25 22.828125 C 298.394531 22.828125 298.515625 22.945312 298.515625 23.09375 L 298.515625 44.570312 C 298.515625 44.71875 298.394531 44.835938 298.25 44.835938 L 297.917969 44.835938 C 297.769531 44.835938 297.652344 44.71875 297.652344 44.570312 L 297.652344 23.09375 C 297.652344 22.945312 297.769531 22.828125 297.917969 22.828125 Z M 297.917969 22.828125 "/>
<path fill-rule="nonzero" fill="rgb(0%, 0%, 0%)" fill-opacity="1" d="M 320.691406 0.0742188 C 322.273438 0.0742188 323.492188 0.488281 324.375 1.320312 C 325.257812 2.148438 325.726562 3.085938 325.828125 4.148438 L 324.195312 4.148438 C 323.988281 3.34375 323.625 2.695312 323.078125 2.226562 C 322.507812 1.761719 321.730469 1.527344 320.71875 1.527344 C 319.5 1.527344 318.511719 1.96875 317.734375 2.824219 C 316.980469 3.679688 316.617188 5.003906 316.617188 6.792969 C 316.617188 8.246094 316.957031 9.441406 317.628906 10.347656 C 318.304688 11.257812 319.34375 11.699219 320.691406 11.699219 C 321.9375 11.699219 322.871094 11.230469 323.519531 10.269531 C 323.882812 9.777344 324.144531 9.101562 324.296875 8.273438 L 325.957031 8.273438 C 325.804688 9.597656 325.308594 10.6875 324.480469 11.59375 C 323.492188 12.65625 322.171875 13.175781 320.484375 13.175781 C 319.03125 13.175781 317.8125 12.761719 316.828125 11.878906 C 315.527344 10.710938 314.878906 8.921875 314.878906 6.507812 C 314.878906 4.667969 315.375 3.160156 316.359375 1.96875 C 317.398438 0.695312 318.851562 0.0742188 320.691406 0.0742188 Z M 314.128906 -0.523438 "/>
<path fill-rule="nonzero" fill="rgb(0%, 0%, 0%)" fill-opacity="1" d="M 319.917969 45.78125 C 321.671875 45.78125 322.789062 46.738281 322.789062 48.144531 C 322.789062 50.511719 319.785156 53.007812 316.996094 53.007812 C 315.242188 53.007812 314.128906 52.050781 314.128906 50.644531 C 314.128906 48.277344 317.128906 45.78125 319.917969 45.78125 Z M 319.917969 45.78125 "/>
<path fill-rule="nonzero" fill="rgb(0%, 0%, 0%)" fill-opacity="1" d="M 322.191406 26.148438 L 322.523438 26.148438 C 322.671875 26.148438 322.789062 26.265625 322.789062 26.414062 L 322.789062 47.894531 C 322.789062 48.039062 322.671875 48.160156 322.523438 48.160156 L 322.191406 48.160156 C 322.046875 48.160156 321.925781 48.039062 321.925781 47.894531 L 321.925781 26.414062 C 321.925781 26.265625 322.046875 26.148438 322.191406 26.148438 Z M 322.191406 26.148438 "/>
<path fill-rule="nonzero" fill="rgb(0%, 0%, 0%)" fill-opacity="1" d="M 344.195312 45.78125 C 345.949219 45.78125 347.066406 46.738281 347.066406 48.144531 C 347.066406 50.511719 344.0625 53.007812 341.273438 53.007812 C 339.519531 53.007812 338.40625 52.050781 338.40625 50.644531 C 338.40625 48.277344 341.40625 45.78125 344.195312 45.78125 Z M 344.195312 45.78125 "/>
<path fill-rule="nonzero" fill="rgb(0%, 0%, 0%)" fill-opacity="1" d="M 346.46875 26.148438 L 346.800781 26.148438 C 346.949219 26.148438 347.066406 26.265625 347.066406 26.414062 L 347.066406 47.894531 C 347.066406 48.039062 346.949219 48.160156 346.800781 48.160156 L 346.46875 48.160156 C 346.320312 48.160156 346.203125 48.039062 346.203125 47.894531 L 346.203125 26.414062 C 346.203125 26.265625 346.320312 26.148438 346.46875 26.148438 Z M 346.46875 26.148438 "/>
<path fill-rule="nonzero" fill="rgb(0%, 0%, 0%)" fill-opacity="1" d="M 429.746094 32.789062 L 430.078125 32.789062 C 430.222656 32.789062 430.34375 32.910156 430.34375 33.054688 L 430.34375 54.050781 C 430.34375 54.199219 430.222656 54.316406 430.078125 54.316406 L 429.746094 54.316406 C 429.597656 54.316406 429.480469 54.199219 429.480469 54.050781 L 429.480469 33.054688 C 429.480469 32.910156 429.597656 32.789062 429.746094 32.789062 Z M 429.746094 32.789062 "/>
<path fill-rule="nonzero" fill="rgb(0%, 0%, 0%)" fill-opacity="1" d="M 429.535156 54.308594 C 429.535156 53.699219 429.03125 53.21875 428.421875 53.21875 C 427.386719 53.21875 423 56.144531 422.285156 57.019531 C 422.097656 57.230469 422.019531 57.496094 422.019531 57.761719 C 422.019531 58.375 422.523438 58.851562 423.132812 58.851562 C 424.171875 58.851562 428.527344 55.929688 429.246094 55.054688 C 429.429688 54.839844 429.535156 54.574219 429.535156 54.308594 Z M 428.15625 52.421875 C 429.246094 52.421875 430.332031 52.796875 430.332031 54.308594 C 430.332031 55 429.910156 57.285156 428.367188 58.320312 C 427.703125 58.773438 426.054688 59.648438 423.398438 59.648438 C 422.3125 59.648438 421.195312 59.277344 421.195312 57.761719 C 421.195312 57.074219 421.621094 54.789062 423.160156 53.75 C 423.824219 53.300781 425.5 52.421875 428.15625 52.421875 Z M 428.15625 52.421875 "/>
<path fill-rule="nonzero" fill="rgb(0%, 0%, 0%)" fill-opacity="1" d="M 379.363281 0.0742188 C 380.527344 0.0742188 381.542969 0.308594 382.398438 0.75 C 383.640625 1.398438 384.394531 2.539062 384.65625 4.171875 L 382.992188 4.171875 C 382.785156 3.265625 382.371094 2.589844 381.722656 2.175781 C 381.101562 1.761719 380.296875 1.554688 379.308594 1.554688 C 378.167969 1.554688 377.183594 1.996094 376.402344 2.851562 C 375.601562 3.734375 375.210938 5.03125 375.210938 6.742188 C 375.210938 8.222656 375.546875 9.414062 376.195312 10.347656 C 376.84375 11.28125 377.910156 11.75 379.363281 11.75 C 380.503906 11.75 381.4375 11.414062 382.164062 10.761719 C 382.917969 10.113281 383.28125 9.050781 383.304688 7.597656 L 379.386719 7.597656 L 379.386719 6.199219 L 384.863281 6.199219 L 384.863281 12.863281 L 383.773438 12.863281 L 383.382812 11.257812 C 382.8125 11.878906 382.292969 12.320312 381.851562 12.578125 C 381.125 12.996094 380.164062 13.203125 379.023438 13.203125 C 377.546875 13.203125 376.273438 12.710938 375.210938 11.75 C 374.070312 10.554688 373.472656 8.921875 373.472656 6.820312 C 373.472656 4.746094 374.042969 3.085938 375.183594 1.839844 C 376.25 0.671875 377.648438 0.0742188 379.363281 0.0742188 Z M 372.640625 -0.523438 "/>
<path fill-rule="nonzero" fill="rgb(0%, 0%, 0%)" fill-opacity="1" d="M 378.433594 49.101562 C 380.1875 49.101562 381.304688 50.058594 381.304688 51.46875 C 381.304688 53.832031 378.300781 56.328125 375.511719 56.328125 C 373.757812 56.328125 372.640625 55.371094 372.640625 53.964844 C 372.640625 51.601562 375.644531 49.101562 378.433594 49.101562 Z M 378.433594 49.101562 "/>
<path fill-rule="nonzero" fill="rgb(0%, 0%, 0%)" fill-opacity="1" d="M 380.707031 29.46875 L 381.039062 29.46875 C 381.183594 29.46875 381.304688 29.589844 381.304688 29.734375 L 381.304688 51.214844 C 381.304688 51.359375 381.183594 51.480469 381.039062 51.480469 L 380.707031 51.480469 C 380.558594 51.480469 380.441406 51.359375 380.441406 51.214844 L 380.441406 29.734375 C 380.441406 29.589844 380.558594 29.46875 380.707031 29.46875 Z M 380.707031 29.46875 "/>
<path fill-rule="nonzero" fill="rgb(0%, 0%, 0%)" fill-opacity="1" d="M 427.757812 0.0742188 C 429.339844 0.0742188 430.5625 0.488281 431.441406 1.320312 C 432.324219 2.148438 432.792969 3.085938 432.894531 4.148438 L 431.261719 4.148438 C 431.054688 3.34375 430.691406 2.695312 430.144531 2.226562 C 429.574219 1.761719 428.796875 1.527344 427.785156 1.527344 C 426.566406 1.527344 425.578125 1.96875 424.800781 2.824219 C 424.046875 3.679688 423.683594 5.003906 423.683594 6.792969 C 423.683594 8.246094 424.023438 9.441406 424.695312 10.347656 C 425.371094 11.257812 426.410156 11.699219 427.757812 11.699219 C 429.003906 11.699219 429.9375 11.230469 430.585938 10.269531 C 430.949219 9.777344 431.210938 9.101562 431.363281 8.273438 L 433.027344 8.273438 C 432.871094 9.597656 432.375 10.6875 431.546875 11.59375 C 430.5625 12.65625 429.238281 13.175781 427.550781 13.175781 C 426.097656 13.175781 424.878906 12.761719 423.894531 11.878906 C 422.597656 10.710938 421.945312 8.921875 421.945312 6.507812 C 421.945312 4.667969 422.441406 3.160156 423.425781 1.96875 C 424.464844 0.695312 425.917969 0.0742188 427.757812 0.0742188 Z M 421.195312 -0.523438 "/>
<path fill-rule="nonzero" fill="rgb(0%, 0%, 0%)" fill-opacity="1" d="M 402.710938 49.101562 C 404.464844 49.101562 405.578125 50.058594 405.578125 51.46875 C 405.578125 53.832031 402.578125 56.328125 399.789062 56.328125 C 398.035156 56.328125 396.917969 55.371094 396.917969 53.964844 C 396.917969 51.601562 399.921875 49.101562 402.710938 49.101562 Z M 402.710938 49.101562 "/>
<path fill-rule="nonzero" fill="rgb(0%, 0%, 0%)" fill-opacity="1" d="M 404.984375 29.46875 L 405.316406 29.46875 C 405.460938 29.46875 405.582031 29.589844 405.582031 29.734375 L 405.582031 51.214844 C 405.582031 51.359375 405.460938 51.480469 405.316406 51.480469 L 404.984375 51.480469 C 404.835938 51.480469 404.71875 51.359375 404.71875 51.214844 L 404.71875 29.734375 C 404.71875 29.589844 404.835938 29.46875 404.984375 29.46875 Z M 404.984375 29.46875 "/>
<path fill-rule="nonzero" fill="rgb(0%, 0%, 0%)" fill-opacity="1" d="M 147.957031 79.421875 L 149.21875 79.421875 L 149.21875 105.992188 L 147.957031 105.992188 Z M 147.957031 79.421875 "/>
<path fill="none" stroke-width="0.1" stroke-linecap="round" stroke-linejoin="round" stroke="rgb(0%, 0%, 0%)" stroke-opacity="1" stroke-miterlimit="4" d="M 0.0497863 0.000243817 L 68.23633 0.000243817 " transform="matrix(6.641764, 0, 0, 6.641764, 5.895894, 105.990568)"/>
<path fill="none" stroke-width="0.1" stroke-linecap="round" stroke-linejoin="round" stroke="rgb(0%, 0%, 0%)" stroke-opacity="1" stroke-miterlimit="4" d="M 0.0497863 -0.000172876 L 68.23633 -0.000172876 " transform="matrix(6.641764, 0, 0, 6.641764, 5.895894, 99.348804)"/>
<path fill="none" stroke-width="0.1" stroke-linecap="round" stroke-linejoin="round" stroke="rgb(0%, 0%, 0%)" stroke-opacity="1" stroke-miterlimit="4" d="M 0.0497863 -0.00000143352 L 68.23633 -0.00000143352 " transform="matrix(6.641764, 0, 0, 6.641764, 5.895894, 92.707041)"/>
<path fill="none" stroke-width="0.1" stroke-linecap="round" stroke-linejoin="round" stroke="rgb(0%, 0%, 0%)" stroke-opacity="1" stroke-miterlimit="4" d="M 0.0497863 0.000170009 L 68.23633 0.000170009 " transform="matrix(6.641764, 0, 0, 6.641764, 5.895894, 86.065277)"/>
<path fill="none" stroke-width="0.1" stroke-linecap="round" stroke-linejoin="round" stroke="rgb(0%, 0%, 0%)" stroke-opacity="1" stroke-miterlimit="4" d="M 0.0497863 -0.000246684 L 68.23633 -0.000246684 " transform="matrix(6.641764, 0, 0, 6.641764, 5.895894, 79.423513)"/>
<path fill-rule="nonzero" fill="rgb(0%, 0%, 0%)" fill-opacity="1" d="M 458.175781 79.421875 L 459.4375 79.421875 L 459.4375 105.992188 L 458.175781 105.992188 Z M 458.175781 79.421875 "/>
<path fill-rule="nonzero" fill="rgb(0%, 0%, 0%)" fill-opacity="1" d="M 359.191406 79.421875 L 360.453125 79.421875 L 360.453125 105.992188 L 359.191406 105.992188 Z M 359.191406 79.421875 "/>
<path fill-rule="nonzero" fill="rgb(0%, 0%, 0%)" fill-opacity="1" d="M 246.941406 79.421875 L 248.203125 79.421875 L 248.203125 105.992188 L 246.941406 105.992188 Z M 246.941406 79.421875 "/>
<path fill-rule="nonzero" fill="rgb(0%, 0%, 0%)" fill-opacity="1" d="M 262.21875 59.761719 C 263.800781 59.761719 265.019531 60.175781 265.902344 61.007812 C 266.785156 61.835938 267.25 62.773438 267.355469 63.835938 L 265.71875 63.835938 C 265.511719 63.03125 265.148438 62.382812 264.605469 61.914062 C 264.035156 61.449219 263.253906 61.214844 262.242188 61.214844 C 261.023438 61.214844 260.039062 61.65625 259.257812 62.511719 C 258.507812 63.367188 258.144531 64.691406 258.144531 66.480469 C 258.144531 67.933594 258.480469 69.128906 259.15625 70.035156 C 259.832031 70.945312 260.867188 71.386719 262.21875 71.386719 C 263.460938 71.386719 264.398438 70.917969 265.046875 69.957031 C 265.410156 69.464844 265.667969 68.789062 265.824219 67.960938 L 267.484375 67.960938 C 267.328125 69.285156 266.835938 70.375 266.003906 71.28125 C 265.019531 72.34375 263.695312 72.863281 262.011719 72.863281 C 260.558594 72.863281 259.335938 72.449219 258.351562 71.566406 C 257.054688 70.398438 256.40625 68.609375 256.40625 66.195312 C 256.40625 64.355469 256.898438 62.847656 257.882812 61.65625 C 258.921875 60.382812 260.375 59.761719 262.21875 59.761719 Z M 255.652344 59.164062 "/>
<path fill-rule="nonzero" fill="rgb(0%, 0%, 0%)" fill-opacity="1" d="M 18.277344 116.21875 L 18.117188 116.21875 C 15.246094 116.21875 12.9375 113.882812 12.9375 110.984375 C 12.9375 109.445312 14.34375 108.25 15.910156 108.25 C 17.347656 108.25 18.433594 109.496094 18.433594 110.984375 C 18.433594 112.367188 17.292969 113.507812 15.910156 113.507812 C 15.621094 113.507812 15.355469 113.457031 15.089844 113.351562 C 15.777344 114.386719 16.894531 115.078125 18.195312 115.078125 L 18.300781 115.078125 Z M 23.457031 104.742188 C 25.261719 104.105469 26.457031 102.351562 26.457031 100.386719 C 26.457031 97.992188 24.707031 95.628906 21.863281 95.335938 C 22.367188 97.703125 23.136719 101.765625 23.457031 104.742188 Z M 13.175781 98.605469 C 13.175781 102.457031 16.921875 105.167969 20.1875 105.167969 C 20.214844 105.167969 21.4375 105.167969 22.367188 105.007812 C 22.179688 103.308594 21.597656 99.613281 20.695312 95.335938 C 18.59375 95.550781 17.398438 96.957031 17.398438 98.5 C 17.398438 99.667969 18.0625 100.917969 19.550781 101.765625 C 19.683594 101.898438 19.738281 102.03125 19.738281 102.164062 C 19.738281 102.457031 19.472656 102.75 19.152344 102.75 C 18.753906 102.75 15.804688 101.101562 15.804688 97.78125 C 15.804688 95.445312 17.347656 93.160156 20.054688 92.546875 C 19.683594 91.007812 19.285156 89.4375 18.835938 87.898438 C 15.992188 91.113281 13.175781 94.355469 13.175781 98.605469 Z M 17.851562 84.65625 C 17.082031 82.105469 16.46875 80.140625 16.46875 75.464844 C 16.46875 72.410156 17.929688 69.515625 20.429688 67.707031 C 20.585938 67.574219 20.800781 67.574219 20.960938 67.707031 C 22.765625 69.832031 24.492188 74.214844 24.492188 77.21875 C 24.492188 81.015625 22.207031 83.992188 19.710938 86.890625 C 20.269531 88.695312 20.746094 90.554688 21.199219 92.386719 C 21.25 92.386719 21.382812 92.363281 21.542969 92.363281 C 25.660156 92.363281 28.34375 95.761719 28.34375 99.296875 C 28.34375 102.296875 26.378906 104.929688 23.5625 105.832031 C 23.644531 106.761719 23.695312 107.691406 23.695312 108.621094 C 23.695312 109.125 23.667969 109.65625 23.644531 110.160156 C 23.457031 113.324219 21.304688 116.140625 18.277344 116.21875 L 18.300781 115.078125 C 20.773438 115.023438 22.367188 112.632812 22.527344 110.003906 C 22.554688 109.523438 22.578125 109.019531 22.578125 108.539062 C 22.578125 107.71875 22.554688 106.921875 22.472656 106.097656 C 22.339844 106.125 21.304688 106.308594 20.109375 106.308594 C 14.980469 106.308594 11.261719 101.527344 11.261719 96.375 C 11.261719 91.671875 14.742188 88.242188 17.851562 84.65625 Z M 22.578125 75.011719 C 22.578125 74.109375 22.605469 73.261719 22.046875 71.585938 C 19.417969 72.863281 17.746094 75.542969 17.746094 78.46875 C 17.746094 79.847656 18.0625 81.523438 18.703125 83.621094 C 20.828125 81.042969 22.578125 78.359375 22.578125 75.011719 Z M 22.578125 75.011719 "/>
<path fill-rule="nonzero" fill="rgb(0%, 0%, 0%)" fill-opacity="1" d="M 0.855469 71.277344 C 1.089844 71.277344 1.375 71.40625 1.710938 71.640625 C 2.050781 71.871094 2.335938 72.003906 2.515625 72.003906 C 2.957031 72.003906 3.320312 71.820312 3.65625 71.429688 C 3.996094 71.042969 4.152344 70.574219 4.152344 70.03125 C 4.152344 69.042969 3.632812 68.34375 2.59375 67.902344 C 1.996094 67.667969 1.480469 67.539062 0.960938 67.539062 C 0.882812 67.539062 0.832031 67.539062 0.804688 67.539062 C 0.777344 67.539062 0.777344 67.515625 0.726562 67.488281 C 0.753906 67.460938 0.753906 67.4375 0.753906 67.410156 C 0.753906 67.382812 0.777344 67.359375 0.777344 67.359375 L 1.996094 64.632812 L 4.4375 64.632812 C 4.566406 64.632812 4.644531 64.609375 4.722656 64.582031 C 4.773438 64.53125 4.878906 64.453125 4.980469 64.347656 L 5.058594 64.425781 L 4.617188 65.464844 C 4.617188 65.515625 4.566406 65.515625 4.515625 65.542969 C 4.4375 65.542969 4.359375 65.542969 4.28125 65.542969 L 2.101562 65.542969 L 1.609375 66.554688 C 2.230469 66.65625 2.671875 66.761719 2.957031 66.839844 C 3.425781 66.996094 3.839844 67.226562 4.152344 67.539062 C 4.410156 67.800781 4.617188 68.109375 4.773438 68.449219 C 4.902344 68.785156 4.980469 69.148438 4.980469 69.511719 C 4.980469 70.339844 4.671875 71.042969 4.074219 71.585938 C 3.476562 72.15625 2.75 72.441406 1.816406 72.441406 C 1.453125 72.441406 1.167969 72.390625 0.933594 72.339844 C 0.542969 72.210938 0.363281 72.003906 0.363281 71.691406 C 0.363281 71.585938 0.414062 71.484375 0.492188 71.40625 C 0.570312 71.328125 0.699219 71.277344 0.855469 71.277344 Z M 0 63.621094 "/>
<path fill-rule="nonzero" fill="rgb(0%, 0%, 0%)" fill-opacity="1" d="M 50.980469 59.761719 C 52.566406 59.761719 53.785156 60.175781 54.667969 61.007812 C 55.546875 61.835938 56.015625 62.773438 56.117188 63.835938 L 54.484375 63.835938 C 54.277344 63.03125 53.914062 62.382812 53.367188 61.914062 C 52.796875 61.449219 52.019531 61.214844 51.007812 61.214844 C 49.789062 61.214844 48.800781 61.65625 48.023438 62.511719 C 47.273438 63.367188 46.910156 64.691406 46.910156 66.480469 C 46.910156 67.933594 47.246094 69.128906 47.921875 70.035156 C 48.59375 70.945312 49.632812 71.386719 50.980469 71.386719 C 52.226562 71.386719 53.160156 70.917969 53.808594 69.957031 C 54.171875 69.464844 54.433594 68.789062 54.589844 67.960938 L 56.25 67.960938 C 56.09375 69.285156 55.601562 70.375 54.769531 71.28125 C 53.785156 72.34375 52.460938 72.863281 50.773438 72.863281 C 49.320312 72.863281 48.101562 72.449219 47.117188 71.566406 C 45.820312 70.398438 45.171875 68.609375 45.171875 66.195312 C 45.171875 64.355469 45.664062 62.847656 46.648438 61.65625 C 47.6875 60.382812 49.140625 59.761719 50.980469 59.761719 Z M 44.417969 59.164062 "/>
<path fill-rule="nonzero" fill="rgb(0%, 0%, 0%)" fill-opacity="1" d="M 50.210938 95.734375 C 51.964844 95.734375 53.078125 96.691406 53.078125 98.101562 C 53.078125 100.464844 50.078125 102.960938 47.289062 102.960938 C 45.535156 102.960938 44.417969 102.003906 44.417969 100.597656 C 44.417969 98.234375 47.421875 95.734375 50.210938 95.734375 Z M 50.210938 95.734375 "/>
<path fill-rule="nonzero" fill="rgb(0%, 0%, 0%)" fill-opacity="1" d="M 52.484375 76.101562 L 52.816406 76.101562 C 52.960938 76.101562 53.082031 76.222656 53.082031 76.367188 L 53.082031 97.847656 C 53.082031 97.992188 52.960938 98.113281 52.816406 98.113281 L 52.484375 98.113281 C 52.335938 98.113281 52.21875 97.992188 52.21875 97.847656 L 52.21875 76.367188 C 52.21875 76.222656 52.335938 76.101562 52.484375 76.101562 Z M 52.484375 76.101562 "/>
<path fill-rule="nonzero" fill="rgb(0%, 0%, 0%)" fill-opacity="1" d="M 75.699219 95.734375 C 77.453125 95.734375 78.570312 96.691406 78.570312 98.101562 C 78.570312 100.464844 75.566406 102.960938 72.777344 102.960938 C 71.023438 102.960938 69.910156 102.003906 69.910156 100.597656 C 69.910156 98.234375 72.910156 95.734375 75.699219 95.734375 Z M 75.699219 95.734375 "/>
<path fill-rule="nonzero" fill="rgb(0%, 0%, 0%)" fill-opacity="1" d="M 77.972656 76.101562 L 78.304688 76.101562 C 78.453125 76.101562 78.570312 76.222656 78.570312 76.367188 L 78.570312 97.847656 C 78.570312 97.992188 78.453125 98.113281 78.304688 98.113281 L 77.972656 98.113281 C 77.828125 98.113281 77.707031 97.992188 77.707031 97.847656 L 77.707031 76.367188 C 77.707031 76.222656 77.828125 76.101562 77.972656 76.101562 Z M 77.972656 76.101562 "/>
<path fill-rule="nonzero" fill="rgb(0%, 0%, 0%)" fill-opacity="1" d="M 96.878906 60.097656 L 105.519531 60.097656 L 105.519531 61.605469 L 98.566406 61.605469 L 98.566406 65.390625 L 104.6875 65.390625 L 104.6875 66.898438 L 98.566406 66.898438 L 98.566406 72.550781 L 96.878906 72.550781 Z M 95.402344 59.164062 "/>
<path fill-rule="nonzero" fill="rgb(0%, 0%, 0%)" fill-opacity="1" d="M 101.191406 99.054688 C 102.945312 99.054688 104.0625 100.011719 104.0625 101.421875 C 104.0625 103.785156 101.058594 106.28125 98.269531 106.28125 C 96.515625 106.28125 95.402344 105.328125 95.402344 103.917969 C 95.402344 101.554688 98.402344 99.054688 101.191406 99.054688 Z M 101.191406 99.054688 "/>
<path fill-rule="nonzero" fill="rgb(0%, 0%, 0%)" fill-opacity="1" d="M 103.464844 79.421875 L 103.796875 79.421875 C 103.945312 79.421875 104.0625 79.542969 104.0625 79.6875 L 104.0625 101.167969 C 104.0625 101.316406 103.945312 101.433594 103.796875 101.433594 L 103.464844 101.433594 C 103.320312 101.433594 103.199219 101.316406 103.199219 101.167969 L 103.199219 79.6875 C 103.199219 79.542969 103.320312 79.421875 103.464844 79.421875 Z M 103.464844 79.421875 "/>
<path fill-rule="nonzero" fill="rgb(0%, 0%, 0%)" fill-opacity="1" d="M 126.683594 99.054688 C 128.4375 99.054688 129.554688 100.011719 129.554688 101.421875 C 129.554688 103.785156 126.550781 106.28125 123.761719 106.28125 C 122.007812 106.28125 120.890625 105.328125 120.890625 103.917969 C 120.890625 101.554688 123.894531 99.054688 126.683594 99.054688 Z M 126.683594 99.054688 "/>
<path fill-rule="nonzero" fill="rgb(0%, 0%, 0%)" fill-opacity="1" d="M 128.957031 79.421875 L 129.289062 79.421875 C 129.433594 79.421875 129.554688 79.542969 129.554688 79.6875 L 129.554688 101.167969 C 129.554688 101.316406 129.433594 101.433594 129.289062 101.433594 L 128.957031 101.433594 C 128.808594 101.433594 128.691406 101.316406 128.691406 101.167969 L 128.691406 79.6875 C 128.691406 79.542969 128.808594 79.421875 128.957031 79.421875 Z M 128.957031 79.421875 "/>
<path fill-rule="nonzero" fill="rgb(0%, 0%, 0%)" fill-opacity="1" d="M 163.230469 59.761719 C 164.8125 59.761719 166.03125 60.175781 166.914062 61.007812 C 167.796875 61.835938 168.265625 62.773438 168.367188 63.835938 L 166.734375 63.835938 C 166.527344 63.03125 166.164062 62.382812 165.617188 61.914062 C 165.046875 61.449219 164.269531 61.214844 163.257812 61.214844 C 162.035156 61.214844 161.050781 61.65625 160.273438 62.511719 C 159.519531 63.367188 159.15625 64.691406 159.15625 66.480469 C 159.15625 67.933594 159.496094 69.128906 160.167969 70.035156 C 160.84375 70.945312 161.882812 71.386719 163.230469 71.386719 C 164.476562 71.386719 165.410156 70.917969 166.058594 69.957031 C 166.421875 69.464844 166.679688 68.789062 166.835938 67.960938 L 168.496094 67.960938 C 168.339844 69.285156 167.847656 70.375 167.019531 71.28125 C 166.03125 72.34375 164.710938 72.863281 163.023438 72.863281 C 161.570312 72.863281 160.351562 72.449219 159.363281 71.566406 C 158.066406 70.398438 157.417969 68.609375 157.417969 66.195312 C 157.417969 64.355469 157.910156 62.847656 158.898438 61.65625 C 159.9375 60.382812 161.386719 59.761719 163.230469 59.761719 Z M 156.667969 59.164062 "/>
<path fill-rule="nonzero" fill="rgb(0%, 0%, 0%)" fill-opacity="1" d="M 162.457031 102.378906 C 164.210938 102.378906 165.328125 103.332031 165.328125 104.742188 C 165.328125 107.105469 162.324219 109.605469 159.535156 109.605469 C 157.78125 109.605469 156.667969 108.648438 156.667969 107.238281 C 156.667969 104.875 159.667969 102.378906 162.457031 102.378906 Z M 162.457031 102.378906 "/>
<path fill-rule="nonzero" fill="rgb(0%, 0%, 0%)" fill-opacity="1" d="M 164.730469 82.746094 L 165.0625 82.746094 C 165.210938 82.746094 165.328125 82.863281 165.328125 83.011719 L 165.328125 104.488281 C 165.328125 104.636719 165.210938 104.753906 165.0625 104.753906 L 164.730469 104.753906 C 164.585938 104.753906 164.464844 104.636719 164.464844 104.488281 L 164.464844 83.011719 C 164.464844 82.863281 164.585938 82.746094 164.730469 82.746094 Z M 164.730469 82.746094 "/>
<path fill-rule="nonzero" fill="rgb(0%, 0%, 0%)" fill-opacity="1" d="M 187.949219 102.378906 C 189.703125 102.378906 190.820312 103.332031 190.820312 104.742188 C 190.820312 107.105469 187.816406 109.605469 185.027344 109.605469 C 183.273438 109.605469 182.15625 108.648438 182.15625 107.238281 C 182.15625 104.875 185.160156 102.378906 187.949219 102.378906 Z M 187.949219 102.378906 "/>
<path fill-rule="nonzero" fill="rgb(0%, 0%, 0%)" fill-opacity="1" d="M 190.222656 82.746094 L 190.554688 82.746094 C 190.699219 82.746094 190.820312 82.863281 190.820312 83.011719 L 190.820312 104.488281 C 190.820312 104.636719 190.699219 104.753906 190.554688 104.753906 L 190.222656 104.753906 C 190.074219 104.753906 189.957031 104.636719 189.957031 104.488281 L 189.957031 83.011719 C 189.957031 82.863281 190.074219 82.746094 190.222656 82.746094 Z M 190.222656 82.746094 "/>
<path fill-rule="nonzero" fill="rgb(0%, 0%, 0%)" fill-opacity="1" d="M 214.367188 59.761719 C 215.535156 59.761719 216.546875 59.996094 217.40625 60.4375 C 218.648438 61.085938 219.402344 62.226562 219.660156 63.859375 L 218 63.859375 C 217.792969 62.953125 217.378906 62.277344 216.730469 61.863281 C 216.105469 61.449219 215.304688 61.242188 214.316406 61.242188 C 213.175781 61.242188 212.191406 61.683594 211.410156 62.539062 C 210.605469 63.421875 210.21875 64.71875 210.21875 66.429688 C 210.21875 67.910156 210.554688 69.101562 211.203125 70.035156 C 211.851562 70.96875 212.917969 71.4375 214.367188 71.4375 C 215.511719 71.4375 216.445312 71.101562 217.171875 70.449219 C 217.921875 69.800781 218.285156 68.738281 218.3125 67.285156 L 214.394531 67.285156 L 214.394531 65.886719 L 219.871094 65.886719 L 219.871094 72.550781 L 218.78125 72.550781 L 218.390625 70.945312 C 217.820312 71.566406 217.300781 72.007812 216.859375 72.265625 C 216.132812 72.683594 215.171875 72.890625 214.03125 72.890625 C 212.554688 72.890625 211.28125 72.398438 210.21875 71.4375 C 209.078125 70.242188 208.480469 68.609375 208.480469 66.507812 C 208.480469 64.433594 209.050781 62.773438 210.191406 61.527344 C 211.253906 60.359375 212.65625 59.761719 214.367188 59.761719 Z M 207.648438 59.164062 "/>
<path fill-rule="nonzero" fill="rgb(0%, 0%, 0%)" fill-opacity="1" d="M 215.992188 107.585938 C 215.992188 106.972656 215.488281 106.496094 214.875 106.496094 C 213.839844 106.496094 209.457031 109.417969 208.738281 110.292969 C 208.550781 110.507812 208.472656 110.773438 208.472656 111.039062 C 208.472656 111.648438 208.976562 112.128906 209.589844 112.128906 C 210.625 112.128906 214.980469 109.207031 215.699219 108.328125 C 215.886719 108.117188 215.992188 107.851562 215.992188 107.585938 Z M 214.609375 105.699219 C 215.699219 105.699219 216.789062 106.070312 216.789062 107.585938 C 216.789062 108.273438 216.363281 110.558594 214.824219 111.597656 C 214.160156 112.046875 212.511719 112.925781 209.855469 112.925781 C 208.765625 112.925781 207.648438 112.550781 207.648438 111.039062 C 207.648438 110.347656 208.074219 108.0625 209.617188 107.027344 C 210.28125 106.574219 211.953125 105.699219 214.609375 105.699219 Z M 214.609375 105.699219 "/>
<path fill-rule="nonzero" fill="rgb(0%, 0%, 0%)" fill-opacity="1" d="M 216.199219 86.066406 L 216.53125 86.066406 C 216.679688 86.066406 216.796875 86.183594 216.796875 86.332031 L 216.796875 107.324219 C 216.796875 107.472656 216.679688 107.589844 216.53125 107.589844 L 216.199219 107.589844 C 216.050781 107.589844 215.933594 107.472656 215.933594 107.324219 L 215.933594 86.332031 C 215.933594 86.183594 216.050781 86.066406 216.199219 86.066406 Z M 216.199219 86.066406 "/>
<path fill-rule="nonzero" fill="rgb(0%, 0%, 0%)" fill-opacity="1" d="M 261.445312 95.734375 C 263.199219 95.734375 264.3125 96.691406 264.3125 98.101562 C 264.3125 100.464844 261.3125 102.960938 258.523438 102.960938 C 256.769531 102.960938 255.652344 102.003906 255.652344 100.597656 C 255.652344 98.234375 258.65625 95.734375 261.445312 95.734375 Z M 261.445312 95.734375 "/>
<path fill-rule="nonzero" fill="rgb(0%, 0%, 0%)" fill-opacity="1" d="M 263.71875 76.101562 L 264.050781 76.101562 C 264.195312 76.101562 264.316406 76.222656 264.316406 76.367188 L 264.316406 97.847656 C 264.316406 97.992188 264.195312 98.113281 264.050781 98.113281 L 263.71875 98.113281 C 263.570312 98.113281 263.453125 97.992188 263.453125 97.847656 L 263.453125 76.367188 C 263.453125 76.222656 263.570312 76.101562 263.71875 76.101562 Z M 263.71875 76.101562 "/>
<path fill-rule="nonzero" fill="rgb(0%, 0%, 0%)" fill-opacity="1" d="M 286.9375 95.734375 C 288.691406 95.734375 289.804688 96.691406 289.804688 98.101562 C 289.804688 100.464844 286.804688 102.960938 284.015625 102.960938 C 282.261719 102.960938 281.144531 102.003906 281.144531 100.597656 C 281.144531 98.234375 284.148438 95.734375 286.9375 95.734375 Z M 286.9375 95.734375 "/>
<path fill-rule="nonzero" fill="rgb(0%, 0%, 0%)" fill-opacity="1" d="M 289.207031 76.101562 L 289.542969 76.101562 C 289.6875 76.101562 289.808594 76.222656 289.808594 76.367188 L 289.808594 97.847656 C 289.808594 97.992188 289.6875 98.113281 289.542969 98.113281 L 289.207031 98.113281 C 289.0625 98.113281 288.941406 97.992188 288.941406 97.847656 L 288.941406 76.367188 C 288.941406 76.222656 289.0625 76.101562 289.207031 76.101562 Z M 289.207031 76.101562 "/>
<path fill-rule="nonzero" fill="rgb(0%, 0%, 0%)" fill-opacity="1" d="M 308.113281 60.097656 L 316.753906 60.097656 L 316.753906 61.605469 L 309.800781 61.605469 L 309.800781 65.390625 L 315.921875 65.390625 L 315.921875 66.898438 L 309.800781 66.898438 L 309.800781 72.550781 L 308.113281 72.550781 Z M 306.636719 59.164062 "/>
<path fill-rule="nonzero" fill="rgb(0%, 0%, 0%)" fill-opacity="1" d="M 312.425781 99.054688 C 314.179688 99.054688 315.296875 100.011719 315.296875 101.421875 C 315.296875 103.785156 312.292969 106.28125 309.503906 106.28125 C 307.75 106.28125 306.636719 105.328125 306.636719 103.917969 C 306.636719 101.554688 309.636719 99.054688 312.425781 99.054688 Z M 312.425781 99.054688 "/>
<path fill-rule="nonzero" fill="rgb(0%, 0%, 0%)" fill-opacity="1" d="M 314.699219 79.421875 L 315.03125 79.421875 C 315.179688 79.421875 315.296875 79.542969 315.296875 79.6875 L 315.296875 101.167969 C 315.296875 101.316406 315.179688 101.433594 315.03125 101.433594 L 314.699219 101.433594 C 314.554688 101.433594 314.433594 101.316406 314.433594 101.167969 L 314.433594 79.6875 C 314.433594 79.542969 314.554688 79.421875 314.699219 79.421875 Z M 314.699219 79.421875 "/>
<path fill-rule="nonzero" fill="rgb(0%, 0%, 0%)" fill-opacity="1" d="M 337.917969 99.054688 C 339.671875 99.054688 340.789062 100.011719 340.789062 101.421875 C 340.789062 103.785156 337.785156 106.28125 334.996094 106.28125 C 333.242188 106.28125 332.128906 105.328125 332.128906 103.917969 C 332.128906 101.554688 335.128906 99.054688 337.917969 99.054688 Z M 337.917969 99.054688 "/>
<path fill-rule="nonzero" fill="rgb(0%, 0%, 0%)" fill-opacity="1" d="M 340.191406 79.421875 L 340.523438 79.421875 C 340.671875 79.421875 340.789062 79.542969 340.789062 79.6875 L 340.789062 101.167969 C 340.789062 101.316406 340.671875 101.433594 340.523438 101.433594 L 340.191406 101.433594 C 340.046875 101.433594 339.925781 101.316406 339.925781 101.167969 L 339.925781 79.6875 C 339.925781 79.542969 340.046875 79.421875 340.191406 79.421875 Z M 340.191406 79.421875 "/>
<path fill-rule="nonzero" fill="rgb(0%, 0%, 0%)" fill-opacity="1" d="M 427.433594 86.066406 L 427.765625 86.066406 C 427.914062 86.066406 428.03125 86.183594 428.03125 86.332031 L 428.03125 107.324219 C 428.03125 107.472656 427.914062 107.589844 427.765625 107.589844 L 427.433594 107.589844 C 427.289062 107.589844 427.167969 107.472656 427.167969 107.324219 L 427.167969 86.332031 C 427.167969 86.183594 427.289062 86.066406 427.433594 86.066406 Z M 427.433594 86.066406 "/>
<path fill-rule="nonzero" fill="rgb(0%, 0%, 0%)" fill-opacity="1" d="M 427.226562 107.585938 C 427.226562 106.972656 426.722656 106.496094 426.109375 106.496094 C 425.074219 106.496094 420.691406 109.417969 419.972656 110.292969 C 419.789062 110.507812 419.707031 110.773438 419.707031 111.039062 C 419.707031 111.648438 420.210938 112.128906 420.824219 112.128906 C 421.859375 112.128906 426.214844 109.207031 426.933594 108.328125 C 427.121094 108.117188 427.226562 107.851562 427.226562 107.585938 Z M 425.84375 105.699219 C 426.933594 105.699219 428.023438 106.070312 428.023438 107.585938 C 428.023438 108.273438 427.597656 110.558594 426.058594 111.597656 C 425.394531 112.046875 423.746094 112.925781 421.089844 112.925781 C 420 112.925781 418.882812 112.550781 418.882812 111.039062 C 418.882812 110.347656 419.308594 108.0625 420.851562 107.027344 C 421.515625 106.574219 423.1875 105.699219 425.84375 105.699219 Z M 425.84375 105.699219 "/>
<path fill-rule="nonzero" fill="rgb(0%, 0%, 0%)" fill-opacity="1" d="M 374.464844 59.761719 C 376.046875 59.761719 377.265625 60.175781 378.148438 61.007812 C 379.03125 61.835938 379.5 62.773438 379.601562 63.835938 L 377.96875 63.835938 C 377.761719 63.03125 377.398438 62.382812 376.851562 61.914062 C 376.28125 61.449219 375.503906 61.214844 374.492188 61.214844 C 373.273438 61.214844 372.285156 61.65625 371.507812 62.511719 C 370.753906 63.367188 370.390625 64.691406 370.390625 66.480469 C 370.390625 67.933594 370.730469 69.128906 371.402344 70.035156 C 372.078125 70.945312 373.117188 71.386719 374.464844 71.386719 C 375.710938 71.386719 376.644531 70.917969 377.292969 69.957031 C 377.65625 69.464844 377.914062 68.789062 378.070312 67.960938 L 379.730469 67.960938 C 379.578125 69.285156 379.082031 70.375 378.253906 71.28125 C 377.265625 72.34375 375.945312 72.863281 374.257812 72.863281 C 372.804688 72.863281 371.585938 72.449219 370.597656 71.566406 C 369.300781 70.398438 368.652344 68.609375 368.652344 66.195312 C 368.652344 64.355469 369.148438 62.847656 370.132812 61.65625 C 371.171875 60.382812 372.625 59.761719 374.464844 59.761719 Z M 367.902344 59.164062 "/>
<path fill-rule="nonzero" fill="rgb(0%, 0%, 0%)" fill-opacity="1" d="M 373.691406 102.378906 C 375.445312 102.378906 376.5625 103.332031 376.5625 104.742188 C 376.5625 107.105469 373.558594 109.605469 370.769531 109.605469 C 369.015625 109.605469 367.902344 108.648438 367.902344 107.238281 C 367.902344 104.875 370.902344 102.378906 373.691406 102.378906 Z M 373.691406 102.378906 "/>
<path fill-rule="nonzero" fill="rgb(0%, 0%, 0%)" fill-opacity="1" d="M 375.964844 82.746094 L 376.296875 82.746094 C 376.445312 82.746094 376.5625 82.863281 376.5625 83.011719 L 376.5625 104.488281 C 376.5625 104.636719 376.445312 104.753906 376.296875 104.753906 L 375.964844 104.753906 C 375.820312 104.753906 375.699219 104.636719 375.699219 104.488281 L 375.699219 83.011719 C 375.699219 82.863281 375.820312 82.746094 375.964844 82.746094 Z M 375.964844 82.746094 "/>
<path fill-rule="nonzero" fill="rgb(0%, 0%, 0%)" fill-opacity="1" d="M 425.605469 59.761719 C 426.769531 59.761719 427.78125 59.996094 428.640625 60.4375 C 429.882812 61.085938 430.636719 62.226562 430.894531 63.859375 L 429.234375 63.859375 C 429.027344 62.953125 428.613281 62.277344 427.964844 61.863281 C 427.34375 61.449219 426.539062 61.242188 425.550781 61.242188 C 424.410156 61.242188 423.425781 61.683594 422.644531 62.539062 C 421.839844 63.421875 421.453125 64.71875 421.453125 66.429688 C 421.453125 67.910156 421.789062 69.101562 422.4375 70.035156 C 423.085938 70.96875 424.152344 71.4375 425.605469 71.4375 C 426.746094 71.4375 427.679688 71.101562 428.40625 70.449219 C 429.15625 69.800781 429.519531 68.738281 429.546875 67.285156 L 425.628906 67.285156 L 425.628906 65.886719 L 431.105469 65.886719 L 431.105469 72.550781 L 430.015625 72.550781 L 429.625 70.945312 C 429.054688 71.566406 428.535156 72.007812 428.09375 72.265625 C 427.367188 72.683594 426.40625 72.890625 425.265625 72.890625 C 423.789062 72.890625 422.515625 72.398438 421.453125 71.4375 C 420.3125 70.242188 419.714844 68.609375 419.714844 66.507812 C 419.714844 64.433594 420.285156 62.773438 421.425781 61.527344 C 422.492188 60.359375 423.890625 59.761719 425.605469 59.761719 Z M 418.882812 59.164062 "/>
<path fill-rule="nonzero" fill="rgb(0%, 0%, 0%)" fill-opacity="1" d="M 399.183594 102.378906 C 400.9375 102.378906 402.054688 103.332031 402.054688 104.742188 C 402.054688 107.105469 399.050781 109.605469 396.261719 109.605469 C 394.507812 109.605469 393.394531 108.648438 393.394531 107.238281 C 393.394531 104.875 396.394531 102.378906 399.183594 102.378906 Z M 399.183594 102.378906 "/>
<path fill-rule="nonzero" fill="rgb(0%, 0%, 0%)" fill-opacity="1" d="M 401.457031 82.746094 L 401.789062 82.746094 C 401.9375 82.746094 402.054688 82.863281 402.054688 83.011719 L 402.054688 104.488281 C 402.054688 104.636719 401.9375 104.753906 401.789062 104.753906 L 401.457031 104.753906 C 401.3125 104.753906 401.191406 104.636719 401.191406 104.488281 L 401.191406 83.011719 C 401.191406 82.863281 401.3125 82.746094 401.457031 82.746094 Z M 401.457031 82.746094 "/>
<path fill-rule="nonzero" fill="rgb(0%, 0%, 0%)" fill-opacity="1" d="M 147.640625 139.109375 L 148.902344 139.109375 L 148.902344 165.679688 L 147.640625 165.679688 Z M 147.640625 139.109375 "/>
<path fill-rule="nonzero" fill="rgb(0%, 0%, 0%)" fill-opacity="1" d="M 412.261719 171.65625 L 424.65625 171.65625 C 425.023438 171.65625 425.320312 171.953125 425.320312 172.320312 C 425.320312 172.6875 425.023438 172.984375 424.65625 172.984375 L 412.261719 172.984375 C 411.894531 172.984375 411.597656 172.6875 411.597656 172.320312 C 411.597656 171.953125 411.894531 171.65625 412.261719 171.65625 Z M 412.261719 171.65625 "/>
<path fill-rule="nonzero" fill="rgb(0%, 0%, 0%)" fill-opacity="1" d="M 67.972656 171.65625 L 79.640625 171.65625 C 80.003906 171.65625 80.304688 171.953125 80.304688 172.320312 C 80.304688 172.6875 80.003906 172.984375 79.640625 172.984375 L 67.972656 172.984375 C 67.605469 172.984375 67.308594 172.6875 67.308594 172.320312 C 67.308594 171.953125 67.605469 171.65625 67.972656 171.65625 Z M 67.972656 171.65625 "/>
<path fill-rule="nonzero" fill="rgb(0%, 0%, 0%)" fill-opacity="1" d="M 42.917969 171.65625 L 54.582031 171.65625 C 54.949219 171.65625 55.246094 171.953125 55.246094 172.320312 C 55.246094 172.6875 54.949219 172.984375 54.582031 172.984375 L 42.917969 172.984375 C 42.550781 172.984375 42.253906 172.6875 42.253906 172.320312 C 42.253906 171.953125 42.550781 171.65625 42.917969 171.65625 Z M 42.917969 171.65625 "/>
<path fill="none" stroke-width="0.1" stroke-linecap="round" stroke-linejoin="round" stroke="rgb(0%, 0%, 0%)" stroke-opacity="1" stroke-miterlimit="4" d="M 0.0497863 0.000239044 L 68.23633 0.000239044 " transform="matrix(6.641764, 0, 0, 6.641764, 5.895894, 165.6781)"/>
<path fill="none" stroke-width="0.1" stroke-linecap="round" stroke-linejoin="round" stroke="rgb(0%, 0%, 0%)" stroke-opacity="1" stroke-miterlimit="4" d="M 0.0497863 -0.000177649 L 68.23633 -0.000177649 " transform="matrix(6.641764, 0, 0, 6.641764, 5.895894, 159.036336)"/>
<path fill="none" stroke-width="0.1" stroke-linecap="round" stroke-linejoin="round" stroke="rgb(0%, 0%, 0%)" stroke-opacity="1" stroke-miterlimit="4" d="M 0.0497863 -0.00000620653 L 68.23633 -0.00000620653 " transform="matrix(6.641764, 0, 0, 6.641764, 5.895894, 152.394572)"/>
<path fill="none" stroke-width="0.1" stroke-linecap="round" stroke-linejoin="round" stroke="rgb(0%, 0%, 0%)" stroke-opacity="1" stroke-miterlimit="4" d="M 0.0497863 0.000165236 L 68.23633 0.000165236 " transform="matrix(6.641764, 0, 0, 6.641764, 5.895894, 145.752809)"/>
<path fill="none" stroke-width="0.1" stroke-linecap="round" stroke-linejoin="round" stroke="rgb(0%, 0%, 0%)" stroke-opacity="1" stroke-miterlimit="4" d="M 0.0497863 -0.000251457 L 68.23633 -0.000251457 " transform="matrix(6.641764, 0, 0, 6.641764, 5.895894, 139.111045)"/>
<path fill-rule="nonzero" fill="rgb(0%, 0%, 0%)" fill-opacity="1" d="M 455.453125 139.109375 L 459.4375 139.109375 L 459.4375 165.679688 L 455.453125 165.679688 Z M 455.453125 139.109375 "/>
<path fill-rule="nonzero" fill="rgb(0%, 0%, 0%)" fill-opacity="1" d="M 452.199219 139.109375 L 453.460938 139.109375 L 453.460938 165.679688 L 452.199219 165.679688 Z M 452.199219 139.109375 "/>
<path fill-rule="nonzero" fill="rgb(0%, 0%, 0%)" fill-opacity="1" d="M 355.175781 139.109375 L 356.4375 139.109375 L 356.4375 165.679688 L 355.175781 165.679688 Z M 355.175781 139.109375 "/>
<path fill-rule="nonzero" fill="rgb(0%, 0%, 0%)" fill-opacity="1" d="M 244.78125 139.109375 L 246.042969 139.109375 L 246.042969 165.679688 L 244.78125 165.679688 Z M 244.78125 139.109375 "/>
<path fill-rule="nonzero" fill="rgb(0%, 0%, 0%)" fill-opacity="1" d="M 254.855469 116.695312 L 263.492188 116.695312 L 263.492188 118.199219 L 256.539062 118.199219 L 256.539062 121.988281 L 262.664062 121.988281 L 262.664062 123.492188 L 256.539062 123.492188 L 256.539062 129.148438 L 254.855469 129.148438 Z M 253.375 115.761719 "/>
<path fill-rule="nonzero" fill="rgb(0%, 0%, 0%)" fill-opacity="1" d="M 420.449219 116.359375 C 422.03125 116.359375 423.25 116.773438 424.132812 117.601562 C 425.015625 118.433594 425.480469 119.367188 425.585938 120.429688 L 423.953125 120.429688 C 423.742188 119.625 423.378906 118.976562 422.835938 118.511719 C 422.265625 118.042969 421.488281 117.8125 420.476562 117.8125 C 419.253906 117.8125 418.269531 118.25 417.492188 119.109375 C 416.738281 119.964844 416.375 121.289062 416.375 123.078125 C 416.375 124.53125 416.710938 125.722656 417.386719 126.632812 C 418.0625 127.539062 419.101562 127.980469 420.449219 127.980469 C 421.695312 127.980469 422.628906 127.515625 423.277344 126.554688 C 423.640625 126.0625 423.898438 125.386719 424.054688 124.554688 L 425.714844 124.554688 C 425.558594 125.878906 425.066406 126.96875 424.238281 127.878906 C 423.25 128.941406 421.925781 129.460938 420.242188 129.460938 C 418.789062 129.460938 417.570312 129.042969 416.582031 128.164062 C 415.285156 126.996094 414.636719 125.203125 414.636719 122.792969 C 414.636719 120.949219 415.128906 119.445312 416.117188 118.25 C 417.152344 116.980469 418.605469 116.359375 420.449219 116.359375 Z M 413.886719 115.761719 "/>
<path fill-rule="nonzero" fill="rgb(0%, 0%, 0%)" fill-opacity="1" d="M 18.277344 175.90625 L 18.117188 175.90625 C 15.246094 175.90625 12.9375 173.570312 12.9375 170.671875 C 12.9375 169.132812 14.34375 167.9375 15.910156 167.9375 C 17.347656 167.9375 18.433594 169.183594 18.433594 170.671875 C 18.433594 172.054688 17.292969 173.195312 15.910156 173.195312 C 15.621094 173.195312 15.355469 173.144531 15.089844 173.039062 C 15.777344 174.074219 16.894531 174.765625 18.195312 174.765625 L 18.300781 174.765625 Z M 23.457031 164.429688 C 25.261719 163.792969 26.457031 162.039062 26.457031 160.074219 C 26.457031 157.679688 24.707031 155.316406 21.863281 155.023438 C 22.367188 157.390625 23.136719 161.453125 23.457031 164.429688 Z M 13.175781 158.292969 C 13.175781 162.144531 16.921875 164.855469 20.1875 164.855469 C 20.214844 164.855469 21.4375 164.855469 22.367188 164.695312 C 22.179688 162.996094 21.597656 159.300781 20.695312 155.023438 C 18.59375 155.238281 17.398438 156.644531 17.398438 158.1875 C 17.398438 159.355469 18.0625 160.605469 19.550781 161.453125 C 19.683594 161.585938 19.738281 161.71875 19.738281 161.851562 C 19.738281 162.144531 19.472656 162.4375 19.152344 162.4375 C 18.753906 162.4375 15.804688 160.789062 15.804688 157.46875 C 15.804688 155.132812 17.347656 152.847656 20.054688 152.234375 C 19.683594 150.695312 19.285156 149.125 18.835938 147.585938 C 15.992188 150.800781 13.175781 154.042969 13.175781 158.292969 Z M 17.851562 144.34375 C 17.082031 141.792969 16.46875 139.828125 16.46875 135.152344 C 16.46875 132.097656 17.929688 129.203125 20.429688 127.394531 C 20.585938 127.261719 20.800781 127.261719 20.960938 127.394531 C 22.765625 129.519531 24.492188 133.902344 24.492188 136.90625 C 24.492188 140.703125 22.207031 143.679688 19.710938 146.578125 C 20.269531 148.382812 20.746094 150.242188 21.199219 152.074219 C 21.25 152.074219 21.382812 152.050781 21.542969 152.050781 C 25.660156 152.050781 28.34375 155.449219 28.34375 158.984375 C 28.34375 161.984375 26.378906 164.617188 23.5625 165.519531 C 23.644531 166.449219 23.695312 167.378906 23.695312 168.308594 C 23.695312 168.8125 23.667969 169.34375 23.644531 169.847656 C 23.457031 173.011719 21.304688 175.828125 18.277344 175.90625 L 18.300781 174.765625 C 20.773438 174.710938 22.367188 172.320312 22.527344 169.691406 C 22.554688 169.210938 22.578125 168.707031 22.578125 168.230469 C 22.578125 167.40625 22.554688 166.609375 22.472656 165.785156 C 22.339844 165.8125 21.304688 165.996094 20.109375 165.996094 C 14.980469 165.996094 11.261719 161.214844 11.261719 156.0625 C 11.261719 151.359375 14.742188 147.929688 17.851562 144.34375 Z M 22.578125 134.699219 C 22.578125 133.796875 22.605469 132.949219 22.046875 131.273438 C 19.417969 132.550781 17.746094 135.230469 17.746094 138.15625 C 17.746094 139.535156 18.0625 141.210938 18.703125 143.308594 C 20.828125 140.730469 22.578125 138.046875 22.578125 134.699219 Z M 22.578125 134.699219 "/>
<path fill-rule="nonzero" fill="rgb(0%, 0%, 0%)" fill-opacity="1" d="M 2.90625 128.734375 C 3.164062 128.734375 3.425781 128.65625 3.683594 128.527344 C 3.96875 128.371094 4.125 128.242188 4.152344 128.164062 C 4.175781 128.113281 4.175781 127.984375 4.203125 127.722656 C 4.203125 127.488281 4.203125 127.28125 4.203125 127.152344 C 4.203125 126.347656 4.074219 125.726562 3.8125 125.234375 C 3.554688 124.738281 3.164062 124.480469 2.644531 124.480469 C 2.28125 124.480469 1.996094 124.664062 1.765625 125 C 1.53125 125.335938 1.425781 125.828125 1.425781 126.503906 C 1.425781 127.050781 1.53125 127.566406 1.738281 128.035156 C 1.945312 128.5 2.335938 128.734375 2.90625 128.734375 Z M 2.722656 124.167969 C 3.554688 124.167969 4.203125 124.507812 4.671875 125.15625 C 5.109375 125.828125 5.34375 126.554688 5.34375 127.386719 C 5.34375 127.957031 5.242188 128.527344 5.007812 129.125 C 4.800781 129.722656 4.488281 130.238281 4.074219 130.707031 C 3.605469 131.253906 2.984375 131.640625 2.257812 131.902344 C 1.84375 132.054688 1.324219 132.160156 0.699219 132.238281 L 0.648438 132.03125 C 1.039062 131.925781 1.347656 131.847656 1.609375 131.746094 C 2.074219 131.5625 2.464844 131.328125 2.75 131.042969 C 3.140625 130.679688 3.476562 130.238281 3.710938 129.773438 C 3.945312 129.304688 4.097656 128.917969 4.152344 128.605469 L 3.96875 128.734375 C 3.683594 128.941406 3.347656 129.097656 2.984375 129.175781 C 2.777344 129.226562 2.59375 129.253906 2.4375 129.253906 C 1.789062 129.253906 1.296875 129.019531 0.90625 128.554688 C 0.542969 128.113281 0.335938 127.566406 0.335938 126.945312 C 0.335938 126.140625 0.570312 125.464844 1.011719 124.949219 C 1.453125 124.429688 2.050781 124.167969 2.722656 124.167969 Z M 0 123.285156 "/>
<path fill-rule="nonzero" fill="rgb(0%, 0%, 0%)" fill-opacity="1" d="M 50.980469 116.359375 C 52.566406 116.359375 53.785156 116.773438 54.667969 117.601562 C 55.546875 118.433594 56.015625 119.367188 56.117188 120.429688 L 54.484375 120.429688 C 54.277344 119.625 53.914062 118.976562 53.367188 118.511719 C 52.796875 118.042969 52.019531 117.8125 51.007812 117.8125 C 49.789062 117.8125 48.800781 118.25 48.023438 119.109375 C 47.273438 119.964844 46.910156 121.289062 46.910156 123.078125 C 46.910156 124.53125 47.246094 125.722656 47.921875 126.632812 C 48.59375 127.539062 49.632812 127.980469 50.980469 127.980469 C 52.226562 127.980469 53.160156 127.515625 53.808594 126.554688 C 54.171875 126.0625 54.433594 125.386719 54.589844 124.554688 L 56.25 124.554688 C 56.09375 125.878906 55.601562 126.96875 54.769531 127.878906 C 53.785156 128.941406 52.460938 129.460938 50.773438 129.460938 C 49.320312 129.460938 48.101562 129.042969 47.117188 128.164062 C 45.820312 126.996094 45.171875 125.203125 45.171875 122.792969 C 45.171875 120.949219 45.664062 119.445312 46.648438 118.25 C 47.6875 116.980469 49.140625 116.359375 50.980469 116.359375 Z M 44.417969 115.761719 "/>
<path fill-rule="nonzero" fill="rgb(0%, 0%, 0%)" fill-opacity="1" d="M 50.210938 168.707031 C 51.964844 168.707031 53.078125 169.664062 53.078125 171.070312 C 53.078125 173.4375 50.078125 175.933594 47.289062 175.933594 C 45.535156 175.933594 44.417969 174.976562 44.417969 173.570312 C 44.417969 171.203125 47.421875 168.707031 50.210938 168.707031 Z M 50.210938 168.707031 "/>
<path fill-rule="nonzero" fill="rgb(0%, 0%, 0%)" fill-opacity="1" d="M 52.484375 149.074219 L 52.816406 149.074219 C 52.960938 149.074219 53.082031 149.191406 53.082031 149.339844 L 53.082031 170.816406 C 53.082031 170.964844 52.960938 171.082031 52.816406 171.082031 L 52.484375 171.082031 C 52.335938 171.082031 52.21875 170.964844 52.21875 170.816406 L 52.21875 149.339844 C 52.21875 149.191406 52.335938 149.074219 52.484375 149.074219 Z M 52.484375 149.074219 "/>
<path fill-rule="nonzero" fill="rgb(0%, 0%, 0%)" fill-opacity="1" d="M 75.265625 168.707031 C 77.019531 168.707031 78.136719 169.664062 78.136719 171.070312 C 78.136719 173.4375 75.132812 175.933594 72.34375 175.933594 C 70.589844 175.933594 69.476562 174.976562 69.476562 173.570312 C 69.476562 171.203125 72.476562 168.707031 75.265625 168.707031 Z M 75.265625 168.707031 "/>
<path fill-rule="nonzero" fill="rgb(0%, 0%, 0%)" fill-opacity="1" d="M 77.539062 149.074219 L 77.871094 149.074219 C 78.019531 149.074219 78.136719 149.191406 78.136719 149.339844 L 78.136719 170.816406 C 78.136719 170.964844 78.019531 171.082031 77.871094 171.082031 L 77.539062 171.082031 C 77.394531 171.082031 77.273438 170.964844 77.273438 170.816406 L 77.273438 149.339844 C 77.273438 149.191406 77.394531 149.074219 77.539062 149.074219 Z M 77.539062 149.074219 "/>
<path fill-rule="nonzero" fill="rgb(0%, 0%, 0%)" fill-opacity="1" d="M 101.984375 155.421875 C 103.738281 155.421875 104.855469 156.378906 104.855469 157.789062 C 104.855469 160.152344 101.851562 162.648438 99.0625 162.648438 C 97.308594 162.648438 96.191406 161.691406 96.191406 160.285156 C 96.191406 157.921875 99.195312 155.421875 101.984375 155.421875 Z M 101.984375 155.421875 "/>
<path fill-rule="nonzero" fill="rgb(0%, 0%, 0%)" fill-opacity="1" d="M 104.257812 135.789062 L 104.589844 135.789062 C 104.734375 135.789062 104.855469 135.910156 104.855469 136.054688 L 104.855469 157.535156 C 104.855469 157.679688 104.734375 157.800781 104.589844 157.800781 L 104.257812 157.800781 C 104.109375 157.800781 103.992188 157.679688 103.992188 157.535156 L 103.992188 136.054688 C 103.992188 135.910156 104.109375 135.789062 104.257812 135.789062 Z M 104.257812 135.789062 "/>
<path fill-rule="nonzero" fill="rgb(0%, 0%, 0%)" fill-opacity="1" d="M 127.039062 155.421875 C 128.792969 155.421875 129.910156 156.378906 129.910156 157.789062 C 129.910156 160.152344 126.90625 162.648438 124.117188 162.648438 C 122.363281 162.648438 121.25 161.691406 121.25 160.285156 C 121.25 157.921875 124.25 155.421875 127.039062 155.421875 Z M 127.039062 155.421875 "/>
<path fill-rule="nonzero" fill="rgb(0%, 0%, 0%)" fill-opacity="1" d="M 129.3125 135.789062 L 129.644531 135.789062 C 129.792969 135.789062 129.910156 135.910156 129.910156 136.054688 L 129.910156 157.535156 C 129.910156 157.679688 129.792969 157.800781 129.644531 157.800781 L 129.3125 157.800781 C 129.167969 157.800781 129.046875 157.679688 129.046875 157.535156 L 129.046875 136.054688 C 129.046875 135.910156 129.167969 135.789062 129.3125 135.789062 Z M 129.3125 135.789062 "/>
<path fill-rule="nonzero" fill="rgb(0%, 0%, 0%)" fill-opacity="1" d="M 157.714844 116.695312 L 166.355469 116.695312 L 166.355469 118.199219 L 159.402344 118.199219 L 159.402344 121.988281 L 165.523438 121.988281 L 165.523438 123.492188 L 159.402344 123.492188 L 159.402344 129.148438 L 157.714844 129.148438 Z M 156.238281 115.761719 "/>
<path fill-rule="nonzero" fill="rgb(0%, 0%, 0%)" fill-opacity="1" d="M 162.027344 152.101562 C 163.78125 152.101562 164.898438 153.058594 164.898438 154.46875 C 164.898438 156.832031 161.894531 159.328125 159.105469 159.328125 C 157.351562 159.328125 156.238281 158.371094 156.238281 156.964844 C 156.238281 154.601562 159.238281 152.101562 162.027344 152.101562 Z M 162.027344 152.101562 "/>
<path fill-rule="nonzero" fill="rgb(0%, 0%, 0%)" fill-opacity="1" d="M 164.300781 132.46875 L 164.632812 132.46875 C 164.78125 132.46875 164.898438 132.589844 164.898438 132.734375 L 164.898438 154.214844 C 164.898438 154.359375 164.78125 154.480469 164.632812 154.480469 L 164.300781 154.480469 C 164.15625 154.480469 164.035156 154.359375 164.035156 154.214844 L 164.035156 132.734375 C 164.035156 132.589844 164.15625 132.46875 164.300781 132.46875 Z M 164.300781 132.46875 "/>
<path fill-rule="nonzero" fill="rgb(0%, 0%, 0%)" fill-opacity="1" d="M 187.085938 152.101562 C 188.839844 152.101562 189.957031 153.058594 189.957031 154.46875 C 189.957031 156.832031 186.953125 159.328125 184.164062 159.328125 C 182.410156 159.328125 181.292969 158.371094 181.292969 156.964844 C 181.292969 154.601562 184.296875 152.101562 187.085938 152.101562 Z M 187.085938 152.101562 "/>
<path fill-rule="nonzero" fill="rgb(0%, 0%, 0%)" fill-opacity="1" d="M 189.359375 132.46875 L 189.691406 132.46875 C 189.835938 132.46875 189.957031 132.589844 189.957031 132.734375 L 189.957031 154.214844 C 189.957031 154.359375 189.835938 154.480469 189.691406 154.480469 L 189.359375 154.480469 C 189.210938 154.480469 189.09375 154.359375 189.09375 154.214844 L 189.09375 132.734375 C 189.09375 132.589844 189.210938 132.46875 189.359375 132.46875 Z M 189.359375 132.46875 "/>
<path fill-rule="nonzero" fill="rgb(0%, 0%, 0%)" fill-opacity="1" d="M 212.914062 116.359375 C 214.496094 116.359375 215.71875 116.773438 216.597656 117.601562 C 217.480469 118.433594 217.949219 119.367188 218.050781 120.429688 L 216.417969 120.429688 C 216.210938 119.625 215.847656 118.976562 215.300781 118.511719 C 214.730469 118.042969 213.953125 117.8125 212.941406 117.8125 C 211.722656 117.8125 210.734375 118.25 209.957031 119.109375 C 209.203125 119.964844 208.839844 121.289062 208.839844 123.078125 C 208.839844 124.53125 209.179688 125.722656 209.851562 126.632812 C 210.527344 127.539062 211.566406 127.980469 212.914062 127.980469 C 214.160156 127.980469 215.09375 127.515625 215.742188 126.554688 C 216.105469 126.0625 216.367188 125.386719 216.519531 124.554688 L 218.179688 124.554688 C 218.027344 125.878906 217.53125 126.96875 216.703125 127.878906 C 215.71875 128.941406 214.394531 129.460938 212.707031 129.460938 C 211.253906 129.460938 210.035156 129.042969 209.050781 128.164062 C 207.753906 126.996094 207.101562 125.203125 207.101562 122.792969 C 207.101562 120.949219 207.597656 119.445312 208.582031 118.25 C 209.621094 116.980469 211.074219 116.359375 212.914062 116.359375 Z M 206.351562 115.761719 "/>
<path fill-rule="nonzero" fill="rgb(0%, 0%, 0%)" fill-opacity="1" d="M 214.691406 157.308594 C 214.691406 156.699219 214.1875 156.21875 213.578125 156.21875 C 212.542969 156.21875 208.15625 159.144531 207.441406 160.019531 C 207.253906 160.230469 207.175781 160.496094 207.175781 160.761719 C 207.175781 161.375 207.679688 161.851562 208.289062 161.851562 C 209.328125 161.851562 213.683594 158.929688 214.402344 158.054688 C 214.585938 157.839844 214.691406 157.574219 214.691406 157.308594 Z M 213.3125 155.421875 C 214.402344 155.421875 215.488281 155.796875 215.488281 157.308594 C 215.488281 158 215.066406 160.285156 213.523438 161.320312 C 212.859375 161.773438 211.210938 162.648438 208.554688 162.648438 C 207.464844 162.648438 206.351562 162.277344 206.351562 160.761719 C 206.351562 160.074219 206.777344 157.789062 208.316406 156.75 C 208.980469 156.300781 210.65625 155.421875 213.3125 155.421875 Z M 213.3125 155.421875 "/>
<path fill-rule="nonzero" fill="rgb(0%, 0%, 0%)" fill-opacity="1" d="M 214.902344 135.789062 L 215.234375 135.789062 C 215.378906 135.789062 215.5 135.910156 215.5 136.054688 L 215.5 157.050781 C 215.5 157.195312 215.378906 157.316406 215.234375 157.316406 L 214.902344 157.316406 C 214.753906 157.316406 214.636719 157.195312 214.636719 157.050781 L 214.636719 136.054688 C 214.636719 135.910156 214.753906 135.789062 214.902344 135.789062 Z M 214.902344 135.789062 "/>
<path fill-rule="nonzero" fill="rgb(0%, 0%, 0%)" fill-opacity="1" d="M 259.167969 158.742188 C 260.921875 158.742188 262.035156 159.699219 262.035156 161.109375 C 262.035156 163.472656 259.035156 165.96875 256.246094 165.96875 C 254.492188 165.96875 253.375 165.015625 253.375 163.605469 C 253.375 161.242188 256.378906 158.742188 259.167969 158.742188 Z M 259.167969 158.742188 "/>
<path fill-rule="nonzero" fill="rgb(0%, 0%, 0%)" fill-opacity="1" d="M 261.441406 139.109375 L 261.773438 139.109375 C 261.917969 139.109375 262.039062 139.230469 262.039062 139.375 L 262.039062 160.855469 C 262.039062 161.003906 261.917969 161.121094 261.773438 161.121094 L 261.441406 161.121094 C 261.292969 161.121094 261.175781 161.003906 261.175781 160.855469 L 261.175781 139.375 C 261.175781 139.230469 261.292969 139.109375 261.441406 139.109375 Z M 261.441406 139.109375 "/>
<path fill-rule="nonzero" fill="rgb(0%, 0%, 0%)" fill-opacity="1" d="M 284.222656 158.742188 C 285.976562 158.742188 287.09375 159.699219 287.09375 161.109375 C 287.09375 163.472656 284.089844 165.96875 281.300781 165.96875 C 279.546875 165.96875 278.433594 165.015625 278.433594 163.605469 C 278.433594 161.242188 281.433594 158.742188 284.222656 158.742188 Z M 284.222656 158.742188 "/>
<path fill-rule="nonzero" fill="rgb(0%, 0%, 0%)" fill-opacity="1" d="M 286.496094 139.109375 L 286.828125 139.109375 C 286.976562 139.109375 287.09375 139.230469 287.09375 139.375 L 287.09375 160.855469 C 287.09375 161.003906 286.976562 161.121094 286.828125 161.121094 L 286.496094 161.121094 C 286.351562 161.121094 286.230469 161.003906 286.230469 160.855469 L 286.230469 139.375 C 286.230469 139.230469 286.351562 139.109375 286.496094 139.109375 Z M 286.496094 139.109375 "/>
<path fill-rule="nonzero" fill="rgb(0%, 0%, 0%)" fill-opacity="1" d="M 310.054688 116.359375 C 311.636719 116.359375 312.855469 116.773438 313.738281 117.601562 C 314.621094 118.433594 315.085938 119.367188 315.191406 120.429688 L 313.554688 120.429688 C 313.347656 119.625 312.984375 118.976562 312.441406 118.511719 C 311.871094 118.042969 311.089844 117.8125 310.078125 117.8125 C 308.859375 117.8125 307.875 118.25 307.09375 119.109375 C 306.34375 119.964844 305.980469 121.289062 305.980469 123.078125 C 305.980469 124.53125 306.316406 125.722656 306.992188 126.632812 C 307.667969 127.539062 308.703125 127.980469 310.054688 127.980469 C 311.296875 127.980469 312.234375 127.515625 312.882812 126.554688 C 313.246094 126.0625 313.503906 125.386719 313.660156 124.554688 L 315.320312 124.554688 C 315.164062 125.878906 314.671875 126.96875 313.839844 127.878906 C 312.855469 128.941406 311.53125 129.460938 309.847656 129.460938 C 308.394531 129.460938 307.171875 129.042969 306.1875 128.164062 C 304.890625 126.996094 304.242188 125.203125 304.242188 122.792969 C 304.242188 120.949219 304.734375 119.445312 305.71875 118.25 C 306.757812 116.980469 308.210938 116.359375 310.054688 116.359375 Z M 303.488281 115.761719 "/>
<path fill-rule="nonzero" fill="rgb(0%, 0%, 0%)" fill-opacity="1" d="M 309.28125 162.066406 C 311.035156 162.066406 312.148438 163.019531 312.148438 164.429688 C 312.148438 166.792969 309.148438 169.292969 306.359375 169.292969 C 304.605469 169.292969 303.488281 168.335938 303.488281 166.925781 C 303.488281 164.5625 306.492188 162.066406 309.28125 162.066406 Z M 309.28125 162.066406 "/>
<path fill-rule="nonzero" fill="rgb(0%, 0%, 0%)" fill-opacity="1" d="M 311.554688 142.433594 L 311.886719 142.433594 C 312.03125 142.433594 312.152344 142.550781 312.152344 142.699219 L 312.152344 164.175781 C 312.152344 164.324219 312.03125 164.441406 311.886719 164.441406 L 311.554688 164.441406 C 311.40625 164.441406 311.289062 164.324219 311.289062 164.175781 L 311.289062 142.699219 C 311.289062 142.550781 311.40625 142.433594 311.554688 142.433594 Z M 311.554688 142.433594 "/>
<path fill-rule="nonzero" fill="rgb(0%, 0%, 0%)" fill-opacity="1" d="M 334.339844 162.066406 C 336.09375 162.066406 337.207031 163.019531 337.207031 164.429688 C 337.207031 166.792969 334.207031 169.292969 331.417969 169.292969 C 329.664062 169.292969 328.546875 168.335938 328.546875 166.925781 C 328.546875 164.5625 331.550781 162.066406 334.339844 162.066406 Z M 334.339844 162.066406 "/>
<path fill-rule="nonzero" fill="rgb(0%, 0%, 0%)" fill-opacity="1" d="M 336.609375 142.433594 L 336.941406 142.433594 C 337.089844 142.433594 337.207031 142.550781 337.207031 142.699219 L 337.207031 164.175781 C 337.207031 164.324219 337.089844 164.441406 336.941406 164.441406 L 336.609375 164.441406 C 336.464844 164.441406 336.34375 164.324219 336.34375 164.175781 L 336.34375 142.699219 C 336.34375 142.550781 336.464844 142.433594 336.609375 142.433594 Z M 336.609375 142.433594 "/>
<path fill-rule="nonzero" fill="rgb(0%, 0%, 0%)" fill-opacity="1" d="M 422.433594 149.074219 L 422.765625 149.074219 C 422.914062 149.074219 423.03125 149.191406 423.03125 149.339844 L 423.03125 170.332031 C 423.03125 170.480469 422.914062 170.601562 422.765625 170.601562 L 422.433594 170.601562 C 422.289062 170.601562 422.167969 170.480469 422.167969 170.332031 L 422.167969 149.339844 C 422.167969 149.191406 422.289062 149.074219 422.433594 149.074219 Z M 422.433594 149.074219 "/>
<path fill-rule="nonzero" fill="rgb(0%, 0%, 0%)" fill-opacity="1" d="M 370.492188 116.359375 C 371.660156 116.359375 372.671875 116.589844 373.527344 117.03125 C 374.773438 117.679688 375.523438 118.824219 375.785156 120.457031 L 374.125 120.457031 C 373.914062 119.550781 373.5 118.875 372.851562 118.460938 C 372.230469 118.042969 371.425781 117.835938 370.4375 117.835938 C 369.296875 117.835938 368.3125 118.277344 367.535156 119.132812 C 366.730469 120.015625 366.339844 121.3125 366.339844 123.027344 C 366.339844 124.503906 366.675781 125.699219 367.324219 126.632812 C 367.972656 127.566406 369.039062 128.03125 370.492188 128.03125 C 371.632812 128.03125 372.566406 127.695312 373.292969 127.046875 C 374.046875 126.398438 374.410156 125.335938 374.433594 123.882812 L 370.515625 123.882812 L 370.515625 122.480469 L 375.992188 122.480469 L 375.992188 129.148438 L 374.902344 129.148438 L 374.511719 127.539062 C 373.941406 128.164062 373.421875 128.605469 372.980469 128.863281 C 372.253906 129.277344 371.296875 129.484375 370.152344 129.484375 C 368.675781 129.484375 367.402344 128.992188 366.339844 128.03125 C 365.199219 126.839844 364.601562 125.203125 364.601562 123.101562 C 364.601562 121.027344 365.171875 119.367188 366.3125 118.121094 C 367.378906 116.953125 368.777344 116.359375 370.492188 116.359375 Z M 363.769531 115.761719 "/>
<path fill-rule="nonzero" fill="rgb(0%, 0%, 0%)" fill-opacity="1" d="M 369.5625 165.386719 C 371.316406 165.386719 372.433594 166.34375 372.433594 167.75 C 372.433594 170.113281 369.429688 172.613281 366.640625 172.613281 C 364.886719 172.613281 363.769531 171.65625 363.769531 170.246094 C 363.769531 167.882812 366.773438 165.386719 369.5625 165.386719 Z M 369.5625 165.386719 "/>
<path fill-rule="nonzero" fill="rgb(0%, 0%, 0%)" fill-opacity="1" d="M 371.835938 145.753906 L 372.167969 145.753906 C 372.316406 145.753906 372.433594 145.871094 372.433594 146.019531 L 372.433594 167.496094 C 372.433594 167.644531 372.316406 167.761719 372.167969 167.761719 L 371.835938 167.761719 C 371.6875 167.761719 371.570312 167.644531 371.570312 167.496094 L 371.570312 146.019531 C 371.570312 145.871094 371.6875 145.753906 371.835938 145.753906 Z M 371.835938 145.753906 "/>
<path fill-rule="nonzero" fill="rgb(0%, 0%, 0%)" fill-opacity="1" d="M 422.226562 170.59375 C 422.226562 169.980469 421.722656 169.503906 421.109375 169.503906 C 420.074219 169.503906 415.691406 172.425781 414.972656 173.304688 C 414.789062 173.515625 414.707031 173.78125 414.707031 174.046875 C 414.707031 174.65625 415.214844 175.136719 415.824219 175.136719 C 416.859375 175.136719 421.21875 172.214844 421.933594 171.335938 C 422.121094 171.125 422.226562 170.859375 422.226562 170.59375 Z M 420.84375 168.707031 C 421.933594 168.707031 423.023438 169.078125 423.023438 170.59375 C 423.023438 171.285156 422.597656 173.570312 421.058594 174.605469 C 420.394531 175.054688 418.746094 175.933594 416.089844 175.933594 C 415 175.933594 413.886719 175.5625 413.886719 174.046875 C 413.886719 173.355469 414.308594 171.070312 415.851562 170.035156 C 416.515625 169.582031 418.1875 168.707031 420.84375 168.707031 Z M 420.84375 168.707031 "/>
<path fill-rule="nonzero" fill="rgb(0%, 0%, 0%)" fill-opacity="1" d="M 394.621094 165.386719 C 396.375 165.386719 397.488281 166.34375 397.488281 167.75 C 397.488281 170.113281 394.488281 172.613281 391.699219 172.613281 C 389.945312 172.613281 388.828125 171.65625 388.828125 170.246094 C 388.828125 167.882812 391.832031 165.386719 394.621094 165.386719 Z M 394.621094 165.386719 "/>
<path fill-rule="nonzero" fill="rgb(0%, 0%, 0%)" fill-opacity="1" d="M 396.890625 145.753906 L 397.226562 145.753906 C 397.371094 145.753906 397.492188 145.871094 397.492188 146.019531 L 397.492188 167.496094 C 397.492188 167.644531 397.371094 167.761719 397.226562 167.761719 L 396.890625 167.761719 C 396.746094 167.761719 396.625 167.644531 396.625 167.496094 L 396.625 146.019531 C 396.625 145.871094 396.746094 145.753906 396.890625 145.753906 Z M 396.890625 145.753906 "/>
</svg>
